# MagicaVoxel @ Ephtracy

# group
g Ground

# material
mtllib Ground.mtl
usemtl palette

# normals
vn -1 0 0
vn 1 0 0
vn 0 0 1
vn 0 0 -1
vn 0 -1 0
vn 0 1 0

# texcoords
vt 0.392578 0.5
vt 0.533203 0.5
vt 0.560547 0.5
vt 0.888672 0.5

# verts
v -8 10 8
v -8 10 -8
v -8 13 8
v -8 13 -8
v -8 16 8
v -8 16 -8
v 8 10 8
v 8 10 -8
v 8 13 8
v 8 13 -8
v 8 16 8
v 8 16 -8
v -8 10 8
v -8 13 8
v -8 16 8
v 8 10 8
v 8 13 8
v 8 16 8
v -8 10 -8
v -8 13 -8
v -8 16 -8
v 8 10 -8
v 8 13 -8
v 8 16 -8
v -8 10 8
v 8 10 8
v -8 10 -8
v 8 10 -8
v -8 16 8
v 8 16 8
v -8 16 -8
v 8 16 -8

# faces
f 3/3/1 2/3/1 1/3/1
f 4/3/1 2/3/1 3/3/1
f 5/4/1 4/4/1 3/4/1
f 6/4/1 4/4/1 5/4/1
f 7/3/2 8/3/2 9/3/2
f 9/3/2 8/3/2 10/3/2
f 9/4/2 10/4/2 11/4/2
f 11/4/2 10/4/2 12/4/2
f 16/3/3 14/3/3 13/3/3
f 17/4/3 15/4/3 14/4/3
f 17/3/3 14/3/3 16/3/3
f 18/4/3 15/4/3 17/4/3
f 19/3/4 20/3/4 22/3/4
f 20/4/4 21/4/4 23/4/4
f 22/3/4 20/3/4 23/3/4
f 23/4/4 21/4/4 24/4/4
f 27/3/5 26/3/5 25/3/5
f 28/3/5 26/3/5 27/3/5
f 29/4/6 30/4/6 31/4/6
f 31/4/6 30/4/6 32/4/6
