# MagicaVoxel @ Ephtracy

# group
g WallStraight2

# material
mtllib WallStraight2.mtl
usemtl palette

# normals
vn -1 0 0
vn 1 0 0
vn 0 0 1
vn 0 0 -1
vn 0 -1 0
vn 0 1 0

# texcoords
vt 0.853516 0.5
vt 0.978516 0.5
vt 0.982422 0.5
vt 0.986328 0.5
vt 0.990234 0.5

# verts
v -8 0 5
v -8 0 4
v -8 0 -4
v -8 0 -5
v -8 1 5
v -8 1 4
v -8 1 -4
v -8 1 -5
v -8 8 4
v -8 8 3
v -8 8 -3
v -8 8 -4
v -8 9 4
v -8 9 3
v -8 9 -3
v -8 9 -4
v -8 10 4
v -8 10 3
v -8 10 -3
v -8 10 -4
v -6 9 4
v -6 9 3
v -6 9 -3
v -6 9 -4
v -6 10 4
v -6 10 3
v -6 10 -3
v -6 10 -4
v -4 3 4
v -4 3 3
v -4 3 -3
v -4 3 -4
v -4 6 4
v -4 6 3
v -4 6 -3
v -4 6 -4
v -4 9 4
v -4 9 3
v -4 9 -3
v -4 9 -4
v -4 10 4
v -4 10 3
v -4 10 -3
v -4 10 -4
v -2 9 4
v -2 9 3
v -2 9 -3
v -2 9 -4
v -2 10 4
v -2 10 3
v -2 10 -3
v -2 10 -4
v 0 9 4
v 0 9 3
v 0 9 -3
v 0 9 -4
v 0 10 4
v 0 10 3
v 0 10 -3
v 0 10 -4
v 1 3 4
v 1 3 3
v 1 3 -3
v 1 3 -4
v 1 6 4
v 1 6 3
v 1 6 -3
v 1 6 -4
v 2 9 4
v 2 9 3
v 2 9 -3
v 2 9 -4
v 2 10 4
v 2 10 3
v 2 10 -3
v 2 10 -4
v 4 9 4
v 4 9 3
v 4 9 -3
v 4 9 -4
v 4 10 4
v 4 10 3
v 4 10 -3
v 4 10 -4
v 6 3 4
v 6 3 3
v 6 3 -3
v 6 3 -4
v 6 6 4
v 6 6 3
v 6 6 -3
v 6 6 -4
v 6 9 4
v 6 9 3
v 6 9 -3
v 6 9 -4
v 6 10 4
v 6 10 3
v 6 10 -3
v 6 10 -4
v -7 9 4
v -7 9 3
v -7 9 -3
v -7 9 -4
v -7 10 4
v -7 10 3
v -7 10 -3
v -7 10 -4
v -6 3 4
v -6 3 3
v -6 3 -3
v -6 3 -4
v -6 6 4
v -6 6 3
v -6 6 -3
v -6 6 -4
v -5 9 4
v -5 9 3
v -5 9 -3
v -5 9 -4
v -5 10 4
v -5 10 3
v -5 10 -3
v -5 10 -4
v -3 9 4
v -3 9 3
v -3 9 -3
v -3 9 -4
v -3 10 4
v -3 10 3
v -3 10 -3
v -3 10 -4
v -1 3 4
v -1 3 3
v -1 3 -3
v -1 3 -4
v -1 6 4
v -1 6 3
v -1 6 -3
v -1 6 -4
v -1 9 4
v -1 9 3
v -1 9 -3
v -1 9 -4
v -1 10 4
v -1 10 3
v -1 10 -3
v -1 10 -4
v 1 9 4
v 1 9 3
v 1 9 -3
v 1 9 -4
v 1 10 4
v 1 10 3
v 1 10 -3
v 1 10 -4
v 3 9 4
v 3 9 3
v 3 9 -3
v 3 9 -4
v 3 10 4
v 3 10 3
v 3 10 -3
v 3 10 -4
v 4 3 4
v 4 3 3
v 4 3 -3
v 4 3 -4
v 4 6 4
v 4 6 3
v 4 6 -3
v 4 6 -4
v 5 9 4
v 5 9 3
v 5 9 -3
v 5 9 -4
v 5 10 4
v 5 10 3
v 5 10 -3
v 5 10 -4
v 7 9 4
v 7 9 3
v 7 9 -3
v 7 9 -4
v 7 10 4
v 7 10 3
v 7 10 -3
v 7 10 -4
v 8 0 5
v 8 0 4
v 8 0 -4
v 8 0 -5
v 8 1 5
v 8 1 4
v 8 1 -4
v 8 1 -5
v 8 8 4
v 8 8 3
v 8 8 -3
v 8 8 -4
v 8 9 4
v 8 9 3
v 8 9 -3
v 8 9 -4
v -8 0 5
v -8 1 5
v 8 0 5
v 8 1 5
v -8 1 4
v -8 8 4
v -8 9 4
v -8 10 4
v -7 3 4
v -7 6 4
v -7 9 4
v -7 10 4
v -6 2 4
v -6 3 4
v -6 6 4
v -6 7 4
v -6 9 4
v -6 10 4
v -5 9 4
v -5 10 4
v -4 2 4
v -4 3 4
v -4 6 4
v -4 7 4
v -4 9 4
v -4 10 4
v -3 3 4
v -3 6 4
v -3 9 4
v -3 10 4
v -2 3 4
v -2 6 4
v -2 9 4
v -2 10 4
v -1 2 4
v -1 3 4
v -1 6 4
v -1 7 4
v -1 9 4
v -1 10 4
v 0 9 4
v 0 10 4
v 1 2 4
v 1 3 4
v 1 6 4
v 1 7 4
v 1 9 4
v 1 10 4
v 2 3 4
v 2 6 4
v 2 9 4
v 2 10 4
v 3 3 4
v 3 6 4
v 3 9 4
v 3 10 4
v 4 2 4
v 4 3 4
v 4 6 4
v 4 7 4
v 4 9 4
v 4 10 4
v 5 9 4
v 5 10 4
v 6 2 4
v 6 3 4
v 6 6 4
v 6 7 4
v 6 9 4
v 6 10 4
v 7 3 4
v 7 6 4
v 7 9 4
v 7 10 4
v 8 1 4
v 8 8 4
v 8 9 4
v -6 3 3
v -6 6 3
v -4 3 3
v -4 6 3
v -1 3 3
v -1 6 3
v 1 3 3
v 1 6 3
v 4 3 3
v 4 6 3
v 6 3 3
v 6 6 3
v -8 8 -3
v -8 9 -3
v -8 10 -3
v -7 9 -3
v -7 10 -3
v -6 9 -3
v -6 10 -3
v -5 9 -3
v -5 10 -3
v -4 9 -3
v -4 10 -3
v -3 9 -3
v -3 10 -3
v -2 9 -3
v -2 10 -3
v -1 9 -3
v -1 10 -3
v 0 9 -3
v 0 10 -3
v 1 9 -3
v 1 10 -3
v 2 9 -3
v 2 10 -3
v 3 9 -3
v 3 10 -3
v 4 9 -3
v 4 10 -3
v 5 9 -3
v 5 10 -3
v 6 9 -3
v 6 10 -3
v 7 9 -3
v 7 10 -3
v 8 8 -3
v 8 9 -3
v -8 8 3
v -8 9 3
v -8 10 3
v -7 9 3
v -7 10 3
v -6 9 3
v -6 10 3
v -5 9 3
v -5 10 3
v -4 9 3
v -4 10 3
v -3 9 3
v -3 10 3
v -2 9 3
v -2 10 3
v -1 9 3
v -1 10 3
v 0 9 3
v 0 10 3
v 1 9 3
v 1 10 3
v 2 9 3
v 2 10 3
v 3 9 3
v 3 10 3
v 4 9 3
v 4 10 3
v 5 9 3
v 5 10 3
v 6 9 3
v 6 10 3
v 7 9 3
v 7 10 3
v 8 8 3
v 8 9 3
v -6 3 -3
v -6 6 -3
v -4 3 -3
v -4 6 -3
v -1 3 -3
v -1 6 -3
v 1 3 -3
v 1 6 -3
v 4 3 -3
v 4 6 -3
v 6 3 -3
v 6 6 -3
v -8 1 -4
v -8 8 -4
v -8 9 -4
v -8 10 -4
v -7 3 -4
v -7 6 -4
v -7 9 -4
v -7 10 -4
v -6 2 -4
v -6 3 -4
v -6 6 -4
v -6 7 -4
v -6 9 -4
v -6 10 -4
v -5 9 -4
v -5 10 -4
v -4 2 -4
v -4 3 -4
v -4 6 -4
v -4 7 -4
v -4 9 -4
v -4 10 -4
v -3 3 -4
v -3 6 -4
v -3 9 -4
v -3 10 -4
v -2 3 -4
v -2 6 -4
v -2 9 -4
v -2 10 -4
v -1 2 -4
v -1 3 -4
v -1 6 -4
v -1 7 -4
v -1 9 -4
v -1 10 -4
v 0 9 -4
v 0 10 -4
v 1 2 -4
v 1 3 -4
v 1 6 -4
v 1 7 -4
v 1 9 -4
v 1 10 -4
v 2 3 -4
v 2 6 -4
v 2 9 -4
v 2 10 -4
v 3 3 -4
v 3 6 -4
v 3 9 -4
v 3 10 -4
v 4 2 -4
v 4 3 -4
v 4 6 -4
v 4 7 -4
v 4 9 -4
v 4 10 -4
v 5 9 -4
v 5 10 -4
v 6 2 -4
v 6 3 -4
v 6 6 -4
v 6 7 -4
v 6 9 -4
v 6 10 -4
v 7 3 -4
v 7 6 -4
v 7 9 -4
v 7 10 -4
v 8 1 -4
v 8 8 -4
v 8 9 -4
v -8 0 -5
v -8 1 -5
v 8 0 -5
v 8 1 -5
v -8 0 5
v 8 0 5
v -8 0 4
v 8 0 4
v -8 0 -4
v 8 0 -4
v -8 0 -5
v 8 0 -5
v -6 6 4
v -4 6 4
v -1 6 4
v 1 6 4
v 4 6 4
v 6 6 4
v -6 6 3
v -4 6 3
v -1 6 3
v 1 6 3
v 4 6 3
v 6 6 3
v -6 6 -3
v -4 6 -3
v -1 6 -3
v 1 6 -3
v 4 6 -3
v 6 6 -3
v -6 6 -4
v -4 6 -4
v -1 6 -4
v 1 6 -4
v 4 6 -4
v 6 6 -4
v -8 1 5
v 8 1 5
v -8 1 4
v 8 1 4
v -8 1 -4
v 8 1 -4
v -8 1 -5
v 8 1 -5
v -6 3 4
v -4 3 4
v -1 3 4
v 1 3 4
v 4 3 4
v 6 3 4
v -6 3 3
v -4 3 3
v -1 3 3
v 1 3 3
v 4 3 3
v 6 3 3
v -6 3 -3
v -4 3 -3
v -1 3 -3
v 1 3 -3
v 4 3 -3
v 6 3 -3
v -6 3 -4
v -4 3 -4
v -1 3 -4
v 1 3 -4
v 4 3 -4
v 6 3 -4
v -8 8 3
v 8 8 3
v -8 8 -3
v 8 8 -3
v -7 9 4
v -6 9 4
v -5 9 4
v -4 9 4
v -3 9 4
v -2 9 4
v -1 9 4
v 0 9 4
v 1 9 4
v 2 9 4
v 3 9 4
v 4 9 4
v 5 9 4
v 6 9 4
v 7 9 4
v 8 9 4
v -7 9 3
v -6 9 3
v -5 9 3
v -4 9 3
v -3 9 3
v -2 9 3
v -1 9 3
v 0 9 3
v 1 9 3
v 2 9 3
v 3 9 3
v 4 9 3
v 5 9 3
v 6 9 3
v 7 9 3
v 8 9 3
v -7 9 -3
v -6 9 -3
v -5 9 -3
v -4 9 -3
v -3 9 -3
v -2 9 -3
v -1 9 -3
v 0 9 -3
v 1 9 -3
v 2 9 -3
v 3 9 -3
v 4 9 -3
v 5 9 -3
v 6 9 -3
v 7 9 -3
v 8 9 -3
v -7 9 -4
v -6 9 -4
v -5 9 -4
v -4 9 -4
v -3 9 -4
v -2 9 -4
v -1 9 -4
v 0 9 -4
v 1 9 -4
v 2 9 -4
v 3 9 -4
v 4 9 -4
v 5 9 -4
v 6 9 -4
v 7 9 -4
v 8 9 -4
v -8 10 4
v -7 10 4
v -6 10 4
v -5 10 4
v -4 10 4
v -3 10 4
v -2 10 4
v -1 10 4
v 0 10 4
v 1 10 4
v 2 10 4
v 3 10 4
v 4 10 4
v 5 10 4
v 6 10 4
v 7 10 4
v -8 10 3
v -7 10 3
v -6 10 3
v -5 10 3
v -4 10 3
v -3 10 3
v -2 10 3
v -1 10 3
v 0 10 3
v 1 10 3
v 2 10 3
v 3 10 3
v 4 10 3
v 5 10 3
v 6 10 3
v 7 10 3
v -8 10 -3
v -7 10 -3
v -6 10 -3
v -5 10 -3
v -4 10 -3
v -3 10 -3
v -2 10 -3
v -1 10 -3
v 0 10 -3
v 1 10 -3
v 2 10 -3
v 3 10 -3
v 4 10 -3
v 5 10 -3
v 6 10 -3
v 7 10 -3
v -8 10 -4
v -7 10 -4
v -6 10 -4
v -5 10 -4
v -4 10 -4
v -3 10 -4
v -2 10 -4
v -1 10 -4
v 0 10 -4
v 1 10 -4
v 2 10 -4
v 3 10 -4
v 4 10 -4
v 5 10 -4
v 6 10 -4
v 7 10 -4

# faces
f 5/5/1 2/5/1 1/5/1
f 6/4/1 3/4/1 2/4/1
f 6/5/1 2/5/1 5/5/1
f 7/5/1 4/5/1 3/5/1
f 7/4/1 3/4/1 6/4/1
f 8/5/1 4/5/1 7/5/1
f 9/4/1 7/4/1 6/4/1
f 10/4/1 7/4/1 9/4/1
f 11/4/1 7/4/1 10/4/1
f 12/4/1 7/4/1 11/4/1
f 13/1/1 10/1/1 9/1/1
f 14/1/1 10/1/1 13/1/1
f 15/1/1 12/1/1 11/1/1
f 16/1/1 12/1/1 15/1/1
f 17/2/1 14/2/1 13/2/1
f 18/2/1 14/2/1 17/2/1
f 19/2/1 16/2/1 15/2/1
f 20/2/1 16/2/1 19/2/1
f 25/2/1 22/2/1 21/2/1
f 26/2/1 22/2/1 25/2/1
f 27/2/1 24/2/1 23/2/1
f 28/2/1 24/2/1 27/2/1
f 33/3/1 30/3/1 29/3/1
f 34/3/1 30/3/1 33/3/1
f 35/3/1 32/3/1 31/3/1
f 36/3/1 32/3/1 35/3/1
f 41/2/1 38/2/1 37/2/1
f 42/2/1 38/2/1 41/2/1
f 43/2/1 40/2/1 39/2/1
f 44/2/1 40/2/1 43/2/1
f 49/2/1 46/2/1 45/2/1
f 50/2/1 46/2/1 49/2/1
f 51/2/1 48/2/1 47/2/1
f 52/2/1 48/2/1 51/2/1
f 57/2/1 54/2/1 53/2/1
f 58/2/1 54/2/1 57/2/1
f 59/2/1 56/2/1 55/2/1
f 60/2/1 56/2/1 59/2/1
f 65/3/1 62/3/1 61/3/1
f 66/3/1 62/3/1 65/3/1
f 67/3/1 64/3/1 63/3/1
f 68/3/1 64/3/1 67/3/1
f 73/2/1 70/2/1 69/2/1
f 74/2/1 70/2/1 73/2/1
f 75/2/1 72/2/1 71/2/1
f 76/2/1 72/2/1 75/2/1
f 81/2/1 78/2/1 77/2/1
f 82/2/1 78/2/1 81/2/1
f 83/2/1 80/2/1 79/2/1
f 84/2/1 80/2/1 83/2/1
f 89/3/1 86/3/1 85/3/1
f 90/3/1 86/3/1 89/3/1
f 91/3/1 88/3/1 87/3/1
f 92/3/1 88/3/1 91/3/1
f 97/2/1 94/2/1 93/2/1
f 98/2/1 94/2/1 97/2/1
f 99/2/1 96/2/1 95/2/1
f 100/2/1 96/2/1 99/2/1
f 101/2/2 102/2/2 105/2/2
f 105/2/2 102/2/2 106/2/2
f 103/2/2 104/2/2 107/2/2
f 107/2/2 104/2/2 108/2/2
f 109/3/2 110/3/2 113/3/2
f 113/3/2 110/3/2 114/3/2
f 111/3/2 112/3/2 115/3/2
f 115/3/2 112/3/2 116/3/2
f 117/2/2 118/2/2 121/2/2
f 121/2/2 118/2/2 122/2/2
f 119/2/2 120/2/2 123/2/2
f 123/2/2 120/2/2 124/2/2
f 125/2/2 126/2/2 129/2/2
f 129/2/2 126/2/2 130/2/2
f 127/2/2 128/2/2 131/2/2
f 131/2/2 128/2/2 132/2/2
f 133/3/2 134/3/2 137/3/2
f 137/3/2 134/3/2 138/3/2
f 135/3/2 136/3/2 139/3/2
f 139/3/2 136/3/2 140/3/2
f 141/2/2 142/2/2 145/2/2
f 145/2/2 142/2/2 146/2/2
f 143/2/2 144/2/2 147/2/2
f 147/2/2 144/2/2 148/2/2
f 149/2/2 150/2/2 153/2/2
f 153/2/2 150/2/2 154/2/2
f 151/2/2 152/2/2 155/2/2
f 155/2/2 152/2/2 156/2/2
f 157/2/2 158/2/2 161/2/2
f 161/2/2 158/2/2 162/2/2
f 159/2/2 160/2/2 163/2/2
f 163/2/2 160/2/2 164/2/2
f 165/3/2 166/3/2 169/3/2
f 169/3/2 166/3/2 170/3/2
f 167/3/2 168/3/2 171/3/2
f 171/3/2 168/3/2 172/3/2
f 173/2/2 174/2/2 177/2/2
f 177/2/2 174/2/2 178/2/2
f 175/2/2 176/2/2 179/2/2
f 179/2/2 176/2/2 180/2/2
f 181/2/2 182/2/2 185/2/2
f 185/2/2 182/2/2 186/2/2
f 183/2/2 184/2/2 187/2/2
f 187/2/2 184/2/2 188/2/2
f 189/5/2 190/5/2 193/5/2
f 190/4/2 191/4/2 194/4/2
f 193/5/2 190/5/2 194/5/2
f 191/5/2 192/5/2 195/5/2
f 194/4/2 191/4/2 195/4/2
f 195/5/2 192/5/2 196/5/2
f 194/4/2 195/4/2 197/4/2
f 197/4/2 195/4/2 198/4/2
f 198/4/2 195/4/2 199/4/2
f 199/4/2 195/4/2 200/4/2
f 197/1/2 198/1/2 201/1/2
f 201/1/2 198/1/2 202/1/2
f 199/1/2 200/1/2 203/1/2
f 203/1/2 200/1/2 204/1/2
f 207/5/3 206/5/3 205/5/3
f 208/5/3 206/5/3 207/5/3
f 213/4/3 210/4/3 209/4/3
f 214/4/3 210/4/3 213/4/3
f 215/2/3 212/2/3 211/2/3
f 215/1/3 211/1/3 210/1/3
f 216/2/3 212/2/3 215/2/3
f 217/4/3 213/4/3 209/4/3
f 218/3/3 214/3/3 213/3/3
f 218/4/3 213/4/3 217/4/3
f 219/4/3 210/4/3 214/4/3
f 219/3/3 214/3/3 218/3/3
f 220/4/3 210/4/3 219/4/3
f 221/1/3 215/1/3 210/1/3
f 223/2/3 222/2/3 221/2/3
f 223/1/3 221/1/3 210/1/3
f 224/2/3 222/2/3 223/2/3
f 225/3/3 218/3/3 217/3/3
f 225/4/3 217/4/3 209/4/3
f 226/3/3 218/3/3 225/3/3
f 227/3/3 220/3/3 219/3/3
f 228/4/3 210/4/3 220/4/3
f 228/3/3 220/3/3 227/3/3
f 229/1/3 223/1/3 210/1/3
f 231/3/3 227/3/3 226/3/3
f 231/4/3 226/4/3 225/4/3
f 232/4/3 228/4/3 227/4/3
f 232/3/3 227/3/3 231/3/3
f 233/2/3 230/2/3 229/2/3
f 233/1/3 229/1/3 210/1/3
f 234/2/3 230/2/3 233/2/3
f 235/4/3 232/4/3 231/4/3
f 235/4/3 231/4/3 225/4/3
f 236/4/3 228/4/3 232/4/3
f 236/4/3 232/4/3 235/4/3
f 237/1/3 233/1/3 210/1/3
f 239/4/3 235/4/3 225/4/3
f 239/4/3 225/4/3 209/4/3
f 240/3/3 236/3/3 235/3/3
f 240/4/3 235/4/3 239/4/3
f 241/4/3 228/4/3 236/4/3
f 241/3/3 236/3/3 240/3/3
f 242/4/3 210/4/3 228/4/3
f 242/4/3 228/4/3 241/4/3
f 243/2/3 238/2/3 237/2/3
f 243/1/3 237/1/3 210/1/3
f 244/2/3 238/2/3 243/2/3
f 245/1/3 243/1/3 210/1/3
f 247/3/3 240/3/3 239/3/3
f 247/4/3 239/4/3 209/4/3
f 248/3/3 240/3/3 247/3/3
f 249/3/3 242/3/3 241/3/3
f 250/4/3 210/4/3 242/4/3
f 250/3/3 242/3/3 249/3/3
f 251/2/3 246/2/3 245/2/3
f 251/1/3 245/1/3 210/1/3
f 252/2/3 246/2/3 251/2/3
f 253/3/3 249/3/3 248/3/3
f 253/4/3 248/4/3 247/4/3
f 254/4/3 250/4/3 249/4/3
f 254/3/3 249/3/3 253/3/3
f 255/1/3 251/1/3 210/1/3
f 257/4/3 253/4/3 247/4/3
f 257/4/3 254/4/3 253/4/3
f 258/4/3 250/4/3 254/4/3
f 258/4/3 254/4/3 257/4/3
f 259/2/3 256/2/3 255/2/3
f 259/1/3 255/1/3 210/1/3
f 260/2/3 256/2/3 259/2/3
f 261/4/3 257/4/3 247/4/3
f 261/4/3 247/4/3 209/4/3
f 262/3/3 258/3/3 257/3/3
f 262/4/3 257/4/3 261/4/3
f 263/4/3 250/4/3 258/4/3
f 263/3/3 258/3/3 262/3/3
f 264/4/3 210/4/3 250/4/3
f 264/4/3 250/4/3 263/4/3
f 265/1/3 259/1/3 210/1/3
f 267/2/3 266/2/3 265/2/3
f 267/1/3 265/1/3 210/1/3
f 268/2/3 266/2/3 267/2/3
f 269/3/3 262/3/3 261/3/3
f 269/4/3 261/4/3 209/4/3
f 270/3/3 262/3/3 269/3/3
f 271/3/3 264/3/3 263/3/3
f 272/4/3 210/4/3 264/4/3
f 272/3/3 264/3/3 271/3/3
f 273/1/3 267/1/3 210/1/3
f 275/4/3 270/4/3 269/4/3
f 275/3/3 271/3/3 270/3/3
f 276/4/3 272/4/3 271/4/3
f 276/3/3 271/3/3 275/3/3
f 277/2/3 274/2/3 273/2/3
f 277/1/3 273/1/3 210/1/3
f 278/2/3 274/2/3 277/2/3
f 279/4/3 276/4/3 275/4/3
f 279/4/3 269/4/3 209/4/3
f 279/4/3 275/4/3 269/4/3
f 280/4/3 272/4/3 276/4/3
f 280/4/3 276/4/3 279/4/3
f 280/4/3 210/4/3 272/4/3
f 280/1/3 277/1/3 210/1/3
f 281/1/3 277/1/3 280/1/3
f 284/4/3 283/4/3 282/4/3
f 285/4/3 283/4/3 284/4/3
f 288/4/3 287/4/3 286/4/3
f 289/4/3 287/4/3 288/4/3
f 292/4/3 291/4/3 290/4/3
f 293/4/3 291/4/3 292/4/3
f 297/1/3 295/1/3 294/1/3
f 297/2/3 296/2/3 295/2/3
f 298/2/3 296/2/3 297/2/3
f 299/1/3 297/1/3 294/1/3
f 301/1/3 299/1/3 294/1/3
f 301/2/3 300/2/3 299/2/3
f 302/2/3 300/2/3 301/2/3
f 303/1/3 301/1/3 294/1/3
f 305/1/3 303/1/3 294/1/3
f 305/2/3 304/2/3 303/2/3
f 306/2/3 304/2/3 305/2/3
f 307/1/3 305/1/3 294/1/3
f 309/1/3 307/1/3 294/1/3
f 309/2/3 308/2/3 307/2/3
f 310/2/3 308/2/3 309/2/3
f 311/1/3 309/1/3 294/1/3
f 313/1/3 311/1/3 294/1/3
f 313/2/3 312/2/3 311/2/3
f 314/2/3 312/2/3 313/2/3
f 315/1/3 313/1/3 294/1/3
f 317/1/3 315/1/3 294/1/3
f 317/2/3 316/2/3 315/2/3
f 318/2/3 316/2/3 317/2/3
f 319/1/3 317/1/3 294/1/3
f 321/1/3 319/1/3 294/1/3
f 321/2/3 320/2/3 319/2/3
f 322/2/3 320/2/3 321/2/3
f 323/1/3 321/1/3 294/1/3
f 325/1/3 323/1/3 294/1/3
f 325/2/3 324/2/3 323/2/3
f 326/2/3 324/2/3 325/2/3
f 327/1/3 325/1/3 294/1/3
f 328/1/3 325/1/3 327/1/3
f 329/1/4 330/1/4 332/1/4
f 330/2/4 331/2/4 332/2/4
f 332/2/4 331/2/4 333/2/4
f 329/1/4 332/1/4 334/1/4
f 329/1/4 334/1/4 336/1/4
f 334/2/4 335/2/4 336/2/4
f 336/2/4 335/2/4 337/2/4
f 329/1/4 336/1/4 338/1/4
f 329/1/4 338/1/4 340/1/4
f 338/2/4 339/2/4 340/2/4
f 340/2/4 339/2/4 341/2/4
f 329/1/4 340/1/4 342/1/4
f 329/1/4 342/1/4 344/1/4
f 342/2/4 343/2/4 344/2/4
f 344/2/4 343/2/4 345/2/4
f 329/1/4 344/1/4 346/1/4
f 329/1/4 346/1/4 348/1/4
f 346/2/4 347/2/4 348/2/4
f 348/2/4 347/2/4 349/2/4
f 329/1/4 348/1/4 350/1/4
f 329/1/4 350/1/4 352/1/4
f 350/2/4 351/2/4 352/2/4
f 352/2/4 351/2/4 353/2/4
f 329/1/4 352/1/4 354/1/4
f 329/1/4 354/1/4 356/1/4
f 354/2/4 355/2/4 356/2/4
f 356/2/4 355/2/4 357/2/4
f 329/1/4 356/1/4 358/1/4
f 329/1/4 358/1/4 360/1/4
f 358/2/4 359/2/4 360/2/4
f 360/2/4 359/2/4 361/2/4
f 329/1/4 360/1/4 362/1/4
f 362/1/4 360/1/4 363/1/4
f 364/4/4 365/4/4 366/4/4
f 366/4/4 365/4/4 367/4/4
f 368/4/4 369/4/4 370/4/4
f 370/4/4 369/4/4 371/4/4
f 372/4/4 373/4/4 374/4/4
f 374/4/4 373/4/4 375/4/4
f 376/4/4 377/4/4 380/4/4
f 380/4/4 377/4/4 381/4/4
f 378/2/4 379/2/4 382/2/4
f 377/1/4 378/1/4 382/1/4
f 382/2/4 379/2/4 383/2/4
f 376/4/4 380/4/4 384/4/4
f 380/3/4 381/3/4 385/3/4
f 384/4/4 380/4/4 385/4/4
f 381/4/4 377/4/4 386/4/4
f 385/3/4 381/3/4 386/3/4
f 386/4/4 377/4/4 387/4/4
f 377/1/4 382/1/4 388/1/4
f 388/2/4 389/2/4 390/2/4
f 377/1/4 388/1/4 390/1/4
f 390/2/4 389/2/4 391/2/4
f 384/3/4 385/3/4 392/3/4
f 376/4/4 384/4/4 392/4/4
f 392/3/4 385/3/4 393/3/4
f 386/3/4 387/3/4 394/3/4
f 387/4/4 377/4/4 395/4/4
f 394/3/4 387/3/4 395/3/4
f 377/1/4 390/1/4 396/1/4
f 393/3/4 394/3/4 398/3/4
f 392/4/4 393/4/4 398/4/4
f 394/4/4 395/4/4 399/4/4
f 398/3/4 394/3/4 399/3/4
f 396/2/4 397/2/4 400/2/4
f 377/1/4 396/1/4 400/1/4
f 400/2/4 397/2/4 401/2/4
f 398/4/4 399/4/4 402/4/4
f 392/4/4 398/4/4 402/4/4
f 399/4/4 395/4/4 403/4/4
f 402/4/4 399/4/4 403/4/4
f 377/1/4 400/1/4 404/1/4
f 392/4/4 402/4/4 406/4/4
f 376/4/4 392/4/4 406/4/4
f 402/3/4 403/3/4 407/3/4
f 406/4/4 402/4/4 407/4/4
f 403/4/4 395/4/4 408/4/4
f 407/3/4 403/3/4 408/3/4
f 395/4/4 377/4/4 409/4/4
f 408/4/4 395/4/4 409/4/4
f 404/2/4 405/2/4 410/2/4
f 377/1/4 404/1/4 410/1/4
f 410/2/4 405/2/4 411/2/4
f 377/1/4 410/1/4 412/1/4
f 406/3/4 407/3/4 414/3/4
f 376/4/4 406/4/4 414/4/4
f 414/3/4 407/3/4 415/3/4
f 408/3/4 409/3/4 416/3/4
f 409/4/4 377/4/4 417/4/4
f 416/3/4 409/3/4 417/3/4
f 412/2/4 413/2/4 418/2/4
f 377/1/4 412/1/4 418/1/4
f 418/2/4 413/2/4 419/2/4
f 415/3/4 416/3/4 420/3/4
f 414/4/4 415/4/4 420/4/4
f 416/4/4 417/4/4 421/4/4
f 420/3/4 416/3/4 421/3/4
f 377/1/4 418/1/4 422/1/4
f 414/4/4 420/4/4 424/4/4
f 420/4/4 421/4/4 424/4/4
f 421/4/4 417/4/4 425/4/4
f 424/4/4 421/4/4 425/4/4
f 422/2/4 423/2/4 426/2/4
f 377/1/4 422/1/4 426/1/4
f 426/2/4 423/2/4 427/2/4
f 414/4/4 424/4/4 428/4/4
f 376/4/4 414/4/4 428/4/4
f 424/3/4 425/3/4 429/3/4
f 428/4/4 424/4/4 429/4/4
f 425/4/4 417/4/4 430/4/4
f 429/3/4 425/3/4 430/3/4
f 417/4/4 377/4/4 431/4/4
f 430/4/4 417/4/4 431/4/4
f 377/1/4 426/1/4 432/1/4
f 432/2/4 433/2/4 434/2/4
f 377/1/4 432/1/4 434/1/4
f 434/2/4 433/2/4 435/2/4
f 428/3/4 429/3/4 436/3/4
f 376/4/4 428/4/4 436/4/4
f 436/3/4 429/3/4 437/3/4
f 430/3/4 431/3/4 438/3/4
f 431/4/4 377/4/4 439/4/4
f 438/3/4 431/3/4 439/3/4
f 377/1/4 434/1/4 440/1/4
f 436/4/4 437/4/4 442/4/4
f 437/3/4 438/3/4 442/3/4
f 438/4/4 439/4/4 443/4/4
f 442/3/4 438/3/4 443/3/4
f 440/2/4 441/2/4 444/2/4
f 377/1/4 440/1/4 444/1/4
f 444/2/4 441/2/4 445/2/4
f 442/4/4 443/4/4 446/4/4
f 376/4/4 436/4/4 446/4/4
f 436/4/4 442/4/4 446/4/4
f 443/4/4 439/4/4 447/4/4
f 446/4/4 443/4/4 447/4/4
f 439/4/4 377/4/4 447/4/4
f 377/1/4 444/1/4 447/1/4
f 447/1/4 444/1/4 448/1/4
f 449/5/4 450/5/4 451/5/4
f 451/5/4 450/5/4 452/5/4
f 455/5/5 454/5/5 453/5/5
f 456/5/5 454/5/5 455/5/5
f 457/4/5 456/4/5 455/4/5
f 458/4/5 456/4/5 457/4/5
f 459/5/5 458/5/5 457/5/5
f 460/5/5 458/5/5 459/5/5
f 467/3/5 462/3/5 461/3/5
f 468/3/5 462/3/5 467/3/5
f 469/3/5 464/3/5 463/3/5
f 470/3/5 464/3/5 469/3/5
f 471/3/5 466/3/5 465/3/5
f 472/3/5 466/3/5 471/3/5
f 479/3/5 474/3/5 473/3/5
f 480/3/5 474/3/5 479/3/5
f 481/3/5 476/3/5 475/3/5
f 482/3/5 476/3/5 481/3/5
f 483/3/5 478/3/5 477/3/5
f 484/3/5 478/3/5 483/3/5
f 485/5/6 486/5/6 487/5/6
f 487/5/6 486/5/6 488/5/6
f 489/5/6 490/5/6 491/5/6
f 491/5/6 490/5/6 492/5/6
f 493/3/6 494/3/6 499/3/6
f 499/3/6 494/3/6 500/3/6
f 495/3/6 496/3/6 501/3/6
f 501/3/6 496/3/6 502/3/6
f 497/3/6 498/3/6 503/3/6
f 503/3/6 498/3/6 504/3/6
f 505/3/6 506/3/6 511/3/6
f 511/3/6 506/3/6 512/3/6
f 507/3/6 508/3/6 513/3/6
f 513/3/6 508/3/6 514/3/6
f 509/3/6 510/3/6 515/3/6
f 515/3/6 510/3/6 516/3/6
f 517/4/6 518/4/6 519/4/6
f 519/4/6 518/4/6 520/4/6
f 521/1/6 522/1/6 537/1/6
f 537/1/6 522/1/6 538/1/6
f 523/1/6 524/1/6 539/1/6
f 539/1/6 524/1/6 540/1/6
f 525/1/6 526/1/6 541/1/6
f 541/1/6 526/1/6 542/1/6
f 527/1/6 528/1/6 543/1/6
f 543/1/6 528/1/6 544/1/6
f 529/1/6 530/1/6 545/1/6
f 545/1/6 530/1/6 546/1/6
f 531/1/6 532/1/6 547/1/6
f 547/1/6 532/1/6 548/1/6
f 533/1/6 534/1/6 549/1/6
f 549/1/6 534/1/6 550/1/6
f 535/1/6 536/1/6 551/1/6
f 551/1/6 536/1/6 552/1/6
f 553/1/6 554/1/6 569/1/6
f 569/1/6 554/1/6 570/1/6
f 555/1/6 556/1/6 571/1/6
f 571/1/6 556/1/6 572/1/6
f 557/1/6 558/1/6 573/1/6
f 573/1/6 558/1/6 574/1/6
f 559/1/6 560/1/6 575/1/6
f 575/1/6 560/1/6 576/1/6
f 561/1/6 562/1/6 577/1/6
f 577/1/6 562/1/6 578/1/6
f 563/1/6 564/1/6 579/1/6
f 579/1/6 564/1/6 580/1/6
f 565/1/6 566/1/6 581/1/6
f 581/1/6 566/1/6 582/1/6
f 567/1/6 568/1/6 583/1/6
f 583/1/6 568/1/6 584/1/6
f 585/2/6 586/2/6 601/2/6
f 601/2/6 586/2/6 602/2/6
f 587/2/6 588/2/6 603/2/6
f 603/2/6 588/2/6 604/2/6
f 589/2/6 590/2/6 605/2/6
f 605/2/6 590/2/6 606/2/6
f 591/2/6 592/2/6 607/2/6
f 607/2/6 592/2/6 608/2/6
f 593/2/6 594/2/6 609/2/6
f 609/2/6 594/2/6 610/2/6
f 595/2/6 596/2/6 611/2/6
f 611/2/6 596/2/6 612/2/6
f 597/2/6 598/2/6 613/2/6
f 613/2/6 598/2/6 614/2/6
f 599/2/6 600/2/6 615/2/6
f 615/2/6 600/2/6 616/2/6
f 617/2/6 618/2/6 633/2/6
f 633/2/6 618/2/6 634/2/6
f 619/2/6 620/2/6 635/2/6
f 635/2/6 620/2/6 636/2/6
f 621/2/6 622/2/6 637/2/6
f 637/2/6 622/2/6 638/2/6
f 623/2/6 624/2/6 639/2/6
f 639/2/6 624/2/6 640/2/6
f 625/2/6 626/2/6 641/2/6
f 641/2/6 626/2/6 642/2/6
f 627/2/6 628/2/6 643/2/6
f 643/2/6 628/2/6 644/2/6
f 629/2/6 630/2/6 645/2/6
f 645/2/6 630/2/6 646/2/6
f 631/2/6 632/2/6 647/2/6
f 647/2/6 632/2/6 648/2/6
