# MagicaVoxel @ Ephtracy

# group
g WallCurved1

# material
mtllib WallCurved1.mtl
usemtl palette

# normals
vn -1 0 0
vn 1 0 0
vn 0 0 1
vn 0 0 -1
vn 0 -1 0
vn 0 1 0

# texcoords
vt 0.853516 0.5
vt 0.978516 0.5
vt 0.982422 0.5
vt 0.986328 0.5
vt 0.990234 0.5

# verts
v -5 0 5
v -5 0 -8
v -5 1 5
v -5 1 -8
v -4 1 4
v -4 1 -8
v -4 8 4
v -4 8 -8
v -4 9 4
v -4 9 2
v -4 9 1
v -4 9 -0
v -4 9 -1
v -4 9 -2
v -4 9 -3
v -4 9 -4
v -4 9 -5
v -4 9 -6
v -4 9 -7
v -4 9 -8
v -4 10 1
v -4 10 -0
v -4 10 -1
v -4 10 -2
v -4 10 -3
v -4 10 -4
v -4 10 -5
v -4 10 -6
v -4 10 -7
v -4 10 -8
v -4 11 3
v -4 11 2
v -4 12 4
v -4 12 3
v 0 9 4
v 0 9 3
v 0 10 4
v 0 10 3
v 1 3 -3
v 1 3 -4
v 1 6 -3
v 1 6 -4
v 2 9 4
v 2 9 3
v 2 10 4
v 2 10 3
v 3 8 -3
v 3 8 -8
v 3 9 -3
v 3 9 -5
v 3 9 -6
v 3 9 -7
v 3 9 -8
v 3 10 -4
v 3 10 -5
v 3 10 -6
v 3 10 -7
v 3 11 -3
v 3 11 -4
v 4 9 4
v 4 9 3
v 4 10 4
v 4 10 3
v 6 9 4
v 6 9 3
v 6 9 -3
v 6 9 -4
v 6 10 4
v 6 10 3
v 6 10 -3
v 6 10 -4
v -3 8 3
v -3 8 -8
v -3 9 3
v -3 9 2
v -3 9 1
v -3 9 -0
v -3 9 -1
v -3 9 -2
v -3 9 -3
v -3 9 -4
v -3 9 -5
v -3 9 -6
v -3 9 -7
v -3 9 -8
v -3 10 1
v -3 10 -0
v -3 10 -1
v -3 10 -2
v -3 10 -3
v -3 10 -4
v -3 10 -5
v -3 10 -6
v -3 10 -7
v -3 10 -8
v -3 11 4
v -3 11 3
v -3 11 2
v -3 12 4
v -3 12 3
v -2 10 4
v -2 10 3
v -2 11 4
v -2 11 3
v -1 3 -3
v -1 3 -4
v -1 6 -3
v -1 6 -4
v -1 9 4
v -1 9 3
v -1 10 4
v -1 10 3
v 1 9 4
v 1 9 3
v 1 10 4
v 1 10 3
v 3 9 4
v 3 9 3
v 3 10 4
v 3 10 3
v 4 1 -4
v 4 1 -8
v 4 8 -4
v 4 8 -8
v 4 9 -4
v 4 9 -5
v 4 9 -6
v 4 9 -7
v 4 9 -8
v 4 10 -3
v 4 10 -4
v 4 10 -5
v 4 10 -6
v 4 10 -7
v 4 11 -3
v 4 11 -4
v 5 0 -5
v 5 0 -8
v 5 1 -5
v 5 1 -8
v 5 9 4
v 5 9 3
v 5 9 -3
v 5 9 -4
v 5 10 4
v 5 10 3
v 5 10 -3
v 5 10 -4
v 7 9 4
v 7 9 3
v 7 9 -3
v 7 9 -4
v 7 10 4
v 7 10 3
v 7 10 -3
v 7 10 -4
v 8 0 5
v 8 0 4
v 8 0 -4
v 8 0 -5
v 8 1 5
v 8 1 4
v 8 1 -4
v 8 1 -5
v 8 8 4
v 8 8 3
v 8 8 -3
v 8 8 -4
v 8 9 4
v 8 9 3
v 8 9 -3
v 8 9 -4
v -5 0 5
v -5 1 5
v 8 0 5
v 8 1 5
v -4 1 4
v -4 8 4
v -4 9 4
v -4 12 4
v -3 11 4
v -3 12 4
v -2 10 4
v -2 11 4
v -1 9 4
v -1 10 4
v 0 9 4
v 0 10 4
v 1 9 4
v 1 10 4
v 2 9 4
v 2 10 4
v 3 9 4
v 3 10 4
v 4 9 4
v 4 10 4
v 5 9 4
v 5 10 4
v 6 9 4
v 6 10 4
v 7 9 4
v 7 10 4
v 8 1 4
v 8 8 4
v 8 9 4
v -4 9 1
v -4 10 1
v -3 9 1
v -3 10 1
v -4 9 -1
v -4 10 -1
v -3 9 -1
v -3 10 -1
v -4 9 -3
v -4 10 -3
v -3 9 -3
v -3 10 -3
v 3 8 -3
v 3 9 -3
v 3 11 -3
v 4 10 -3
v 4 11 -3
v 5 9 -3
v 5 10 -3
v 6 9 -3
v 6 10 -3
v 7 9 -3
v 7 10 -3
v 8 8 -3
v 8 9 -3
v -1 3 -4
v -1 6 -4
v 1 3 -4
v 1 6 -4
v -4 9 -5
v -4 10 -5
v -3 9 -5
v -3 10 -5
v 3 9 -6
v 3 10 -6
v 4 9 -6
v 4 10 -6
v -4 9 -7
v -4 10 -7
v -3 9 -7
v -3 10 -7
v -4 11 3
v -4 12 3
v -3 8 3
v -3 9 3
v -3 11 3
v -3 12 3
v -2 10 3
v -2 11 3
v -1 9 3
v -1 10 3
v 0 9 3
v 0 10 3
v 1 9 3
v 1 10 3
v 2 9 3
v 2 10 3
v 3 9 3
v 3 10 3
v 4 9 3
v 4 10 3
v 5 9 3
v 5 10 3
v 6 9 3
v 6 10 3
v 7 9 3
v 7 10 3
v 8 8 3
v 8 9 3
v -4 9 2
v -4 11 2
v -3 9 2
v -3 11 2
v -4 9 -0
v -4 10 -0
v -3 9 -0
v -3 10 -0
v -4 9 -2
v -4 10 -2
v -3 9 -2
v -3 10 -2
v -1 3 -3
v -1 6 -3
v 1 3 -3
v 1 6 -3
v -4 9 -4
v -4 10 -4
v -3 9 -4
v -3 10 -4
v 3 10 -4
v 3 11 -4
v 4 1 -4
v 4 8 -4
v 4 9 -4
v 4 10 -4
v 4 11 -4
v 5 9 -4
v 5 10 -4
v 6 9 -4
v 6 10 -4
v 7 9 -4
v 7 10 -4
v 8 1 -4
v 8 8 -4
v 8 9 -4
v 3 9 -5
v 3 10 -5
v 4 9 -5
v 4 10 -5
v 5 0 -5
v 5 1 -5
v 8 0 -5
v 8 1 -5
v -4 9 -6
v -4 10 -6
v -3 9 -6
v -3 10 -6
v 3 9 -7
v 3 10 -7
v 4 9 -7
v 4 10 -7
v -5 0 -8
v -5 1 -8
v -4 1 -8
v -4 8 -8
v -4 9 -8
v -4 10 -8
v -3 8 -8
v -3 9 -8
v -3 10 -8
v 3 8 -8
v 3 9 -8
v 4 1 -8
v 4 8 -8
v 4 9 -8
v 5 0 -8
v 5 1 -8
v -5 0 5
v 8 0 5
v -4 0 4
v 8 0 4
v -4 0 -4
v 8 0 -4
v 5 0 -5
v 8 0 -5
v -5 0 -8
v 5 0 -8
v -1 6 -3
v 1 6 -3
v -1 6 -4
v 1 6 -4
v -5 1 5
v 8 1 5
v -4 1 4
v 8 1 4
v 4 1 -4
v 8 1 -4
v 5 1 -5
v 8 1 -5
v -5 1 -8
v -4 1 -8
v 4 1 -8
v 5 1 -8
v -1 3 -3
v 1 3 -3
v -1 3 -4
v 1 3 -4
v -3 8 3
v 8 8 3
v 3 8 -3
v 8 8 -3
v -3 8 -8
v 3 8 -8
v -1 9 4
v 0 9 4
v 1 9 4
v 2 9 4
v 3 9 4
v 4 9 4
v 5 9 4
v 6 9 4
v 7 9 4
v 8 9 4
v -1 9 3
v 0 9 3
v 1 9 3
v 2 9 3
v 3 9 3
v 4 9 3
v 5 9 3
v 6 9 3
v 7 9 3
v 8 9 3
v -4 9 2
v -3 9 2
v -4 9 1
v -3 9 1
v -4 9 -0
v -3 9 -0
v -4 9 -1
v -3 9 -1
v -4 9 -2
v -3 9 -2
v -4 9 -3
v -3 9 -3
v 5 9 -3
v 6 9 -3
v 7 9 -3
v 8 9 -3
v -4 9 -4
v -3 9 -4
v 5 9 -4
v 6 9 -4
v 7 9 -4
v 8 9 -4
v -4 9 -5
v -3 9 -5
v 3 9 -5
v 4 9 -5
v -4 9 -6
v -3 9 -6
v 3 9 -6
v 4 9 -6
v -4 9 -7
v -3 9 -7
v 3 9 -7
v 4 9 -7
v 3 9 -8
v 4 9 -8
v -2 10 4
v -1 10 4
v 0 10 4
v 1 10 4
v 2 10 4
v 3 10 4
v 4 10 4
v 5 10 4
v 6 10 4
v 7 10 4
v -2 10 3
v -1 10 3
v 0 10 3
v 1 10 3
v 2 10 3
v 3 10 3
v 4 10 3
v 5 10 3
v 6 10 3
v 7 10 3
v -4 10 1
v -3 10 1
v -4 10 -0
v -3 10 -0
v -4 10 -1
v -3 10 -1
v -4 10 -2
v -3 10 -2
v -4 10 -3
v -3 10 -3
v 4 10 -3
v 5 10 -3
v 6 10 -3
v 7 10 -3
v -4 10 -4
v -3 10 -4
v 3 10 -4
v 4 10 -4
v 5 10 -4
v 6 10 -4
v 7 10 -4
v -4 10 -5
v -3 10 -5
v 3 10 -5
v 4 10 -5
v -4 10 -6
v -3 10 -6
v 3 10 -6
v 4 10 -6
v -4 10 -7
v -3 10 -7
v 3 10 -7
v 4 10 -7
v -4 10 -8
v -3 10 -8
v -3 11 4
v -2 11 4
v -4 11 3
v -3 11 3
v -2 11 3
v -4 11 2
v -3 11 2
v 3 11 -3
v 4 11 -3
v 3 11 -4
v 4 11 -4
v -4 12 4
v -3 12 4
v -4 12 3
v -3 12 3

# faces
f 3/5/1 2/5/1 1/5/1
f 4/5/1 2/5/1 3/5/1
f 7/4/1 6/4/1 5/4/1
f 8/4/1 6/4/1 7/4/1
f 9/1/1 8/1/1 7/1/1
f 10/1/1 8/1/1 9/1/1
f 11/1/1 8/1/1 10/1/1
f 12/1/1 8/1/1 11/1/1
f 13/1/1 8/1/1 12/1/1
f 14/1/1 8/1/1 13/1/1
f 15/1/1 8/1/1 14/1/1
f 16/1/1 8/1/1 15/1/1
f 17/1/1 8/1/1 16/1/1
f 18/1/1 8/1/1 17/1/1
f 19/1/1 8/1/1 18/1/1
f 20/1/1 8/1/1 19/1/1
f 21/2/1 12/2/1 11/2/1
f 22/2/1 12/2/1 21/2/1
f 23/2/1 14/2/1 13/2/1
f 24/2/1 14/2/1 23/2/1
f 25/2/1 16/2/1 15/2/1
f 26/2/1 16/2/1 25/2/1
f 27/2/1 18/2/1 17/2/1
f 28/2/1 18/2/1 27/2/1
f 29/2/1 20/2/1 19/2/1
f 30/2/1 20/2/1 29/2/1
f 31/2/1 10/2/1 9/2/1
f 32/2/1 10/2/1 31/2/1
f 33/2/1 31/2/1 9/2/1
f 34/2/1 31/2/1 33/2/1
f 37/2/1 36/2/1 35/2/1
f 38/2/1 36/2/1 37/2/1
f 41/3/1 40/3/1 39/3/1
f 42/3/1 40/3/1 41/3/1
f 45/2/1 44/2/1 43/2/1
f 46/2/1 44/2/1 45/2/1
f 49/1/1 48/1/1 47/1/1
f 50/1/1 48/1/1 49/1/1
f 51/1/1 48/1/1 50/1/1
f 52/1/1 48/1/1 51/1/1
f 53/1/1 48/1/1 52/1/1
f 54/2/1 50/2/1 49/2/1
f 55/2/1 50/2/1 54/2/1
f 56/2/1 52/2/1 51/2/1
f 57/2/1 52/2/1 56/2/1
f 58/2/1 54/2/1 49/2/1
f 59/2/1 54/2/1 58/2/1
f 62/2/1 61/2/1 60/2/1
f 63/2/1 61/2/1 62/2/1
f 68/2/1 65/2/1 64/2/1
f 69/2/1 65/2/1 68/2/1
f 70/2/1 67/2/1 66/2/1
f 71/2/1 67/2/1 70/2/1
f 72/1/2 73/1/2 74/1/2
f 74/1/2 73/1/2 75/1/2
f 75/1/2 73/1/2 76/1/2
f 76/1/2 73/1/2 77/1/2
f 77/1/2 73/1/2 78/1/2
f 78/1/2 73/1/2 79/1/2
f 79/1/2 73/1/2 80/1/2
f 80/1/2 73/1/2 81/1/2
f 81/1/2 73/1/2 82/1/2
f 82/1/2 73/1/2 83/1/2
f 83/1/2 73/1/2 84/1/2
f 84/1/2 73/1/2 85/1/2
f 76/2/2 77/2/2 86/2/2
f 86/2/2 77/2/2 87/2/2
f 78/2/2 79/2/2 88/2/2
f 88/2/2 79/2/2 89/2/2
f 80/2/2 81/2/2 90/2/2
f 90/2/2 81/2/2 91/2/2
f 82/2/2 83/2/2 92/2/2
f 92/2/2 83/2/2 93/2/2
f 84/2/2 85/2/2 94/2/2
f 94/2/2 85/2/2 95/2/2
f 74/2/2 75/2/2 97/2/2
f 97/2/2 75/2/2 98/2/2
f 96/2/2 97/2/2 99/2/2
f 99/2/2 97/2/2 100/2/2
f 101/2/2 102/2/2 103/2/2
f 103/2/2 102/2/2 104/2/2
f 105/3/2 106/3/2 107/3/2
f 107/3/2 106/3/2 108/3/2
f 109/2/2 110/2/2 111/2/2
f 111/2/2 110/2/2 112/2/2
f 113/2/2 114/2/2 115/2/2
f 115/2/2 114/2/2 116/2/2
f 117/2/2 118/2/2 119/2/2
f 119/2/2 118/2/2 120/2/2
f 121/4/2 122/4/2 123/4/2
f 123/4/2 122/4/2 124/4/2
f 123/1/2 124/1/2 125/1/2
f 125/1/2 124/1/2 126/1/2
f 126/1/2 124/1/2 127/1/2
f 127/1/2 124/1/2 128/1/2
f 128/1/2 124/1/2 129/1/2
f 125/2/2 126/2/2 131/2/2
f 131/2/2 126/2/2 132/2/2
f 127/2/2 128/2/2 133/2/2
f 133/2/2 128/2/2 134/2/2
f 130/2/2 131/2/2 135/2/2
f 135/2/2 131/2/2 136/2/2
f 137/5/2 138/5/2 139/5/2
f 139/5/2 138/5/2 140/5/2
f 141/2/2 142/2/2 145/2/2
f 145/2/2 142/2/2 146/2/2
f 143/2/2 144/2/2 147/2/2
f 147/2/2 144/2/2 148/2/2
f 149/2/2 150/2/2 153/2/2
f 153/2/2 150/2/2 154/2/2
f 151/2/2 152/2/2 155/2/2
f 155/2/2 152/2/2 156/2/2
f 157/5/2 158/5/2 161/5/2
f 158/4/2 159/4/2 162/4/2
f 161/5/2 158/5/2 162/5/2
f 159/5/2 160/5/2 163/5/2
f 162/4/2 159/4/2 163/4/2
f 163/5/2 160/5/2 164/5/2
f 162/4/2 163/4/2 165/4/2
f 165/4/2 163/4/2 166/4/2
f 166/4/2 163/4/2 167/4/2
f 167/4/2 163/4/2 168/4/2
f 165/1/2 166/1/2 169/1/2
f 169/1/2 166/1/2 170/1/2
f 167/1/2 168/1/2 171/1/2
f 171/1/2 168/1/2 172/1/2
f 175/5/3 174/5/3 173/5/3
f 176/5/3 174/5/3 175/5/3
f 181/2/3 180/2/3 179/2/3
f 182/2/3 180/2/3 181/2/3
f 183/2/3 181/2/3 179/2/3
f 184/2/3 181/2/3 183/2/3
f 185/1/3 179/1/3 178/1/3
f 185/2/3 183/2/3 179/2/3
f 186/2/3 183/2/3 185/2/3
f 187/1/3 185/1/3 178/1/3
f 189/1/3 187/1/3 178/1/3
f 189/2/3 188/2/3 187/2/3
f 190/2/3 188/2/3 189/2/3
f 191/1/3 189/1/3 178/1/3
f 193/1/3 191/1/3 178/1/3
f 193/2/3 192/2/3 191/2/3
f 194/2/3 192/2/3 193/2/3
f 195/1/3 193/1/3 178/1/3
f 197/1/3 195/1/3 178/1/3
f 197/2/3 196/2/3 195/2/3
f 198/2/3 196/2/3 197/2/3
f 199/1/3 197/1/3 178/1/3
f 201/1/3 199/1/3 178/1/3
f 201/2/3 200/2/3 199/2/3
f 202/2/3 200/2/3 201/2/3
f 203/4/3 178/4/3 177/4/3
f 204/1/3 201/1/3 178/1/3
f 204/4/3 178/4/3 203/4/3
f 205/1/3 201/1/3 204/1/3
f 208/2/3 207/2/3 206/2/3
f 209/2/3 207/2/3 208/2/3
f 212/2/3 211/2/3 210/2/3
f 213/2/3 211/2/3 212/2/3
f 216/2/3 215/2/3 214/2/3
f 217/2/3 215/2/3 216/2/3
f 221/2/3 220/2/3 219/2/3
f 222/2/3 220/2/3 221/2/3
f 223/1/3 219/1/3 218/1/3
f 223/2/3 221/2/3 219/2/3
f 224/2/3 221/2/3 223/2/3
f 225/1/3 223/1/3 218/1/3
f 227/1/3 225/1/3 218/1/3
f 227/2/3 226/2/3 225/2/3
f 228/2/3 226/2/3 227/2/3
f 229/1/3 227/1/3 218/1/3
f 230/1/3 227/1/3 229/1/3
f 233/4/3 232/4/3 231/4/3
f 234/4/3 232/4/3 233/4/3
f 237/2/3 236/2/3 235/2/3
f 238/2/3 236/2/3 237/2/3
f 241/2/3 240/2/3 239/2/3
f 242/2/3 240/2/3 241/2/3
f 245/2/3 244/2/3 243/2/3
f 246/2/3 244/2/3 245/2/3
f 247/2/4 248/2/4 251/2/4
f 251/2/4 248/2/4 252/2/4
f 250/2/4 251/2/4 253/2/4
f 253/2/4 251/2/4 254/2/4
f 249/1/4 250/1/4 255/1/4
f 250/2/4 253/2/4 255/2/4
f 255/2/4 253/2/4 256/2/4
f 249/1/4 255/1/4 257/1/4
f 249/1/4 257/1/4 259/1/4
f 257/2/4 258/2/4 259/2/4
f 259/2/4 258/2/4 260/2/4
f 249/1/4 259/1/4 261/1/4
f 249/1/4 261/1/4 263/1/4
f 261/2/4 262/2/4 263/2/4
f 263/2/4 262/2/4 264/2/4
f 249/1/4 263/1/4 265/1/4
f 249/1/4 265/1/4 267/1/4
f 265/2/4 266/2/4 267/2/4
f 267/2/4 266/2/4 268/2/4
f 249/1/4 267/1/4 269/1/4
f 249/1/4 269/1/4 271/1/4
f 269/2/4 270/2/4 271/2/4
f 271/2/4 270/2/4 272/2/4
f 249/1/4 271/1/4 273/1/4
f 273/1/4 271/1/4 274/1/4
f 275/2/4 276/2/4 277/2/4
f 277/2/4 276/2/4 278/2/4
f 279/2/4 280/2/4 281/2/4
f 281/2/4 280/2/4 282/2/4
f 283/2/4 284/2/4 285/2/4
f 285/2/4 284/2/4 286/2/4
f 287/4/4 288/4/4 289/4/4
f 289/4/4 288/4/4 290/4/4
f 291/2/4 292/2/4 293/2/4
f 293/2/4 292/2/4 294/2/4
f 295/2/4 296/2/4 300/2/4
f 300/2/4 296/2/4 301/2/4
f 298/1/4 299/1/4 302/1/4
f 299/2/4 300/2/4 302/2/4
f 302/2/4 300/2/4 303/2/4
f 298/1/4 302/1/4 304/1/4
f 298/1/4 304/1/4 306/1/4
f 304/2/4 305/2/4 306/2/4
f 306/2/4 305/2/4 307/2/4
f 297/4/4 298/4/4 308/4/4
f 298/1/4 306/1/4 309/1/4
f 308/4/4 298/4/4 309/4/4
f 309/1/4 306/1/4 310/1/4
f 311/2/4 312/2/4 313/2/4
f 313/2/4 312/2/4 314/2/4
f 315/5/4 316/5/4 317/5/4
f 317/5/4 316/5/4 318/5/4
f 319/2/4 320/2/4 321/2/4
f 321/2/4 320/2/4 322/2/4
f 323/2/4 324/2/4 325/2/4
f 325/2/4 324/2/4 326/2/4
f 327/5/4 328/5/4 329/5/4
f 329/4/4 330/4/4 333/4/4
f 330/1/4 331/1/4 333/1/4
f 331/2/4 332/2/4 334/2/4
f 333/1/4 331/1/4 334/1/4
f 334/2/4 332/2/4 335/2/4
f 329/4/4 333/4/4 336/4/4
f 327/5/4 329/5/4 338/5/4
f 329/4/4 336/4/4 338/4/4
f 336/1/4 337/1/4 339/1/4
f 338/4/4 336/4/4 339/4/4
f 339/1/4 337/1/4 340/1/4
f 327/5/4 338/5/4 341/5/4
f 341/5/4 338/5/4 342/5/4
f 345/5/5 344/5/5 343/5/5
f 346/5/5 344/5/5 345/5/5
f 347/5/5 345/5/5 343/5/5
f 347/4/5 346/4/5 345/4/5
f 348/4/5 346/4/5 347/4/5
f 349/5/5 348/5/5 347/5/5
f 350/5/5 348/5/5 349/5/5
f 351/5/5 347/5/5 343/5/5
f 351/5/5 349/5/5 347/5/5
f 352/5/5 349/5/5 351/5/5
f 355/3/5 354/3/5 353/3/5
f 356/3/5 354/3/5 355/3/5
f 357/5/6 358/5/6 359/5/6
f 359/5/6 358/5/6 360/5/6
f 361/5/6 362/5/6 363/5/6
f 363/5/6 362/5/6 364/5/6
f 357/5/6 359/5/6 365/5/6
f 365/5/6 359/5/6 366/5/6
f 361/5/6 363/5/6 367/5/6
f 367/5/6 363/5/6 368/5/6
f 369/3/6 370/3/6 371/3/6
f 371/3/6 370/3/6 372/3/6
f 373/4/6 374/4/6 375/4/6
f 375/4/6 374/4/6 376/4/6
f 373/4/6 375/4/6 377/4/6
f 377/4/6 375/4/6 378/4/6
f 379/1/6 380/1/6 389/1/6
f 389/1/6 380/1/6 390/1/6
f 381/1/6 382/1/6 391/1/6
f 391/1/6 382/1/6 392/1/6
f 383/1/6 384/1/6 393/1/6
f 393/1/6 384/1/6 394/1/6
f 385/1/6 386/1/6 395/1/6
f 395/1/6 386/1/6 396/1/6
f 387/1/6 388/1/6 397/1/6
f 397/1/6 388/1/6 398/1/6
f 399/1/6 400/1/6 401/1/6
f 401/1/6 400/1/6 402/1/6
f 403/1/6 404/1/6 405/1/6
f 405/1/6 404/1/6 406/1/6
f 407/1/6 408/1/6 409/1/6
f 409/1/6 408/1/6 410/1/6
f 411/1/6 412/1/6 417/1/6
f 417/1/6 412/1/6 418/1/6
f 413/1/6 414/1/6 419/1/6
f 419/1/6 414/1/6 420/1/6
f 415/1/6 416/1/6 421/1/6
f 421/1/6 416/1/6 422/1/6
f 423/1/6 424/1/6 427/1/6
f 427/1/6 424/1/6 428/1/6
f 425/1/6 426/1/6 429/1/6
f 429/1/6 426/1/6 430/1/6
f 431/1/6 432/1/6 433/1/6
f 433/1/6 432/1/6 434/1/6
f 435/2/6 436/2/6 445/2/6
f 445/2/6 436/2/6 446/2/6
f 437/2/6 438/2/6 447/2/6
f 447/2/6 438/2/6 448/2/6
f 439/2/6 440/2/6 449/2/6
f 449/2/6 440/2/6 450/2/6
f 441/2/6 442/2/6 451/2/6
f 451/2/6 442/2/6 452/2/6
f 443/2/6 444/2/6 453/2/6
f 453/2/6 444/2/6 454/2/6
f 455/2/6 456/2/6 457/2/6
f 457/2/6 456/2/6 458/2/6
f 459/2/6 460/2/6 461/2/6
f 461/2/6 460/2/6 462/2/6
f 463/2/6 464/2/6 469/2/6
f 469/2/6 464/2/6 470/2/6
f 465/2/6 466/2/6 472/2/6
f 472/2/6 466/2/6 473/2/6
f 467/2/6 468/2/6 474/2/6
f 474/2/6 468/2/6 475/2/6
f 471/2/6 472/2/6 478/2/6
f 478/2/6 472/2/6 479/2/6
f 476/2/6 477/2/6 480/2/6
f 480/2/6 477/2/6 481/2/6
f 482/2/6 483/2/6 486/2/6
f 486/2/6 483/2/6 487/2/6
f 484/2/6 485/2/6 488/2/6
f 488/2/6 485/2/6 489/2/6
f 490/2/6 491/2/6 493/2/6
f 493/2/6 491/2/6 494/2/6
f 492/2/6 493/2/6 495/2/6
f 495/2/6 493/2/6 496/2/6
f 497/2/6 498/2/6 499/2/6
f 499/2/6 498/2/6 500/2/6
f 501/2/6 502/2/6 503/2/6
f 503/2/6 502/2/6 504/2/6
