# MagicaVoxel @ Ephtracy

# group
g WallCurved_TallUpper1

# material
mtllib WallCurved_TallUpper1.mtl
usemtl palette

# normals
vn -1 0 0
vn 1 0 0
vn 0 0 1
vn 0 0 -1
vn 0 -1 0
vn 0 1 0

# texcoords
vt 0.986328 0.5

# verts
v -5 1 3
v -5 1 -4
v -5 2 2
v -5 2 1
v -5 2 -0
v -5 2 -1
v -5 2 -2
v -5 2 -3
v -5 3 3
v -5 3 2
v -5 3 1
v -5 3 -0
v -5 3 -1
v -5 3 -2
v -5 3 -3
v -5 3 -4
v -4 0 3
v -4 0 -4
v -4 1 4
v -4 1 3
v -4 1 -4
v -4 1 -5
v -4 3 4
v -4 3 3
v -4 3 -4
v -4 3 -5
v -3 0 4
v -3 0 3
v -3 0 -4
v -3 0 -5
v -3 1 5
v -3 1 4
v -3 1 3
v -3 1 -4
v -3 1 -5
v -3 1 -6
v -3 3 5
v -3 3 4
v -3 3 -5
v -3 3 -6
v -1 2 5
v -1 2 4
v -1 2 -5
v -1 2 -6
v -1 3 5
v -1 3 4
v -1 3 -5
v -1 3 -6
v 1 2 5
v 1 2 4
v 1 2 -5
v 1 2 -6
v 1 3 5
v 1 3 4
v 1 3 -5
v 1 3 -6
v 3 2 5
v 3 2 4
v 3 2 -5
v 3 2 -6
v 3 3 5
v 3 3 4
v 3 3 -5
v 3 3 -6
v 4 1 3
v 4 1 -4
v 4 2 4
v 4 2 3
v 4 2 -4
v 4 2 -5
v 4 3 4
v 4 3 3
v 4 3 -4
v 4 3 -5
v 5 2 3
v 5 2 2
v 5 2 1
v 5 2 -0
v 5 2 -1
v 5 2 -2
v 5 2 -3
v 5 2 -4
v 5 3 3
v 5 3 2
v 5 3 1
v 5 3 -0
v 5 3 -1
v 5 3 -2
v 5 3 -3
v 5 3 -4
v -4 2 3
v -4 2 2
v -4 2 1
v -4 2 -0
v -4 2 -1
v -4 2 -2
v -4 2 -3
v -4 2 -4
v -4 3 3
v -4 3 2
v -4 3 1
v -4 3 -0
v -4 3 -1
v -4 3 -2
v -4 3 -3
v -4 3 -4
v -3 1 3
v -3 1 -4
v -3 2 4
v -3 2 3
v -3 2 -4
v -3 2 -5
v -3 3 4
v -3 3 3
v -3 3 -4
v -3 3 -5
v -2 2 5
v -2 2 4
v -2 2 -5
v -2 2 -6
v -2 3 5
v -2 3 4
v -2 3 -5
v -2 3 -6
v 0 2 5
v 0 2 4
v 0 2 -5
v 0 2 -6
v 0 3 5
v 0 3 4
v 0 3 -5
v 0 3 -6
v 2 2 5
v 2 2 4
v 2 2 -5
v 2 2 -6
v 2 3 5
v 2 3 4
v 2 3 -5
v 2 3 -6
v 4 0 4
v 4 0 3
v 4 0 -4
v 4 0 -5
v 4 1 5
v 4 1 4
v 4 1 3
v 4 1 -4
v 4 1 -5
v 4 1 -6
v 4 3 5
v 4 3 4
v 4 3 -5
v 4 3 -6
v 5 0 3
v 5 0 -4
v 5 1 4
v 5 1 3
v 5 1 -4
v 5 1 -5
v 5 3 4
v 5 3 3
v 5 3 -4
v 5 3 -5
v 6 1 3
v 6 1 -4
v 6 2 2
v 6 2 1
v 6 2 -0
v 6 2 -1
v 6 2 -2
v 6 2 -3
v 6 3 3
v 6 3 2
v 6 3 1
v 6 3 -0
v 6 3 -1
v 6 3 -2
v 6 3 -3
v 6 3 -4
v -3 1 5
v -3 3 5
v -2 2 5
v -2 3 5
v -1 2 5
v -1 3 5
v 0 2 5
v 0 3 5
v 1 2 5
v 1 3 5
v 2 2 5
v 2 3 5
v 3 2 5
v 3 3 5
v 4 1 5
v 4 3 5
v -4 1 4
v -4 3 4
v -3 0 4
v -3 1 4
v -3 3 4
v 4 0 4
v 4 1 4
v 4 3 4
v 5 1 4
v 5 3 4
v -5 1 3
v -5 3 3
v -4 0 3
v -4 1 3
v -4 3 3
v -3 0 3
v -3 1 3
v 4 0 3
v 4 1 3
v 5 0 3
v 5 1 3
v 5 3 3
v 6 1 3
v 6 3 3
v -5 2 1
v -5 3 1
v -4 2 1
v -4 3 1
v 5 2 1
v 5 3 1
v 6 2 1
v 6 3 1
v -5 2 -1
v -5 3 -1
v -4 2 -1
v -4 3 -1
v 5 2 -1
v 5 3 -1
v 6 2 -1
v 6 3 -1
v -5 2 -3
v -5 3 -3
v -4 2 -3
v -4 3 -3
v 5 2 -3
v 5 3 -3
v 6 2 -3
v 6 3 -3
v -4 2 -4
v -4 3 -4
v -3 1 -4
v -3 2 -4
v -3 3 -4
v 4 1 -4
v 4 2 -4
v 4 3 -4
v 5 2 -4
v 5 3 -4
v -3 2 -5
v -3 3 -5
v -2 2 -5
v -2 3 -5
v -1 2 -5
v -1 3 -5
v 0 2 -5
v 0 3 -5
v 1 2 -5
v 1 3 -5
v 2 2 -5
v 2 3 -5
v 3 2 -5
v 3 3 -5
v 4 2 -5
v 4 3 -5
v -3 2 4
v -3 3 4
v -2 2 4
v -2 3 4
v -1 2 4
v -1 3 4
v 0 2 4
v 0 3 4
v 1 2 4
v 1 3 4
v 2 2 4
v 2 3 4
v 3 2 4
v 3 3 4
v 4 2 4
v 4 3 4
v -4 2 3
v -4 3 3
v -3 1 3
v -3 2 3
v -3 3 3
v 4 1 3
v 4 2 3
v 4 3 3
v 5 2 3
v 5 3 3
v -5 2 2
v -5 3 2
v -4 2 2
v -4 3 2
v 5 2 2
v 5 3 2
v 6 2 2
v 6 3 2
v -5 2 -0
v -5 3 -0
v -4 2 -0
v -4 3 -0
v 5 2 -0
v 5 3 -0
v 6 2 -0
v 6 3 -0
v -5 2 -2
v -5 3 -2
v -4 2 -2
v -4 3 -2
v 5 2 -2
v 5 3 -2
v 6 2 -2
v 6 3 -2
v -5 1 -4
v -5 3 -4
v -4 0 -4
v -4 1 -4
v -4 3 -4
v -3 0 -4
v -3 1 -4
v 4 0 -4
v 4 1 -4
v 5 0 -4
v 5 1 -4
v 5 3 -4
v 6 1 -4
v 6 3 -4
v -4 1 -5
v -4 3 -5
v -3 0 -5
v -3 1 -5
v -3 3 -5
v 4 0 -5
v 4 1 -5
v 4 3 -5
v 5 1 -5
v 5 3 -5
v -3 1 -6
v -3 3 -6
v -2 2 -6
v -2 3 -6
v -1 2 -6
v -1 3 -6
v 0 2 -6
v 0 3 -6
v 1 2 -6
v 1 3 -6
v 2 2 -6
v 2 3 -6
v 3 2 -6
v 3 3 -6
v 4 1 -6
v 4 3 -6
v -3 0 4
v 4 0 4
v -4 0 3
v -3 0 3
v 4 0 3
v 5 0 3
v -4 0 -4
v -3 0 -4
v 4 0 -4
v 5 0 -4
v -3 0 -5
v 4 0 -5
v -3 1 5
v 4 1 5
v -4 1 4
v -3 1 4
v 4 1 4
v 5 1 4
v -5 1 3
v -4 1 3
v -3 1 3
v 4 1 3
v 5 1 3
v 6 1 3
v -5 1 -4
v -4 1 -4
v -3 1 -4
v 4 1 -4
v 5 1 -4
v 6 1 -4
v -4 1 -5
v -3 1 -5
v 4 1 -5
v 5 1 -5
v -3 1 -6
v 4 1 -6
v -3 1 3
v 4 1 3
v -3 1 -4
v 4 1 -4
v -2 2 5
v -1 2 5
v 0 2 5
v 1 2 5
v 2 2 5
v 3 2 5
v -3 2 4
v -2 2 4
v -1 2 4
v 0 2 4
v 1 2 4
v 2 2 4
v 3 2 4
v 4 2 4
v -4 2 3
v -3 2 3
v 4 2 3
v 5 2 3
v -5 2 2
v -4 2 2
v 5 2 2
v 6 2 2
v -5 2 1
v -4 2 1
v 5 2 1
v 6 2 1
v -5 2 -0
v -4 2 -0
v 5 2 -0
v 6 2 -0
v -5 2 -1
v -4 2 -1
v 5 2 -1
v 6 2 -1
v -5 2 -2
v -4 2 -2
v 5 2 -2
v 6 2 -2
v -5 2 -3
v -4 2 -3
v 5 2 -3
v 6 2 -3
v -4 2 -4
v -3 2 -4
v 4 2 -4
v 5 2 -4
v -3 2 -5
v -2 2 -5
v -1 2 -5
v 0 2 -5
v 1 2 -5
v 2 2 -5
v 3 2 -5
v 4 2 -5
v -2 2 -6
v -1 2 -6
v 0 2 -6
v 1 2 -6
v 2 2 -6
v 3 2 -6
v -3 3 5
v -2 3 5
v -1 3 5
v 0 3 5
v 1 3 5
v 2 3 5
v 3 3 5
v 4 3 5
v -4 3 4
v -3 3 4
v -2 3 4
v -1 3 4
v 0 3 4
v 1 3 4
v 2 3 4
v 3 3 4
v 4 3 4
v 5 3 4
v -5 3 3
v -4 3 3
v -3 3 3
v 4 3 3
v 5 3 3
v 6 3 3
v -5 3 2
v -4 3 2
v 5 3 2
v 6 3 2
v -5 3 1
v -4 3 1
v 5 3 1
v 6 3 1
v -5 3 -0
v -4 3 -0
v 5 3 -0
v 6 3 -0
v -5 3 -1
v -4 3 -1
v 5 3 -1
v 6 3 -1
v -5 3 -2
v -4 3 -2
v 5 3 -2
v 6 3 -2
v -5 3 -3
v -4 3 -3
v 5 3 -3
v 6 3 -3
v -5 3 -4
v -4 3 -4
v -3 3 -4
v 4 3 -4
v 5 3 -4
v 6 3 -4
v -4 3 -5
v -3 3 -5
v -2 3 -5
v -1 3 -5
v 0 3 -5
v 1 3 -5
v 2 3 -5
v 3 3 -5
v 4 3 -5
v 5 3 -5
v -3 3 -6
v -2 3 -6
v -1 3 -6
v 0 3 -6
v 1 3 -6
v 2 3 -6
v 3 3 -6
v 4 3 -6

# faces
f 3/1/1 2/1/1 1/1/1
f 4/1/1 2/1/1 3/1/1
f 5/1/1 2/1/1 4/1/1
f 6/1/1 2/1/1 5/1/1
f 7/1/1 2/1/1 6/1/1
f 8/1/1 2/1/1 7/1/1
f 9/1/1 3/1/1 1/1/1
f 10/1/1 3/1/1 9/1/1
f 11/1/1 5/1/1 4/1/1
f 12/1/1 5/1/1 11/1/1
f 13/1/1 7/1/1 6/1/1
f 14/1/1 7/1/1 13/1/1
f 15/1/1 2/1/1 8/1/1
f 16/1/1 2/1/1 15/1/1
f 20/1/1 18/1/1 17/1/1
f 21/1/1 18/1/1 20/1/1
f 23/1/1 20/1/1 19/1/1
f 24/1/1 20/1/1 23/1/1
f 25/1/1 22/1/1 21/1/1
f 26/1/1 22/1/1 25/1/1
f 32/1/1 28/1/1 27/1/1
f 33/1/1 28/1/1 32/1/1
f 34/1/1 30/1/1 29/1/1
f 35/1/1 30/1/1 34/1/1
f 37/1/1 32/1/1 31/1/1
f 38/1/1 32/1/1 37/1/1
f 39/1/1 36/1/1 35/1/1
f 40/1/1 36/1/1 39/1/1
f 45/1/1 42/1/1 41/1/1
f 46/1/1 42/1/1 45/1/1
f 47/1/1 44/1/1 43/1/1
f 48/1/1 44/1/1 47/1/1
f 53/1/1 50/1/1 49/1/1
f 54/1/1 50/1/1 53/1/1
f 55/1/1 52/1/1 51/1/1
f 56/1/1 52/1/1 55/1/1
f 61/1/1 58/1/1 57/1/1
f 62/1/1 58/1/1 61/1/1
f 63/1/1 60/1/1 59/1/1
f 64/1/1 60/1/1 63/1/1
f 68/1/1 66/1/1 65/1/1
f 69/1/1 66/1/1 68/1/1
f 71/1/1 68/1/1 67/1/1
f 72/1/1 68/1/1 71/1/1
f 73/1/1 70/1/1 69/1/1
f 74/1/1 70/1/1 73/1/1
f 83/1/1 76/1/1 75/1/1
f 84/1/1 76/1/1 83/1/1
f 85/1/1 78/1/1 77/1/1
f 86/1/1 78/1/1 85/1/1
f 87/1/1 80/1/1 79/1/1
f 88/1/1 80/1/1 87/1/1
f 89/1/1 82/1/1 81/1/1
f 90/1/1 82/1/1 89/1/1
f 91/1/2 92/1/2 99/1/2
f 99/1/2 92/1/2 100/1/2
f 93/1/2 94/1/2 101/1/2
f 101/1/2 94/1/2 102/1/2
f 95/1/2 96/1/2 103/1/2
f 103/1/2 96/1/2 104/1/2
f 97/1/2 98/1/2 105/1/2
f 105/1/2 98/1/2 106/1/2
f 107/1/2 108/1/2 110/1/2
f 110/1/2 108/1/2 111/1/2
f 109/1/2 110/1/2 113/1/2
f 113/1/2 110/1/2 114/1/2
f 111/1/2 112/1/2 115/1/2
f 115/1/2 112/1/2 116/1/2
f 117/1/2 118/1/2 121/1/2
f 121/1/2 118/1/2 122/1/2
f 119/1/2 120/1/2 123/1/2
f 123/1/2 120/1/2 124/1/2
f 125/1/2 126/1/2 129/1/2
f 129/1/2 126/1/2 130/1/2
f 127/1/2 128/1/2 131/1/2
f 131/1/2 128/1/2 132/1/2
f 133/1/2 134/1/2 137/1/2
f 137/1/2 134/1/2 138/1/2
f 135/1/2 136/1/2 139/1/2
f 139/1/2 136/1/2 140/1/2
f 141/1/2 142/1/2 146/1/2
f 146/1/2 142/1/2 147/1/2
f 143/1/2 144/1/2 148/1/2
f 148/1/2 144/1/2 149/1/2
f 145/1/2 146/1/2 151/1/2
f 151/1/2 146/1/2 152/1/2
f 149/1/2 150/1/2 153/1/2
f 153/1/2 150/1/2 154/1/2
f 155/1/2 156/1/2 158/1/2
f 158/1/2 156/1/2 159/1/2
f 157/1/2 158/1/2 161/1/2
f 161/1/2 158/1/2 162/1/2
f 159/1/2 160/1/2 163/1/2
f 163/1/2 160/1/2 164/1/2
f 165/1/2 166/1/2 167/1/2
f 167/1/2 166/1/2 168/1/2
f 168/1/2 166/1/2 169/1/2
f 169/1/2 166/1/2 170/1/2
f 170/1/2 166/1/2 171/1/2
f 171/1/2 166/1/2 172/1/2
f 165/1/2 167/1/2 173/1/2
f 173/1/2 167/1/2 174/1/2
f 168/1/2 169/1/2 175/1/2
f 175/1/2 169/1/2 176/1/2
f 170/1/2 171/1/2 177/1/2
f 177/1/2 171/1/2 178/1/2
f 172/1/2 166/1/2 179/1/2
f 179/1/2 166/1/2 180/1/2
f 183/1/3 182/1/3 181/1/3
f 184/1/3 182/1/3 183/1/3
f 185/1/3 183/1/3 181/1/3
f 187/1/3 185/1/3 181/1/3
f 187/1/3 186/1/3 185/1/3
f 188/1/3 186/1/3 187/1/3
f 189/1/3 187/1/3 181/1/3
f 191/1/3 189/1/3 181/1/3
f 191/1/3 190/1/3 189/1/3
f 192/1/3 190/1/3 191/1/3
f 193/1/3 191/1/3 181/1/3
f 195/1/3 193/1/3 181/1/3
f 195/1/3 194/1/3 193/1/3
f 196/1/3 194/1/3 195/1/3
f 200/1/3 198/1/3 197/1/3
f 201/1/3 198/1/3 200/1/3
f 202/1/3 200/1/3 199/1/3
f 203/1/3 200/1/3 202/1/3
f 205/1/3 204/1/3 203/1/3
f 206/1/3 204/1/3 205/1/3
f 210/1/3 208/1/3 207/1/3
f 211/1/3 208/1/3 210/1/3
f 212/1/3 210/1/3 209/1/3
f 213/1/3 210/1/3 212/1/3
f 216/1/3 215/1/3 214/1/3
f 217/1/3 215/1/3 216/1/3
f 219/1/3 218/1/3 217/1/3
f 220/1/3 218/1/3 219/1/3
f 223/1/3 222/1/3 221/1/3
f 224/1/3 222/1/3 223/1/3
f 227/1/3 226/1/3 225/1/3
f 228/1/3 226/1/3 227/1/3
f 231/1/3 230/1/3 229/1/3
f 232/1/3 230/1/3 231/1/3
f 235/1/3 234/1/3 233/1/3
f 236/1/3 234/1/3 235/1/3
f 239/1/3 238/1/3 237/1/3
f 240/1/3 238/1/3 239/1/3
f 243/1/3 242/1/3 241/1/3
f 244/1/3 242/1/3 243/1/3
f 248/1/3 246/1/3 245/1/3
f 249/1/3 246/1/3 248/1/3
f 250/1/3 248/1/3 247/1/3
f 251/1/3 248/1/3 250/1/3
f 253/1/3 252/1/3 251/1/3
f 254/1/3 252/1/3 253/1/3
f 257/1/3 256/1/3 255/1/3
f 258/1/3 256/1/3 257/1/3
f 261/1/3 260/1/3 259/1/3
f 262/1/3 260/1/3 261/1/3
f 265/1/3 264/1/3 263/1/3
f 266/1/3 264/1/3 265/1/3
f 269/1/3 268/1/3 267/1/3
f 270/1/3 268/1/3 269/1/3
f 271/1/4 272/1/4 273/1/4
f 273/1/4 272/1/4 274/1/4
f 275/1/4 276/1/4 277/1/4
f 277/1/4 276/1/4 278/1/4
f 279/1/4 280/1/4 281/1/4
f 281/1/4 280/1/4 282/1/4
f 283/1/4 284/1/4 285/1/4
f 285/1/4 284/1/4 286/1/4
f 287/1/4 288/1/4 290/1/4
f 290/1/4 288/1/4 291/1/4
f 289/1/4 290/1/4 292/1/4
f 292/1/4 290/1/4 293/1/4
f 293/1/4 294/1/4 295/1/4
f 295/1/4 294/1/4 296/1/4
f 297/1/4 298/1/4 299/1/4
f 299/1/4 298/1/4 300/1/4
f 301/1/4 302/1/4 303/1/4
f 303/1/4 302/1/4 304/1/4
f 305/1/4 306/1/4 307/1/4
f 307/1/4 306/1/4 308/1/4
f 309/1/4 310/1/4 311/1/4
f 311/1/4 310/1/4 312/1/4
f 313/1/4 314/1/4 315/1/4
f 315/1/4 314/1/4 316/1/4
f 317/1/4 318/1/4 319/1/4
f 319/1/4 318/1/4 320/1/4
f 321/1/4 322/1/4 324/1/4
f 324/1/4 322/1/4 325/1/4
f 323/1/4 324/1/4 326/1/4
f 326/1/4 324/1/4 327/1/4
f 328/1/4 329/1/4 330/1/4
f 330/1/4 329/1/4 331/1/4
f 331/1/4 332/1/4 333/1/4
f 333/1/4 332/1/4 334/1/4
f 335/1/4 336/1/4 338/1/4
f 338/1/4 336/1/4 339/1/4
f 337/1/4 338/1/4 340/1/4
f 340/1/4 338/1/4 341/1/4
f 341/1/4 342/1/4 343/1/4
f 343/1/4 342/1/4 344/1/4
f 345/1/4 346/1/4 347/1/4
f 347/1/4 346/1/4 348/1/4
f 345/1/4 347/1/4 349/1/4
f 345/1/4 349/1/4 351/1/4
f 349/1/4 350/1/4 351/1/4
f 351/1/4 350/1/4 352/1/4
f 345/1/4 351/1/4 353/1/4
f 345/1/4 353/1/4 355/1/4
f 353/1/4 354/1/4 355/1/4
f 355/1/4 354/1/4 356/1/4
f 345/1/4 355/1/4 357/1/4
f 345/1/4 357/1/4 359/1/4
f 357/1/4 358/1/4 359/1/4
f 359/1/4 358/1/4 360/1/4
f 364/1/5 362/1/5 361/1/5
f 365/1/5 362/1/5 364/1/5
f 367/1/5 364/1/5 363/1/5
f 367/1/5 366/1/5 365/1/5
f 367/1/5 365/1/5 364/1/5
f 368/1/5 366/1/5 367/1/5
f 369/1/5 366/1/5 368/1/5
f 370/1/5 366/1/5 369/1/5
f 371/1/5 369/1/5 368/1/5
f 372/1/5 369/1/5 371/1/5
f 376/1/5 374/1/5 373/1/5
f 377/1/5 374/1/5 376/1/5
f 380/1/5 376/1/5 375/1/5
f 381/1/5 376/1/5 380/1/5
f 382/1/5 378/1/5 377/1/5
f 383/1/5 378/1/5 382/1/5
f 385/1/5 380/1/5 379/1/5
f 386/1/5 380/1/5 385/1/5
f 389/1/5 384/1/5 383/1/5
f 390/1/5 384/1/5 389/1/5
f 391/1/5 387/1/5 386/1/5
f 392/1/5 387/1/5 391/1/5
f 393/1/5 389/1/5 388/1/5
f 394/1/5 389/1/5 393/1/5
f 395/1/5 393/1/5 392/1/5
f 396/1/5 393/1/5 395/1/5
f 397/1/6 398/1/6 399/1/6
f 399/1/6 398/1/6 400/1/6
f 401/1/6 402/1/6 408/1/6
f 408/1/6 402/1/6 409/1/6
f 403/1/6 404/1/6 410/1/6
f 410/1/6 404/1/6 411/1/6
f 405/1/6 406/1/6 412/1/6
f 412/1/6 406/1/6 413/1/6
f 410/1/6 411/1/6 416/1/6
f 413/1/6 414/1/6 416/1/6
f 412/1/6 413/1/6 416/1/6
f 411/1/6 412/1/6 416/1/6
f 408/1/6 409/1/6 416/1/6
f 409/1/6 410/1/6 416/1/6
f 407/1/6 408/1/6 416/1/6
f 416/1/6 414/1/6 417/1/6
f 415/1/6 416/1/6 420/1/6
f 417/1/6 418/1/6 421/1/6
f 419/1/6 420/1/6 423/1/6
f 420/1/6 416/1/6 424/1/6
f 423/1/6 420/1/6 424/1/6
f 421/1/6 422/1/6 425/1/6
f 417/1/6 421/1/6 425/1/6
f 425/1/6 422/1/6 426/1/6
f 424/1/6 416/1/6 428/1/6
f 417/1/6 425/1/6 429/1/6
f 427/1/6 428/1/6 431/1/6
f 428/1/6 416/1/6 432/1/6
f 431/1/6 428/1/6 432/1/6
f 429/1/6 430/1/6 433/1/6
f 417/1/6 429/1/6 433/1/6
f 433/1/6 430/1/6 434/1/6
f 432/1/6 416/1/6 436/1/6
f 417/1/6 433/1/6 437/1/6
f 435/1/6 436/1/6 439/1/6
f 436/1/6 416/1/6 440/1/6
f 439/1/6 436/1/6 440/1/6
f 437/1/6 438/1/6 441/1/6
f 417/1/6 437/1/6 441/1/6
f 441/1/6 438/1/6 442/1/6
f 440/1/6 416/1/6 443/1/6
f 443/1/6 416/1/6 444/1/6
f 417/1/6 441/1/6 445/1/6
f 445/1/6 441/1/6 446/1/6
f 444/1/6 445/1/6 447/1/6
f 447/1/6 445/1/6 448/1/6
f 448/1/6 445/1/6 449/1/6
f 449/1/6 445/1/6 450/1/6
f 450/1/6 445/1/6 451/1/6
f 451/1/6 445/1/6 452/1/6
f 452/1/6 445/1/6 453/1/6
f 453/1/6 445/1/6 454/1/6
f 448/1/6 449/1/6 455/1/6
f 455/1/6 449/1/6 456/1/6
f 450/1/6 451/1/6 457/1/6
f 457/1/6 451/1/6 458/1/6
f 452/1/6 453/1/6 459/1/6
f 459/1/6 453/1/6 460/1/6
f 461/1/6 462/1/6 470/1/6
f 470/1/6 462/1/6 471/1/6
f 463/1/6 464/1/6 472/1/6
f 472/1/6 464/1/6 473/1/6
f 465/1/6 466/1/6 474/1/6
f 474/1/6 466/1/6 475/1/6
f 467/1/6 468/1/6 476/1/6
f 476/1/6 468/1/6 477/1/6
f 469/1/6 470/1/6 480/1/6
f 480/1/6 470/1/6 481/1/6
f 477/1/6 478/1/6 482/1/6
f 482/1/6 478/1/6 483/1/6
f 479/1/6 480/1/6 485/1/6
f 485/1/6 480/1/6 486/1/6
f 483/1/6 484/1/6 487/1/6
f 487/1/6 484/1/6 488/1/6
f 489/1/6 490/1/6 493/1/6
f 493/1/6 490/1/6 494/1/6
f 491/1/6 492/1/6 495/1/6
f 495/1/6 492/1/6 496/1/6
f 497/1/6 498/1/6 501/1/6
f 501/1/6 498/1/6 502/1/6
f 499/1/6 500/1/6 503/1/6
f 503/1/6 500/1/6 504/1/6
f 505/1/6 506/1/6 509/1/6
f 509/1/6 506/1/6 510/1/6
f 507/1/6 508/1/6 513/1/6
f 513/1/6 508/1/6 514/1/6
f 510/1/6 511/1/6 515/1/6
f 515/1/6 511/1/6 516/1/6
f 512/1/6 513/1/6 523/1/6
f 523/1/6 513/1/6 524/1/6
f 516/1/6 517/1/6 525/1/6
f 525/1/6 517/1/6 526/1/6
f 518/1/6 519/1/6 527/1/6
f 527/1/6 519/1/6 528/1/6
f 520/1/6 521/1/6 529/1/6
f 529/1/6 521/1/6 530/1/6
f 522/1/6 523/1/6 531/1/6
f 531/1/6 523/1/6 532/1/6
