# MagicaVoxel @ Ephtracy

# group
g WallGate1

# material
mtllib WallGate1.mtl
usemtl palette

# normals
vn -1 0 0
vn 1 0 0
vn 0 0 1
vn 0 0 -1
vn 0 -1 0
vn 0 1 0

# texcoords
vt 0.853516 0.5
vt 0.978516 0.5
vt 0.986328 0.5
vt 0.990234 0.5
vt 0.994141 0.5

# verts
v -8 0 5
v -8 0 4
v -8 0 -4
v -8 0 -5
v -8 1 5
v -8 1 4
v -8 1 -4
v -8 1 -5
v -8 8 4
v -8 8 3
v -8 8 -3
v -8 8 -4
v -8 9 4
v -8 9 3
v -8 9 -3
v -8 9 -4
v -8 10 4
v -8 10 3
v -8 10 -3
v -8 10 -4
v -6 9 4
v -6 9 3
v -6 9 -3
v -6 9 -4
v -6 10 4
v -6 10 3
v -6 10 -3
v -6 10 -4
v -4 9 4
v -4 9 3
v -4 9 -3
v -4 9 -4
v -4 10 4
v -4 10 3
v -4 10 -3
v -4 10 -4
v -2 9 4
v -2 9 3
v -2 9 -3
v -2 9 -4
v -2 10 4
v -2 10 3
v -2 10 -3
v -2 10 -4
v 0 9 4
v 0 9 3
v 0 9 -3
v 0 9 -4
v 0 10 4
v 0 10 3
v 0 10 -3
v 0 10 -4
v 1 6 3
v 1 6 -3
v 1 7 3
v 1 7 -3
v 2 1 4
v 2 1 3
v 2 1 -3
v 2 1 -4
v 2 5 4
v 2 5 3
v 2 5 -3
v 2 5 -4
v 2 6 3
v 2 6 -3
v 2 9 4
v 2 9 3
v 2 9 -3
v 2 9 -4
v 2 10 4
v 2 10 3
v 2 10 -3
v 2 10 -4
v 4 9 4
v 4 9 3
v 4 9 -3
v 4 9 -4
v 4 10 4
v 4 10 3
v 4 10 -3
v 4 10 -4
v 6 9 4
v 6 9 3
v 6 9 -3
v 6 9 -4
v 6 10 4
v 6 10 3
v 6 10 -3
v 6 10 -4
v -7 9 4
v -7 9 3
v -7 9 -3
v -7 9 -4
v -7 10 4
v -7 10 3
v -7 10 -3
v -7 10 -4
v -5 9 4
v -5 9 3
v -5 9 -3
v -5 9 -4
v -5 10 4
v -5 10 3
v -5 10 -3
v -5 10 -4
v -3 9 4
v -3 9 3
v -3 9 -3
v -3 9 -4
v -3 10 4
v -3 10 3
v -3 10 -3
v -3 10 -4
v -2 1 4
v -2 1 3
v -2 1 -3
v -2 1 -4
v -2 5 4
v -2 5 3
v -2 5 -3
v -2 5 -4
v -2 6 3
v -2 6 -3
v -1 6 3
v -1 6 -3
v -1 7 3
v -1 7 -3
v -1 9 4
v -1 9 3
v -1 9 -3
v -1 9 -4
v -1 10 4
v -1 10 3
v -1 10 -3
v -1 10 -4
v 1 9 4
v 1 9 3
v 1 9 -3
v 1 9 -4
v 1 10 4
v 1 10 3
v 1 10 -3
v 1 10 -4
v 3 9 4
v 3 9 3
v 3 9 -3
v 3 9 -4
v 3 10 4
v 3 10 3
v 3 10 -3
v 3 10 -4
v 5 9 4
v 5 9 3
v 5 9 -3
v 5 9 -4
v 5 10 4
v 5 10 3
v 5 10 -3
v 5 10 -4
v 7 9 4
v 7 9 3
v 7 9 -3
v 7 9 -4
v 7 10 4
v 7 10 3
v 7 10 -3
v 7 10 -4
v 8 0 5
v 8 0 4
v 8 0 -4
v 8 0 -5
v 8 1 5
v 8 1 4
v 8 1 -4
v 8 1 -5
v 8 8 4
v 8 8 3
v 8 8 -3
v 8 8 -4
v 8 9 4
v 8 9 3
v 8 9 -3
v 8 9 -4
v -8 0 5
v -8 1 5
v 8 0 5
v 8 1 5
v -8 1 4
v -8 8 4
v -8 9 4
v -8 10 4
v -7 9 4
v -7 10 4
v -6 9 4
v -6 10 4
v -5 9 4
v -5 10 4
v -4 9 4
v -4 10 4
v -3 1 4
v -3 6 4
v -3 9 4
v -3 10 4
v -2 1 4
v -2 5 4
v -2 6 4
v -2 7 4
v -2 9 4
v -2 10 4
v -1 7 4
v -1 8 4
v -1 9 4
v -1 10 4
v 0 9 4
v 0 10 4
v 1 7 4
v 1 8 4
v 1 9 4
v 1 10 4
v 2 1 4
v 2 5 4
v 2 6 4
v 2 7 4
v 2 9 4
v 2 10 4
v 3 1 4
v 3 6 4
v 3 9 4
v 3 10 4
v 4 9 4
v 4 10 4
v 5 9 4
v 5 10 4
v 6 9 4
v 6 10 4
v 7 9 4
v 7 10 4
v 8 1 4
v 8 8 4
v 8 9 4
v -8 8 -3
v -8 9 -3
v -8 10 -3
v -7 9 -3
v -7 10 -3
v -6 9 -3
v -6 10 -3
v -5 9 -3
v -5 10 -3
v -4 9 -3
v -4 10 -3
v -3 9 -3
v -3 10 -3
v -2 5 -3
v -2 6 -3
v -2 9 -3
v -2 10 -3
v -1 6 -3
v -1 7 -3
v -1 9 -3
v -1 10 -3
v 0 9 -3
v 0 10 -3
v 1 6 -3
v 1 7 -3
v 1 9 -3
v 1 10 -3
v 2 5 -3
v 2 6 -3
v 2 9 -3
v 2 10 -3
v 3 9 -3
v 3 10 -3
v 4 9 -3
v 4 10 -3
v 5 9 -3
v 5 10 -3
v 6 9 -3
v 6 10 -3
v 7 9 -3
v 7 10 -3
v 8 8 -3
v 8 9 -3
v -8 8 3
v -8 9 3
v -8 10 3
v -7 9 3
v -7 10 3
v -6 9 3
v -6 10 3
v -5 9 3
v -5 10 3
v -4 9 3
v -4 10 3
v -3 9 3
v -3 10 3
v -2 5 3
v -2 6 3
v -2 9 3
v -2 10 3
v -1 6 3
v -1 7 3
v -1 9 3
v -1 10 3
v 0 9 3
v 0 10 3
v 1 6 3
v 1 7 3
v 1 9 3
v 1 10 3
v 2 5 3
v 2 6 3
v 2 9 3
v 2 10 3
v 3 9 3
v 3 10 3
v 4 9 3
v 4 10 3
v 5 9 3
v 5 10 3
v 6 9 3
v 6 10 3
v 7 9 3
v 7 10 3
v 8 8 3
v 8 9 3
v -8 1 -4
v -8 8 -4
v -8 9 -4
v -8 10 -4
v -7 9 -4
v -7 10 -4
v -6 9 -4
v -6 10 -4
v -5 9 -4
v -5 10 -4
v -4 9 -4
v -4 10 -4
v -3 1 -4
v -3 6 -4
v -3 9 -4
v -3 10 -4
v -2 1 -4
v -2 5 -4
v -2 6 -4
v -2 7 -4
v -2 9 -4
v -2 10 -4
v -1 7 -4
v -1 8 -4
v -1 9 -4
v -1 10 -4
v 0 9 -4
v 0 10 -4
v 1 7 -4
v 1 8 -4
v 1 9 -4
v 1 10 -4
v 2 1 -4
v 2 5 -4
v 2 6 -4
v 2 7 -4
v 2 9 -4
v 2 10 -4
v 3 1 -4
v 3 6 -4
v 3 9 -4
v 3 10 -4
v 4 9 -4
v 4 10 -4
v 5 9 -4
v 5 10 -4
v 6 9 -4
v 6 10 -4
v 7 9 -4
v 7 10 -4
v 8 1 -4
v 8 8 -4
v 8 9 -4
v -8 0 -5
v -8 1 -5
v 8 0 -5
v 8 1 -5
v -8 0 5
v 8 0 5
v -8 0 4
v 8 0 4
v -8 0 -4
v 8 0 -4
v -8 0 -5
v 8 0 -5
v -2 5 4
v 2 5 4
v -2 5 3
v 2 5 3
v -2 5 -3
v 2 5 -3
v -2 5 -4
v 2 5 -4
v -2 6 3
v -1 6 3
v 1 6 3
v 2 6 3
v -2 6 -3
v -1 6 -3
v 1 6 -3
v 2 6 -3
v -1 7 3
v 1 7 3
v -1 7 -3
v 1 7 -3
v -8 1 5
v 8 1 5
v -8 1 4
v -3 1 4
v -2 1 4
v 2 1 4
v 3 1 4
v 8 1 4
v -2 1 3
v 2 1 3
v -2 1 -3
v 2 1 -3
v -8 1 -4
v -3 1 -4
v -2 1 -4
v 2 1 -4
v 3 1 -4
v 8 1 -4
v -8 1 -5
v 8 1 -5
v -8 8 3
v 8 8 3
v -8 8 -3
v 8 8 -3
v -7 9 4
v -6 9 4
v -5 9 4
v -4 9 4
v -3 9 4
v -2 9 4
v -1 9 4
v 0 9 4
v 1 9 4
v 2 9 4
v 3 9 4
v 4 9 4
v 5 9 4
v 6 9 4
v 7 9 4
v 8 9 4
v -7 9 3
v -6 9 3
v -5 9 3
v -4 9 3
v -3 9 3
v -2 9 3
v -1 9 3
v 0 9 3
v 1 9 3
v 2 9 3
v 3 9 3
v 4 9 3
v 5 9 3
v 6 9 3
v 7 9 3
v 8 9 3
v -7 9 -3
v -6 9 -3
v -5 9 -3
v -4 9 -3
v -3 9 -3
v -2 9 -3
v -1 9 -3
v 0 9 -3
v 1 9 -3
v 2 9 -3
v 3 9 -3
v 4 9 -3
v 5 9 -3
v 6 9 -3
v 7 9 -3
v 8 9 -3
v -7 9 -4
v -6 9 -4
v -5 9 -4
v -4 9 -4
v -3 9 -4
v -2 9 -4
v -1 9 -4
v 0 9 -4
v 1 9 -4
v 2 9 -4
v 3 9 -4
v 4 9 -4
v 5 9 -4
v 6 9 -4
v 7 9 -4
v 8 9 -4
v -8 10 4
v -7 10 4
v -6 10 4
v -5 10 4
v -4 10 4
v -3 10 4
v -2 10 4
v -1 10 4
v 0 10 4
v 1 10 4
v 2 10 4
v 3 10 4
v 4 10 4
v 5 10 4
v 6 10 4
v 7 10 4
v -8 10 3
v -7 10 3
v -6 10 3
v -5 10 3
v -4 10 3
v -3 10 3
v -2 10 3
v -1 10 3
v 0 10 3
v 1 10 3
v 2 10 3
v 3 10 3
v 4 10 3
v 5 10 3
v 6 10 3
v 7 10 3
v -8 10 -3
v -7 10 -3
v -6 10 -3
v -5 10 -3
v -4 10 -3
v -3 10 -3
v -2 10 -3
v -1 10 -3
v 0 10 -3
v 1 10 -3
v 2 10 -3
v 3 10 -3
v 4 10 -3
v 5 10 -3
v 6 10 -3
v 7 10 -3
v -8 10 -4
v -7 10 -4
v -6 10 -4
v -5 10 -4
v -4 10 -4
v -3 10 -4
v -2 10 -4
v -1 10 -4
v 0 10 -4
v 1 10 -4
v 2 10 -4
v 3 10 -4
v 4 10 -4
v 5 10 -4
v 6 10 -4
v 7 10 -4

# faces
f 5/4/1 2/4/1 1/4/1
f 6/3/1 3/3/1 2/3/1
f 6/4/1 2/4/1 5/4/1
f 7/4/1 4/4/1 3/4/1
f 7/3/1 3/3/1 6/3/1
f 8/4/1 4/4/1 7/4/1
f 9/3/1 7/3/1 6/3/1
f 10/3/1 7/3/1 9/3/1
f 11/3/1 7/3/1 10/3/1
f 12/3/1 7/3/1 11/3/1
f 13/1/1 10/1/1 9/1/1
f 14/1/1 10/1/1 13/1/1
f 15/1/1 12/1/1 11/1/1
f 16/1/1 12/1/1 15/1/1
f 17/2/1 14/2/1 13/2/1
f 18/2/1 14/2/1 17/2/1
f 19/2/1 16/2/1 15/2/1
f 20/2/1 16/2/1 19/2/1
f 25/2/1 22/2/1 21/2/1
f 26/2/1 22/2/1 25/2/1
f 27/2/1 24/2/1 23/2/1
f 28/2/1 24/2/1 27/2/1
f 33/2/1 30/2/1 29/2/1
f 34/2/1 30/2/1 33/2/1
f 35/2/1 32/2/1 31/2/1
f 36/2/1 32/2/1 35/2/1
f 41/2/1 38/2/1 37/2/1
f 42/2/1 38/2/1 41/2/1
f 43/2/1 40/2/1 39/2/1
f 44/2/1 40/2/1 43/2/1
f 49/2/1 46/2/1 45/2/1
f 50/2/1 46/2/1 49/2/1
f 51/2/1 48/2/1 47/2/1
f 52/2/1 48/2/1 51/2/1
f 55/3/1 54/3/1 53/3/1
f 56/3/1 54/3/1 55/3/1
f 61/5/1 58/5/1 57/5/1
f 62/3/1 59/3/1 58/3/1
f 62/5/1 58/5/1 61/5/1
f 63/5/1 60/5/1 59/5/1
f 63/3/1 59/3/1 62/3/1
f 64/5/1 60/5/1 63/5/1
f 65/3/1 63/3/1 62/3/1
f 66/3/1 63/3/1 65/3/1
f 71/2/1 68/2/1 67/2/1
f 72/2/1 68/2/1 71/2/1
f 73/2/1 70/2/1 69/2/1
f 74/2/1 70/2/1 73/2/1
f 79/2/1 76/2/1 75/2/1
f 80/2/1 76/2/1 79/2/1
f 81/2/1 78/2/1 77/2/1
f 82/2/1 78/2/1 81/2/1
f 87/2/1 84/2/1 83/2/1
f 88/2/1 84/2/1 87/2/1
f 89/2/1 86/2/1 85/2/1
f 90/2/1 86/2/1 89/2/1
f 91/2/2 92/2/2 95/2/2
f 95/2/2 92/2/2 96/2/2
f 93/2/2 94/2/2 97/2/2
f 97/2/2 94/2/2 98/2/2
f 99/2/2 100/2/2 103/2/2
f 103/2/2 100/2/2 104/2/2
f 101/2/2 102/2/2 105/2/2
f 105/2/2 102/2/2 106/2/2
f 107/2/2 108/2/2 111/2/2
f 111/2/2 108/2/2 112/2/2
f 109/2/2 110/2/2 113/2/2
f 113/2/2 110/2/2 114/2/2
f 115/5/2 116/5/2 119/5/2
f 116/3/2 117/3/2 120/3/2
f 119/5/2 116/5/2 120/5/2
f 117/5/2 118/5/2 121/5/2
f 120/3/2 117/3/2 121/3/2
f 121/5/2 118/5/2 122/5/2
f 120/3/2 121/3/2 123/3/2
f 123/3/2 121/3/2 124/3/2
f 125/3/2 126/3/2 127/3/2
f 127/3/2 126/3/2 128/3/2
f 129/2/2 130/2/2 133/2/2
f 133/2/2 130/2/2 134/2/2
f 131/2/2 132/2/2 135/2/2
f 135/2/2 132/2/2 136/2/2
f 137/2/2 138/2/2 141/2/2
f 141/2/2 138/2/2 142/2/2
f 139/2/2 140/2/2 143/2/2
f 143/2/2 140/2/2 144/2/2
f 145/2/2 146/2/2 149/2/2
f 149/2/2 146/2/2 150/2/2
f 147/2/2 148/2/2 151/2/2
f 151/2/2 148/2/2 152/2/2
f 153/2/2 154/2/2 157/2/2
f 157/2/2 154/2/2 158/2/2
f 155/2/2 156/2/2 159/2/2
f 159/2/2 156/2/2 160/2/2
f 161/2/2 162/2/2 165/2/2
f 165/2/2 162/2/2 166/2/2
f 163/2/2 164/2/2 167/2/2
f 167/2/2 164/2/2 168/2/2
f 169/4/2 170/4/2 173/4/2
f 170/3/2 171/3/2 174/3/2
f 173/4/2 170/4/2 174/4/2
f 171/4/2 172/4/2 175/4/2
f 174/3/2 171/3/2 175/3/2
f 175/4/2 172/4/2 176/4/2
f 174/3/2 175/3/2 177/3/2
f 177/3/2 175/3/2 178/3/2
f 178/3/2 175/3/2 179/3/2
f 179/3/2 175/3/2 180/3/2
f 177/1/2 178/1/2 181/1/2
f 181/1/2 178/1/2 182/1/2
f 179/1/2 180/1/2 183/1/2
f 183/1/2 180/1/2 184/1/2
f 187/4/3 186/4/3 185/4/3
f 188/4/3 186/4/3 187/4/3
f 193/1/3 191/1/3 190/1/3
f 193/2/3 192/2/3 191/2/3
f 194/2/3 192/2/3 193/2/3
f 195/1/3 193/1/3 190/1/3
f 197/1/3 195/1/3 190/1/3
f 197/2/3 196/2/3 195/2/3
f 198/2/3 196/2/3 197/2/3
f 199/1/3 197/1/3 190/1/3
f 201/3/3 190/3/3 189/3/3
f 202/3/3 190/3/3 201/3/3
f 203/2/3 200/2/3 199/2/3
f 203/1/3 199/1/3 190/1/3
f 204/2/3 200/2/3 203/2/3
f 205/5/3 202/5/3 201/5/3
f 206/5/3 202/5/3 205/5/3
f 207/3/3 190/3/3 202/3/3
f 207/5/3 202/5/3 206/5/3
f 208/3/3 190/3/3 207/3/3
f 209/1/3 203/1/3 190/1/3
f 211/3/3 190/3/3 208/3/3
f 211/5/3 207/5/3 206/5/3
f 211/5/3 208/5/3 207/5/3
f 212/1/3 209/1/3 190/1/3
f 212/3/3 190/3/3 211/3/3
f 213/2/3 210/2/3 209/2/3
f 213/1/3 209/1/3 212/1/3
f 214/2/3 210/2/3 213/2/3
f 215/1/3 213/1/3 212/1/3
f 217/5/3 212/5/3 211/5/3
f 217/5/3 211/5/3 206/5/3
f 218/1/3 215/1/3 212/1/3
f 218/5/3 212/5/3 217/5/3
f 219/2/3 216/2/3 215/2/3
f 219/1/3 215/1/3 218/1/3
f 220/2/3 216/2/3 219/2/3
f 222/5/3 217/5/3 206/5/3
f 223/5/3 217/5/3 222/5/3
f 224/3/3 218/3/3 217/3/3
f 224/5/3 217/5/3 223/5/3
f 225/1/3 219/1/3 218/1/3
f 227/5/3 223/5/3 222/5/3
f 227/5/3 222/5/3 221/5/3
f 228/3/3 224/3/3 223/3/3
f 228/5/3 223/5/3 227/5/3
f 229/2/3 226/2/3 225/2/3
f 229/1/3 225/1/3 218/1/3
f 230/2/3 226/2/3 229/2/3
f 231/1/3 229/1/3 218/1/3
f 233/1/3 231/1/3 218/1/3
f 233/2/3 232/2/3 231/2/3
f 234/2/3 232/2/3 233/2/3
f 235/1/3 233/1/3 218/1/3
f 237/1/3 235/1/3 218/1/3
f 237/2/3 236/2/3 235/2/3
f 238/2/3 236/2/3 237/2/3
f 239/3/3 228/3/3 227/3/3
f 240/3/3 224/3/3 228/3/3
f 240/3/3 228/3/3 239/3/3
f 240/3/3 218/3/3 224/3/3
f 240/1/3 237/1/3 218/1/3
f 241/1/3 237/1/3 240/1/3
f 245/1/3 243/1/3 242/1/3
f 245/2/3 244/2/3 243/2/3
f 246/2/3 244/2/3 245/2/3
f 247/1/3 245/1/3 242/1/3
f 249/1/3 247/1/3 242/1/3
f 249/2/3 248/2/3 247/2/3
f 250/2/3 248/2/3 249/2/3
f 251/1/3 249/1/3 242/1/3
f 253/1/3 251/1/3 242/1/3
f 253/2/3 252/2/3 251/2/3
f 254/2/3 252/2/3 253/2/3
f 257/1/3 253/1/3 242/1/3
f 259/5/3 256/5/3 255/5/3
f 261/2/3 258/2/3 257/2/3
f 261/1/3 257/1/3 242/1/3
f 262/2/3 258/2/3 261/2/3
f 263/1/3 261/1/3 242/1/3
f 265/5/3 260/5/3 259/5/3
f 265/5/3 259/5/3 255/5/3
f 266/5/3 260/5/3 265/5/3
f 267/2/3 264/2/3 263/2/3
f 267/1/3 263/1/3 242/1/3
f 268/2/3 264/2/3 267/2/3
f 269/5/3 265/5/3 255/5/3
f 270/5/3 265/5/3 269/5/3
f 271/1/3 267/1/3 242/1/3
f 273/2/3 272/2/3 271/2/3
f 273/1/3 271/1/3 242/1/3
f 274/2/3 272/2/3 273/2/3
f 275/1/3 273/1/3 242/1/3
f 277/1/3 275/1/3 242/1/3
f 277/2/3 276/2/3 275/2/3
f 278/2/3 276/2/3 277/2/3
f 279/1/3 277/1/3 242/1/3
f 281/1/3 279/1/3 242/1/3
f 281/2/3 280/2/3 279/2/3
f 282/2/3 280/2/3 281/2/3
f 283/1/3 281/1/3 242/1/3
f 284/1/3 281/1/3 283/1/3
f 285/1/4 286/1/4 288/1/4
f 286/2/4 287/2/4 288/2/4
f 288/2/4 287/2/4 289/2/4
f 285/1/4 288/1/4 290/1/4
f 285/1/4 290/1/4 292/1/4
f 290/2/4 291/2/4 292/2/4
f 292/2/4 291/2/4 293/2/4
f 285/1/4 292/1/4 294/1/4
f 285/1/4 294/1/4 296/1/4
f 294/2/4 295/2/4 296/2/4
f 296/2/4 295/2/4 297/2/4
f 285/1/4 296/1/4 300/1/4
f 298/5/4 299/5/4 302/5/4
f 300/2/4 301/2/4 304/2/4
f 285/1/4 300/1/4 304/1/4
f 304/2/4 301/2/4 305/2/4
f 285/1/4 304/1/4 306/1/4
f 302/5/4 303/5/4 308/5/4
f 298/5/4 302/5/4 308/5/4
f 308/5/4 303/5/4 309/5/4
f 306/2/4 307/2/4 310/2/4
f 285/1/4 306/1/4 310/1/4
f 310/2/4 307/2/4 311/2/4
f 298/5/4 308/5/4 312/5/4
f 312/5/4 308/5/4 313/5/4
f 285/1/4 310/1/4 314/1/4
f 314/2/4 315/2/4 316/2/4
f 285/1/4 314/1/4 316/1/4
f 316/2/4 315/2/4 317/2/4
f 285/1/4 316/1/4 318/1/4
f 285/1/4 318/1/4 320/1/4
f 318/2/4 319/2/4 320/2/4
f 320/2/4 319/2/4 321/2/4
f 285/1/4 320/1/4 322/1/4
f 285/1/4 322/1/4 324/1/4
f 322/2/4 323/2/4 324/2/4
f 324/2/4 323/2/4 325/2/4
f 285/1/4 324/1/4 326/1/4
f 326/1/4 324/1/4 327/1/4
f 329/1/4 330/1/4 332/1/4
f 330/2/4 331/2/4 332/2/4
f 332/2/4 331/2/4 333/2/4
f 329/1/4 332/1/4 334/1/4
f 329/1/4 334/1/4 336/1/4
f 334/2/4 335/2/4 336/2/4
f 336/2/4 335/2/4 337/2/4
f 329/1/4 336/1/4 338/1/4
f 328/3/4 329/3/4 340/3/4
f 340/3/4 329/3/4 341/3/4
f 338/2/4 339/2/4 342/2/4
f 329/1/4 338/1/4 342/1/4
f 342/2/4 339/2/4 343/2/4
f 340/5/4 341/5/4 344/5/4
f 344/5/4 341/5/4 345/5/4
f 341/3/4 329/3/4 346/3/4
f 345/5/4 341/5/4 346/5/4
f 346/3/4 329/3/4 347/3/4
f 329/1/4 342/1/4 348/1/4
f 347/3/4 329/3/4 350/3/4
f 345/5/4 346/5/4 350/5/4
f 346/5/4 347/5/4 350/5/4
f 329/1/4 348/1/4 351/1/4
f 350/3/4 329/3/4 351/3/4
f 348/2/4 349/2/4 352/2/4
f 351/1/4 348/1/4 352/1/4
f 352/2/4 349/2/4 353/2/4
f 351/1/4 352/1/4 354/1/4
f 350/5/4 351/5/4 356/5/4
f 345/5/4 350/5/4 356/5/4
f 351/1/4 354/1/4 357/1/4
f 356/5/4 351/5/4 357/5/4
f 354/2/4 355/2/4 358/2/4
f 357/1/4 354/1/4 358/1/4
f 358/2/4 355/2/4 359/2/4
f 345/5/4 356/5/4 361/5/4
f 361/5/4 356/5/4 362/5/4
f 356/3/4 357/3/4 363/3/4
f 362/5/4 356/5/4 363/5/4
f 357/1/4 358/1/4 364/1/4
f 361/5/4 362/5/4 366/5/4
f 360/5/4 361/5/4 366/5/4
f 362/3/4 363/3/4 367/3/4
f 366/5/4 362/5/4 367/5/4
f 364/2/4 365/2/4 368/2/4
f 357/1/4 364/1/4 368/1/4
f 368/2/4 365/2/4 369/2/4
f 357/1/4 368/1/4 370/1/4
f 357/1/4 370/1/4 372/1/4
f 370/2/4 371/2/4 372/2/4
f 372/2/4 371/2/4 373/2/4
f 357/1/4 372/1/4 374/1/4
f 357/1/4 374/1/4 376/1/4
f 374/2/4 375/2/4 376/2/4
f 376/2/4 375/2/4 377/2/4
f 366/3/4 367/3/4 378/3/4
f 367/3/4 363/3/4 379/3/4
f 378/3/4 367/3/4 379/3/4
f 363/3/4 357/3/4 379/3/4
f 357/1/4 376/1/4 379/1/4
f 379/1/4 376/1/4 380/1/4
f 381/4/4 382/4/4 383/4/4
f 383/4/4 382/4/4 384/4/4
f 387/4/5 386/4/5 385/4/5
f 388/4/5 386/4/5 387/4/5
f 389/3/5 388/3/5 387/3/5
f 390/3/5 388/3/5 389/3/5
f 391/4/5 390/4/5 389/4/5
f 392/4/5 390/4/5 391/4/5
f 395/5/5 394/5/5 393/5/5
f 396/5/5 394/5/5 395/5/5
f 399/5/5 398/5/5 397/5/5
f 400/5/5 398/5/5 399/5/5
f 405/3/5 402/3/5 401/3/5
f 406/3/5 402/3/5 405/3/5
f 407/3/5 404/3/5 403/3/5
f 408/3/5 404/3/5 407/3/5
f 411/3/5 410/3/5 409/3/5
f 412/3/5 410/3/5 411/3/5
f 413/4/6 414/4/6 415/4/6
f 415/4/6 414/4/6 416/4/6
f 416/4/6 414/4/6 417/4/6
f 417/4/6 414/4/6 418/4/6
f 418/4/6 414/4/6 419/4/6
f 419/4/6 414/4/6 420/4/6
f 417/3/6 418/3/6 421/3/6
f 421/3/6 418/3/6 422/3/6
f 421/3/6 422/3/6 423/3/6
f 423/3/6 422/3/6 424/3/6
f 423/3/6 424/3/6 427/3/6
f 427/3/6 424/3/6 428/3/6
f 427/4/6 428/4/6 431/4/6
f 429/4/6 430/4/6 431/4/6
f 428/4/6 429/4/6 431/4/6
f 425/4/6 426/4/6 431/4/6
f 426/4/6 427/4/6 431/4/6
f 431/4/6 430/4/6 432/4/6
f 433/3/6 434/3/6 435/3/6
f 435/3/6 434/3/6 436/3/6
f 437/1/6 438/1/6 453/1/6
f 453/1/6 438/1/6 454/1/6
f 439/1/6 440/1/6 455/1/6
f 455/1/6 440/1/6 456/1/6
f 441/1/6 442/1/6 457/1/6
f 457/1/6 442/1/6 458/1/6
f 443/1/6 444/1/6 459/1/6
f 459/1/6 444/1/6 460/1/6
f 445/1/6 446/1/6 461/1/6
f 461/1/6 446/1/6 462/1/6
f 447/1/6 448/1/6 463/1/6
f 463/1/6 448/1/6 464/1/6
f 449/1/6 450/1/6 465/1/6
f 465/1/6 450/1/6 466/1/6
f 451/1/6 452/1/6 467/1/6
f 467/1/6 452/1/6 468/1/6
f 469/1/6 470/1/6 485/1/6
f 485/1/6 470/1/6 486/1/6
f 471/1/6 472/1/6 487/1/6
f 487/1/6 472/1/6 488/1/6
f 473/1/6 474/1/6 489/1/6
f 489/1/6 474/1/6 490/1/6
f 475/1/6 476/1/6 491/1/6
f 491/1/6 476/1/6 492/1/6
f 477/1/6 478/1/6 493/1/6
f 493/1/6 478/1/6 494/1/6
f 479/1/6 480/1/6 495/1/6
f 495/1/6 480/1/6 496/1/6
f 481/1/6 482/1/6 497/1/6
f 497/1/6 482/1/6 498/1/6
f 483/1/6 484/1/6 499/1/6
f 499/1/6 484/1/6 500/1/6
f 501/2/6 502/2/6 517/2/6
f 517/2/6 502/2/6 518/2/6
f 503/2/6 504/2/6 519/2/6
f 519/2/6 504/2/6 520/2/6
f 505/2/6 506/2/6 521/2/6
f 521/2/6 506/2/6 522/2/6
f 507/2/6 508/2/6 523/2/6
f 523/2/6 508/2/6 524/2/6
f 509/2/6 510/2/6 525/2/6
f 525/2/6 510/2/6 526/2/6
f 511/2/6 512/2/6 527/2/6
f 527/2/6 512/2/6 528/2/6
f 513/2/6 514/2/6 529/2/6
f 529/2/6 514/2/6 530/2/6
f 515/2/6 516/2/6 531/2/6
f 531/2/6 516/2/6 532/2/6
f 533/2/6 534/2/6 549/2/6
f 549/2/6 534/2/6 550/2/6
f 535/2/6 536/2/6 551/2/6
f 551/2/6 536/2/6 552/2/6
f 537/2/6 538/2/6 553/2/6
f 553/2/6 538/2/6 554/2/6
f 539/2/6 540/2/6 555/2/6
f 555/2/6 540/2/6 556/2/6
f 541/2/6 542/2/6 557/2/6
f 557/2/6 542/2/6 558/2/6
f 543/2/6 544/2/6 559/2/6
f 559/2/6 544/2/6 560/2/6
f 545/2/6 546/2/6 561/2/6
f 561/2/6 546/2/6 562/2/6
f 547/2/6 548/2/6 563/2/6
f 563/2/6 548/2/6 564/2/6
