# MagicaVoxel @ Ephtracy

# group
g WallStraight1

# material
mtllib WallStraight1.mtl
usemtl palette

# normals
vn -1 0 0
vn 1 0 0
vn 0 0 1
vn 0 0 -1
vn 0 -1 0
vn 0 1 0

# texcoords
vt 0.853516 0.5
vt 0.978516 0.5
vt 0.986328 0.5
vt 0.990234 0.5

# verts
v -8 0 5
v -8 0 4
v -8 0 -4
v -8 0 -5
v -8 1 5
v -8 1 4
v -8 1 -4
v -8 1 -5
v -8 8 4
v -8 8 3
v -8 8 -3
v -8 8 -4
v -8 9 4
v -8 9 3
v -8 9 -3
v -8 9 -4
v -8 10 4
v -8 10 3
v -8 10 -3
v -8 10 -4
v -6 9 4
v -6 9 3
v -6 9 -3
v -6 9 -4
v -6 10 4
v -6 10 3
v -6 10 -3
v -6 10 -4
v -4 9 4
v -4 9 3
v -4 9 -3
v -4 9 -4
v -4 10 4
v -4 10 3
v -4 10 -3
v -4 10 -4
v -2 9 4
v -2 9 3
v -2 9 -3
v -2 9 -4
v -2 10 4
v -2 10 3
v -2 10 -3
v -2 10 -4
v 0 9 4
v 0 9 3
v 0 9 -3
v 0 9 -4
v 0 10 4
v 0 10 3
v 0 10 -3
v 0 10 -4
v 2 9 4
v 2 9 3
v 2 9 -3
v 2 9 -4
v 2 10 4
v 2 10 3
v 2 10 -3
v 2 10 -4
v 4 9 4
v 4 9 3
v 4 9 -3
v 4 9 -4
v 4 10 4
v 4 10 3
v 4 10 -3
v 4 10 -4
v 6 9 4
v 6 9 3
v 6 9 -3
v 6 9 -4
v 6 10 4
v 6 10 3
v 6 10 -3
v 6 10 -4
v -7 9 4
v -7 9 3
v -7 9 -3
v -7 9 -4
v -7 10 4
v -7 10 3
v -7 10 -3
v -7 10 -4
v -5 9 4
v -5 9 3
v -5 9 -3
v -5 9 -4
v -5 10 4
v -5 10 3
v -5 10 -3
v -5 10 -4
v -3 9 4
v -3 9 3
v -3 9 -3
v -3 9 -4
v -3 10 4
v -3 10 3
v -3 10 -3
v -3 10 -4
v -1 9 4
v -1 9 3
v -1 9 -3
v -1 9 -4
v -1 10 4
v -1 10 3
v -1 10 -3
v -1 10 -4
v 1 9 4
v 1 9 3
v 1 9 -3
v 1 9 -4
v 1 10 4
v 1 10 3
v 1 10 -3
v 1 10 -4
v 3 9 4
v 3 9 3
v 3 9 -3
v 3 9 -4
v 3 10 4
v 3 10 3
v 3 10 -3
v 3 10 -4
v 5 9 4
v 5 9 3
v 5 9 -3
v 5 9 -4
v 5 10 4
v 5 10 3
v 5 10 -3
v 5 10 -4
v 7 9 4
v 7 9 3
v 7 9 -3
v 7 9 -4
v 7 10 4
v 7 10 3
v 7 10 -3
v 7 10 -4
v 8 0 5
v 8 0 4
v 8 0 -4
v 8 0 -5
v 8 1 5
v 8 1 4
v 8 1 -4
v 8 1 -5
v 8 8 4
v 8 8 3
v 8 8 -3
v 8 8 -4
v 8 9 4
v 8 9 3
v 8 9 -3
v 8 9 -4
v -8 0 5
v -8 1 5
v 8 0 5
v 8 1 5
v -8 1 4
v -8 8 4
v -8 9 4
v -8 10 4
v -7 9 4
v -7 10 4
v -6 9 4
v -6 10 4
v -5 9 4
v -5 10 4
v -4 9 4
v -4 10 4
v -3 9 4
v -3 10 4
v -2 9 4
v -2 10 4
v -1 9 4
v -1 10 4
v 0 9 4
v 0 10 4
v 1 9 4
v 1 10 4
v 2 9 4
v 2 10 4
v 3 9 4
v 3 10 4
v 4 9 4
v 4 10 4
v 5 9 4
v 5 10 4
v 6 9 4
v 6 10 4
v 7 9 4
v 7 10 4
v 8 1 4
v 8 8 4
v 8 9 4
v -8 8 -3
v -8 9 -3
v -8 10 -3
v -7 9 -3
v -7 10 -3
v -6 9 -3
v -6 10 -3
v -5 9 -3
v -5 10 -3
v -4 9 -3
v -4 10 -3
v -3 9 -3
v -3 10 -3
v -2 9 -3
v -2 10 -3
v -1 9 -3
v -1 10 -3
v 0 9 -3
v 0 10 -3
v 1 9 -3
v 1 10 -3
v 2 9 -3
v 2 10 -3
v 3 9 -3
v 3 10 -3
v 4 9 -3
v 4 10 -3
v 5 9 -3
v 5 10 -3
v 6 9 -3
v 6 10 -3
v 7 9 -3
v 7 10 -3
v 8 8 -3
v 8 9 -3
v -8 8 3
v -8 9 3
v -8 10 3
v -7 9 3
v -7 10 3
v -6 9 3
v -6 10 3
v -5 9 3
v -5 10 3
v -4 9 3
v -4 10 3
v -3 9 3
v -3 10 3
v -2 9 3
v -2 10 3
v -1 9 3
v -1 10 3
v 0 9 3
v 0 10 3
v 1 9 3
v 1 10 3
v 2 9 3
v 2 10 3
v 3 9 3
v 3 10 3
v 4 9 3
v 4 10 3
v 5 9 3
v 5 10 3
v 6 9 3
v 6 10 3
v 7 9 3
v 7 10 3
v 8 8 3
v 8 9 3
v -8 1 -4
v -8 8 -4
v -8 9 -4
v -8 10 -4
v -7 9 -4
v -7 10 -4
v -6 9 -4
v -6 10 -4
v -5 9 -4
v -5 10 -4
v -4 9 -4
v -4 10 -4
v -3 9 -4
v -3 10 -4
v -2 9 -4
v -2 10 -4
v -1 9 -4
v -1 10 -4
v 0 9 -4
v 0 10 -4
v 1 9 -4
v 1 10 -4
v 2 9 -4
v 2 10 -4
v 3 9 -4
v 3 10 -4
v 4 9 -4
v 4 10 -4
v 5 9 -4
v 5 10 -4
v 6 9 -4
v 6 10 -4
v 7 9 -4
v 7 10 -4
v 8 1 -4
v 8 8 -4
v 8 9 -4
v -8 0 -5
v -8 1 -5
v 8 0 -5
v 8 1 -5
v -8 0 5
v 8 0 5
v -8 0 4
v 8 0 4
v -8 0 -4
v 8 0 -4
v -8 0 -5
v 8 0 -5
v -8 1 5
v 8 1 5
v -8 1 4
v 8 1 4
v -8 1 -4
v 8 1 -4
v -8 1 -5
v 8 1 -5
v -8 8 3
v 8 8 3
v -8 8 -3
v 8 8 -3
v -7 9 4
v -6 9 4
v -5 9 4
v -4 9 4
v -3 9 4
v -2 9 4
v -1 9 4
v 0 9 4
v 1 9 4
v 2 9 4
v 3 9 4
v 4 9 4
v 5 9 4
v 6 9 4
v 7 9 4
v 8 9 4
v -7 9 3
v -6 9 3
v -5 9 3
v -4 9 3
v -3 9 3
v -2 9 3
v -1 9 3
v 0 9 3
v 1 9 3
v 2 9 3
v 3 9 3
v 4 9 3
v 5 9 3
v 6 9 3
v 7 9 3
v 8 9 3
v -7 9 -3
v -6 9 -3
v -5 9 -3
v -4 9 -3
v -3 9 -3
v -2 9 -3
v -1 9 -3
v 0 9 -3
v 1 9 -3
v 2 9 -3
v 3 9 -3
v 4 9 -3
v 5 9 -3
v 6 9 -3
v 7 9 -3
v 8 9 -3
v -7 9 -4
v -6 9 -4
v -5 9 -4
v -4 9 -4
v -3 9 -4
v -2 9 -4
v -1 9 -4
v 0 9 -4
v 1 9 -4
v 2 9 -4
v 3 9 -4
v 4 9 -4
v 5 9 -4
v 6 9 -4
v 7 9 -4
v 8 9 -4
v -8 10 4
v -7 10 4
v -6 10 4
v -5 10 4
v -4 10 4
v -3 10 4
v -2 10 4
v -1 10 4
v 0 10 4
v 1 10 4
v 2 10 4
v 3 10 4
v 4 10 4
v 5 10 4
v 6 10 4
v 7 10 4
v -8 10 3
v -7 10 3
v -6 10 3
v -5 10 3
v -4 10 3
v -3 10 3
v -2 10 3
v -1 10 3
v 0 10 3
v 1 10 3
v 2 10 3
v 3 10 3
v 4 10 3
v 5 10 3
v 6 10 3
v 7 10 3
v -8 10 -3
v -7 10 -3
v -6 10 -3
v -5 10 -3
v -4 10 -3
v -3 10 -3
v -2 10 -3
v -1 10 -3
v 0 10 -3
v 1 10 -3
v 2 10 -3
v 3 10 -3
v 4 10 -3
v 5 10 -3
v 6 10 -3
v 7 10 -3
v -8 10 -4
v -7 10 -4
v -6 10 -4
v -5 10 -4
v -4 10 -4
v -3 10 -4
v -2 10 -4
v -1 10 -4
v 0 10 -4
v 1 10 -4
v 2 10 -4
v 3 10 -4
v 4 10 -4
v 5 10 -4
v 6 10 -4
v 7 10 -4

# faces
f 5/4/1 2/4/1 1/4/1
f 6/3/1 3/3/1 2/3/1
f 6/4/1 2/4/1 5/4/1
f 7/4/1 4/4/1 3/4/1
f 7/3/1 3/3/1 6/3/1
f 8/4/1 4/4/1 7/4/1
f 9/3/1 7/3/1 6/3/1
f 10/3/1 7/3/1 9/3/1
f 11/3/1 7/3/1 10/3/1
f 12/3/1 7/3/1 11/3/1
f 13/1/1 10/1/1 9/1/1
f 14/1/1 10/1/1 13/1/1
f 15/1/1 12/1/1 11/1/1
f 16/1/1 12/1/1 15/1/1
f 17/2/1 14/2/1 13/2/1
f 18/2/1 14/2/1 17/2/1
f 19/2/1 16/2/1 15/2/1
f 20/2/1 16/2/1 19/2/1
f 25/2/1 22/2/1 21/2/1
f 26/2/1 22/2/1 25/2/1
f 27/2/1 24/2/1 23/2/1
f 28/2/1 24/2/1 27/2/1
f 33/2/1 30/2/1 29/2/1
f 34/2/1 30/2/1 33/2/1
f 35/2/1 32/2/1 31/2/1
f 36/2/1 32/2/1 35/2/1
f 41/2/1 38/2/1 37/2/1
f 42/2/1 38/2/1 41/2/1
f 43/2/1 40/2/1 39/2/1
f 44/2/1 40/2/1 43/2/1
f 49/2/1 46/2/1 45/2/1
f 50/2/1 46/2/1 49/2/1
f 51/2/1 48/2/1 47/2/1
f 52/2/1 48/2/1 51/2/1
f 57/2/1 54/2/1 53/2/1
f 58/2/1 54/2/1 57/2/1
f 59/2/1 56/2/1 55/2/1
f 60/2/1 56/2/1 59/2/1
f 65/2/1 62/2/1 61/2/1
f 66/2/1 62/2/1 65/2/1
f 67/2/1 64/2/1 63/2/1
f 68/2/1 64/2/1 67/2/1
f 73/2/1 70/2/1 69/2/1
f 74/2/1 70/2/1 73/2/1
f 75/2/1 72/2/1 71/2/1
f 76/2/1 72/2/1 75/2/1
f 77/2/2 78/2/2 81/2/2
f 81/2/2 78/2/2 82/2/2
f 79/2/2 80/2/2 83/2/2
f 83/2/2 80/2/2 84/2/2
f 85/2/2 86/2/2 89/2/2
f 89/2/2 86/2/2 90/2/2
f 87/2/2 88/2/2 91/2/2
f 91/2/2 88/2/2 92/2/2
f 93/2/2 94/2/2 97/2/2
f 97/2/2 94/2/2 98/2/2
f 95/2/2 96/2/2 99/2/2
f 99/2/2 96/2/2 100/2/2
f 101/2/2 102/2/2 105/2/2
f 105/2/2 102/2/2 106/2/2
f 103/2/2 104/2/2 107/2/2
f 107/2/2 104/2/2 108/2/2
f 109/2/2 110/2/2 113/2/2
f 113/2/2 110/2/2 114/2/2
f 111/2/2 112/2/2 115/2/2
f 115/2/2 112/2/2 116/2/2
f 117/2/2 118/2/2 121/2/2
f 121/2/2 118/2/2 122/2/2
f 119/2/2 120/2/2 123/2/2
f 123/2/2 120/2/2 124/2/2
f 125/2/2 126/2/2 129/2/2
f 129/2/2 126/2/2 130/2/2
f 127/2/2 128/2/2 131/2/2
f 131/2/2 128/2/2 132/2/2
f 133/2/2 134/2/2 137/2/2
f 137/2/2 134/2/2 138/2/2
f 135/2/2 136/2/2 139/2/2
f 139/2/2 136/2/2 140/2/2
f 141/4/2 142/4/2 145/4/2
f 142/3/2 143/3/2 146/3/2
f 145/4/2 142/4/2 146/4/2
f 143/4/2 144/4/2 147/4/2
f 146/3/2 143/3/2 147/3/2
f 147/4/2 144/4/2 148/4/2
f 146/3/2 147/3/2 149/3/2
f 149/3/2 147/3/2 150/3/2
f 150/3/2 147/3/2 151/3/2
f 151/3/2 147/3/2 152/3/2
f 149/1/2 150/1/2 153/1/2
f 153/1/2 150/1/2 154/1/2
f 151/1/2 152/1/2 155/1/2
f 155/1/2 152/1/2 156/1/2
f 159/4/3 158/4/3 157/4/3
f 160/4/3 158/4/3 159/4/3
f 165/1/3 163/1/3 162/1/3
f 165/2/3 164/2/3 163/2/3
f 166/2/3 164/2/3 165/2/3
f 167/1/3 165/1/3 162/1/3
f 169/1/3 167/1/3 162/1/3
f 169/2/3 168/2/3 167/2/3
f 170/2/3 168/2/3 169/2/3
f 171/1/3 169/1/3 162/1/3
f 173/1/3 171/1/3 162/1/3
f 173/2/3 172/2/3 171/2/3
f 174/2/3 172/2/3 173/2/3
f 175/1/3 173/1/3 162/1/3
f 177/1/3 175/1/3 162/1/3
f 177/2/3 176/2/3 175/2/3
f 178/2/3 176/2/3 177/2/3
f 179/1/3 177/1/3 162/1/3
f 181/1/3 179/1/3 162/1/3
f 181/2/3 180/2/3 179/2/3
f 182/2/3 180/2/3 181/2/3
f 183/1/3 181/1/3 162/1/3
f 185/1/3 183/1/3 162/1/3
f 185/2/3 184/2/3 183/2/3
f 186/2/3 184/2/3 185/2/3
f 187/1/3 185/1/3 162/1/3
f 189/1/3 187/1/3 162/1/3
f 189/2/3 188/2/3 187/2/3
f 190/2/3 188/2/3 189/2/3
f 191/1/3 189/1/3 162/1/3
f 193/1/3 191/1/3 162/1/3
f 193/2/3 192/2/3 191/2/3
f 194/2/3 192/2/3 193/2/3
f 195/3/3 162/3/3 161/3/3
f 196/1/3 193/1/3 162/1/3
f 196/3/3 162/3/3 195/3/3
f 197/1/3 193/1/3 196/1/3
f 201/1/3 199/1/3 198/1/3
f 201/2/3 200/2/3 199/2/3
f 202/2/3 200/2/3 201/2/3
f 203/1/3 201/1/3 198/1/3
f 205/1/3 203/1/3 198/1/3
f 205/2/3 204/2/3 203/2/3
f 206/2/3 204/2/3 205/2/3
f 207/1/3 205/1/3 198/1/3
f 209/1/3 207/1/3 198/1/3
f 209/2/3 208/2/3 207/2/3
f 210/2/3 208/2/3 209/2/3
f 211/1/3 209/1/3 198/1/3
f 213/1/3 211/1/3 198/1/3
f 213/2/3 212/2/3 211/2/3
f 214/2/3 212/2/3 213/2/3
f 215/1/3 213/1/3 198/1/3
f 217/1/3 215/1/3 198/1/3
f 217/2/3 216/2/3 215/2/3
f 218/2/3 216/2/3 217/2/3
f 219/1/3 217/1/3 198/1/3
f 221/1/3 219/1/3 198/1/3
f 221/2/3 220/2/3 219/2/3
f 222/2/3 220/2/3 221/2/3
f 223/1/3 221/1/3 198/1/3
f 225/1/3 223/1/3 198/1/3
f 225/2/3 224/2/3 223/2/3
f 226/2/3 224/2/3 225/2/3
f 227/1/3 225/1/3 198/1/3
f 229/1/3 227/1/3 198/1/3
f 229/2/3 228/2/3 227/2/3
f 230/2/3 228/2/3 229/2/3
f 231/1/3 229/1/3 198/1/3
f 232/1/3 229/1/3 231/1/3
f 233/1/4 234/1/4 236/1/4
f 234/2/4 235/2/4 236/2/4
f 236/2/4 235/2/4 237/2/4
f 233/1/4 236/1/4 238/1/4
f 233/1/4 238/1/4 240/1/4
f 238/2/4 239/2/4 240/2/4
f 240/2/4 239/2/4 241/2/4
f 233/1/4 240/1/4 242/1/4
f 233/1/4 242/1/4 244/1/4
f 242/2/4 243/2/4 244/2/4
f 244/2/4 243/2/4 245/2/4
f 233/1/4 244/1/4 246/1/4
f 233/1/4 246/1/4 248/1/4
f 246/2/4 247/2/4 248/2/4
f 248/2/4 247/2/4 249/2/4
f 233/1/4 248/1/4 250/1/4
f 233/1/4 250/1/4 252/1/4
f 250/2/4 251/2/4 252/2/4
f 252/2/4 251/2/4 253/2/4
f 233/1/4 252/1/4 254/1/4
f 233/1/4 254/1/4 256/1/4
f 254/2/4 255/2/4 256/2/4
f 256/2/4 255/2/4 257/2/4
f 233/1/4 256/1/4 258/1/4
f 233/1/4 258/1/4 260/1/4
f 258/2/4 259/2/4 260/2/4
f 260/2/4 259/2/4 261/2/4
f 233/1/4 260/1/4 262/1/4
f 233/1/4 262/1/4 264/1/4
f 262/2/4 263/2/4 264/2/4
f 264/2/4 263/2/4 265/2/4
f 233/1/4 264/1/4 266/1/4
f 266/1/4 264/1/4 267/1/4
f 269/1/4 270/1/4 272/1/4
f 270/2/4 271/2/4 272/2/4
f 272/2/4 271/2/4 273/2/4
f 269/1/4 272/1/4 274/1/4
f 269/1/4 274/1/4 276/1/4
f 274/2/4 275/2/4 276/2/4
f 276/2/4 275/2/4 277/2/4
f 269/1/4 276/1/4 278/1/4
f 269/1/4 278/1/4 280/1/4
f 278/2/4 279/2/4 280/2/4
f 280/2/4 279/2/4 281/2/4
f 269/1/4 280/1/4 282/1/4
f 269/1/4 282/1/4 284/1/4
f 282/2/4 283/2/4 284/2/4
f 284/2/4 283/2/4 285/2/4
f 269/1/4 284/1/4 286/1/4
f 269/1/4 286/1/4 288/1/4
f 286/2/4 287/2/4 288/2/4
f 288/2/4 287/2/4 289/2/4
f 269/1/4 288/1/4 290/1/4
f 269/1/4 290/1/4 292/1/4
f 290/2/4 291/2/4 292/2/4
f 292/2/4 291/2/4 293/2/4
f 269/1/4 292/1/4 294/1/4
f 269/1/4 294/1/4 296/1/4
f 294/2/4 295/2/4 296/2/4
f 296/2/4 295/2/4 297/2/4
f 269/1/4 296/1/4 298/1/4
f 269/1/4 298/1/4 300/1/4
f 298/2/4 299/2/4 300/2/4
f 300/2/4 299/2/4 301/2/4
f 268/3/4 269/3/4 302/3/4
f 269/1/4 300/1/4 303/1/4
f 302/3/4 269/3/4 303/3/4
f 303/1/4 300/1/4 304/1/4
f 305/4/4 306/4/4 307/4/4
f 307/4/4 306/4/4 308/4/4
f 311/4/5 310/4/5 309/4/5
f 312/4/5 310/4/5 311/4/5
f 313/3/5 312/3/5 311/3/5
f 314/3/5 312/3/5 313/3/5
f 315/4/5 314/4/5 313/4/5
f 316/4/5 314/4/5 315/4/5
f 317/4/6 318/4/6 319/4/6
f 319/4/6 318/4/6 320/4/6
f 321/4/6 322/4/6 323/4/6
f 323/4/6 322/4/6 324/4/6
f 325/3/6 326/3/6 327/3/6
f 327/3/6 326/3/6 328/3/6
f 329/1/6 330/1/6 345/1/6
f 345/1/6 330/1/6 346/1/6
f 331/1/6 332/1/6 347/1/6
f 347/1/6 332/1/6 348/1/6
f 333/1/6 334/1/6 349/1/6
f 349/1/6 334/1/6 350/1/6
f 335/1/6 336/1/6 351/1/6
f 351/1/6 336/1/6 352/1/6
f 337/1/6 338/1/6 353/1/6
f 353/1/6 338/1/6 354/1/6
f 339/1/6 340/1/6 355/1/6
f 355/1/6 340/1/6 356/1/6
f 341/1/6 342/1/6 357/1/6
f 357/1/6 342/1/6 358/1/6
f 343/1/6 344/1/6 359/1/6
f 359/1/6 344/1/6 360/1/6
f 361/1/6 362/1/6 377/1/6
f 377/1/6 362/1/6 378/1/6
f 363/1/6 364/1/6 379/1/6
f 379/1/6 364/1/6 380/1/6
f 365/1/6 366/1/6 381/1/6
f 381/1/6 366/1/6 382/1/6
f 367/1/6 368/1/6 383/1/6
f 383/1/6 368/1/6 384/1/6
f 369/1/6 370/1/6 385/1/6
f 385/1/6 370/1/6 386/1/6
f 371/1/6 372/1/6 387/1/6
f 387/1/6 372/1/6 388/1/6
f 373/1/6 374/1/6 389/1/6
f 389/1/6 374/1/6 390/1/6
f 375/1/6 376/1/6 391/1/6
f 391/1/6 376/1/6 392/1/6
f 393/2/6 394/2/6 409/2/6
f 409/2/6 394/2/6 410/2/6
f 395/2/6 396/2/6 411/2/6
f 411/2/6 396/2/6 412/2/6
f 397/2/6 398/2/6 413/2/6
f 413/2/6 398/2/6 414/2/6
f 399/2/6 400/2/6 415/2/6
f 415/2/6 400/2/6 416/2/6
f 401/2/6 402/2/6 417/2/6
f 417/2/6 402/2/6 418/2/6
f 403/2/6 404/2/6 419/2/6
f 419/2/6 404/2/6 420/2/6
f 405/2/6 406/2/6 421/2/6
f 421/2/6 406/2/6 422/2/6
f 407/2/6 408/2/6 423/2/6
f 423/2/6 408/2/6 424/2/6
f 425/2/6 426/2/6 441/2/6
f 441/2/6 426/2/6 442/2/6
f 427/2/6 428/2/6 443/2/6
f 443/2/6 428/2/6 444/2/6
f 429/2/6 430/2/6 445/2/6
f 445/2/6 430/2/6 446/2/6
f 431/2/6 432/2/6 447/2/6
f 447/2/6 432/2/6 448/2/6
f 433/2/6 434/2/6 449/2/6
f 449/2/6 434/2/6 450/2/6
f 435/2/6 436/2/6 451/2/6
f 451/2/6 436/2/6 452/2/6
f 437/2/6 438/2/6 453/2/6
f 453/2/6 438/2/6 454/2/6
f 439/2/6 440/2/6 455/2/6
f 455/2/6 440/2/6 456/2/6
