# MagicaVoxel @ Ephtracy

# group
g WallCurved_Tall

# material
mtllib WallCurved_Tall.mtl
usemtl palette

# normals
vn -1 0 0
vn 1 0 0
vn 0 0 1
vn 0 0 -1
vn 0 -1 0
vn 0 1 0

# texcoords
vt 0.853516 0.5
vt 0.978516 0.5
vt 0.982422 0.5
vt 0.986328 0.5
vt 0.990234 0.5

# verts
v -7 0 7
v -7 0 -5
v -7 1 7
v -7 1 -5
v -7 6 7
v -7 6 5
v -7 6 4
v -7 6 2
v -7 6 1
v -7 6 -1
v -7 6 -2
v -7 6 -4
v -7 7 6
v -7 7 5
v -7 7 4
v -7 7 2
v -7 7 1
v -7 7 -1
v -7 7 -2
v -7 7 -3
v -7 8 7
v -7 8 6
v -7 8 -3
v -7 8 -4
v -6 1 6
v -6 1 -4
v -6 6 6
v -6 6 5
v -6 6 4
v -6 6 2
v -6 6 1
v -6 6 -1
v -6 6 -2
v -6 6 -4
v -6 7 5
v -6 7 4
v -6 7 2
v -6 7 1
v -6 7 -1
v -6 7 -2
v -5 0 -5
v -5 0 -8
v -5 1 -5
v -5 1 -8
v -5 7 5
v -5 7 -4
v -5 9 3
v -5 9 -2
v -5 10 3
v -5 10 -2
v -5 11 5
v -5 11 -4
v -5 12 5
v -5 12 -4
v -4 1 -4
v -4 1 -8
v -4 6 7
v -4 6 6
v -4 6 -4
v -4 7 7
v -4 7 6
v -4 7 -4
v -4 8 -4
v -4 8 -8
v -4 9 -4
v -4 9 -8
v -4 12 4
v -4 12 -4
v -4 14 4
v -4 14 -4
v -4 15 4
v -4 15 -4
v -3 15 3
v -3 15 -4
v -3 16 3
v -3 16 -4
v -1 6 7
v -1 6 6
v -1 7 7
v -1 7 6
v 1 8 -2
v 1 8 -3
v 1 10 -2
v 1 10 -3
v 2 6 7
v 2 6 6
v 2 7 7
v 2 7 6
v 2 8 -3
v 2 8 -4
v 2 9 5
v 2 9 4
v 2 10 5
v 2 10 4
v 2 10 -3
v 2 10 -4
v 3 7 7
v 3 7 6
v 3 8 7
v 3 8 6
v 3 8 4
v 3 8 1
v 3 8 -1
v 3 8 -2
v 3 8 -4
v 3 8 -8
v 3 9 -4
v 3 9 -8
v 3 10 4
v 3 10 1
v 3 10 -1
v 3 10 -2
v -6 7 7
v -6 7 6
v -6 7 -3
v -6 7 -4
v -6 8 7
v -6 8 6
v -6 8 -3
v -6 8 -4
v -5 6 7
v -5 6 6
v -5 7 7
v -5 7 6
v -4 8 4
v -4 8 -2
v -4 9 3
v -4 9 -2
v -4 10 4
v -4 10 3
v -3 8 -4
v -3 8 -8
v -3 9 5
v -3 9 4
v -3 9 -4
v -3 9 -8
v -3 10 5
v -3 10 4
v -2 6 7
v -2 6 6
v -2 7 7
v -2 7 6
v -2 8 -3
v -2 8 -4
v -2 10 -3
v -2 10 -4
v -1 8 -2
v -1 8 -3
v -1 10 -2
v -1 10 -3
v 1 6 7
v 1 6 6
v 1 7 7
v 1 7 6
v 4 1 6
v 4 1 4
v 4 1 -4
v 4 1 -8
v 4 6 7
v 4 6 6
v 4 6 4
v 4 7 6
v 4 7 5
v 4 7 4
v 4 8 7
v 4 8 6
v 4 8 4
v 4 8 3
v 4 8 1
v 4 8 -1
v 4 8 -3
v 4 8 -4
v 4 8 -8
v 4 9 4
v 4 9 3
v 4 9 -3
v 4 9 -4
v 4 9 -8
v 4 10 1
v 4 10 -1
v 4 11 5
v 4 11 -4
v 4 12 5
v 4 12 4
v 4 12 -4
v 4 14 4
v 4 14 -4
v 4 15 4
v 4 15 3
v 4 15 -4
v 4 16 3
v 4 16 -4
v 5 0 7
v 5 0 5
v 5 0 -5
v 5 0 -8
v 5 1 7
v 5 1 5
v 5 1 -5
v 5 1 -8
v 8 0 5
v 8 0 4
v 8 0 -4
v 8 0 -5
v 8 1 5
v 8 1 4
v 8 1 -4
v 8 1 -5
v 8 8 4
v 8 8 3
v 8 8 -3
v 8 8 -4
v 8 9 4
v 8 9 3
v 8 9 -3
v 8 9 -4
v -7 0 7
v -7 1 7
v -7 6 7
v -7 8 7
v -6 7 7
v -6 8 7
v -5 6 7
v -5 7 7
v -4 6 7
v -4 7 7
v -2 6 7
v -2 7 7
v -1 6 7
v -1 7 7
v 1 6 7
v 1 7 7
v 2 6 7
v 2 7 7
v 3 7 7
v 3 8 7
v 4 6 7
v 4 8 7
v 5 0 7
v 5 1 7
v -6 1 6
v -6 6 6
v -5 6 6
v -5 7 6
v -4 6 6
v -4 7 6
v -2 6 6
v -2 7 6
v -1 6 6
v -1 7 6
v 1 6 6
v 1 7 6
v 2 6 6
v 2 7 6
v 4 1 6
v 4 6 6
v -5 7 5
v -5 11 5
v -5 12 5
v -3 9 5
v -3 10 5
v 2 9 5
v 2 10 5
v 4 7 5
v 4 11 5
v 4 12 5
v 5 0 5
v 5 1 5
v 8 0 5
v 8 1 5
v -7 6 4
v -7 7 4
v -6 6 4
v -6 7 4
v -4 12 4
v -4 14 4
v -4 15 4
v 4 1 4
v 4 6 4
v 4 7 4
v 4 8 4
v 4 9 4
v 4 12 4
v 4 14 4
v 4 15 4
v 8 1 4
v 8 8 4
v 8 9 4
v -3 15 3
v -3 16 3
v 4 15 3
v 4 16 3
v -7 6 1
v -7 7 1
v -6 6 1
v -6 7 1
v 3 8 -1
v 3 10 -1
v 4 8 -1
v 4 10 -1
v -7 6 -2
v -7 7 -2
v -6 6 -2
v -6 7 -2
v -5 9 -2
v -5 10 -2
v -4 8 -2
v -4 9 -2
v -4 10 -2
v -1 8 -2
v -1 10 -2
v 1 8 -2
v 1 10 -2
v 3 8 -2
v 3 10 -2
v -7 7 -3
v -7 8 -3
v -6 7 -3
v -6 8 -3
v 4 8 -3
v 4 9 -3
v 8 8 -3
v 8 9 -3
v -7 7 6
v -7 8 6
v -6 7 6
v -6 8 6
v 3 7 6
v 3 8 6
v 4 7 6
v 4 8 6
v -7 6 5
v -7 7 5
v -6 6 5
v -6 7 5
v -4 8 4
v -4 10 4
v -3 9 4
v -3 10 4
v 2 9 4
v 2 10 4
v 3 8 4
v 3 10 4
v -5 9 3
v -5 10 3
v -4 9 3
v -4 10 3
v 4 8 3
v 4 9 3
v 8 8 3
v 8 9 3
v -7 6 2
v -7 7 2
v -6 6 2
v -6 7 2
v 3 8 1
v 3 10 1
v 4 8 1
v 4 10 1
v -7 6 -1
v -7 7 -1
v -6 6 -1
v -6 7 -1
v -2 8 -3
v -2 10 -3
v -1 8 -3
v -1 10 -3
v 1 8 -3
v 1 10 -3
v 2 8 -3
v 2 10 -3
v -7 6 -4
v -7 8 -4
v -6 1 -4
v -6 6 -4
v -6 7 -4
v -6 8 -4
v -5 7 -4
v -5 11 -4
v -5 12 -4
v -4 1 -4
v -4 6 -4
v -4 7 -4
v -4 8 -4
v -4 9 -4
v -4 12 -4
v -4 14 -4
v -4 15 -4
v -3 8 -4
v -3 9 -4
v -3 15 -4
v -3 16 -4
v -2 8 -4
v -2 10 -4
v 2 8 -4
v 2 10 -4
v 3 8 -4
v 3 9 -4
v 4 1 -4
v 4 8 -4
v 4 9 -4
v 4 11 -4
v 4 12 -4
v 4 14 -4
v 4 15 -4
v 4 16 -4
v 8 1 -4
v 8 8 -4
v 8 9 -4
v -7 0 -5
v -7 1 -5
v -5 0 -5
v -5 1 -5
v 5 0 -5
v 5 1 -5
v 8 0 -5
v 8 1 -5
v -5 0 -8
v -5 1 -8
v -4 1 -8
v -4 8 -8
v -4 9 -8
v -3 8 -8
v -3 9 -8
v 3 8 -8
v 3 9 -8
v 4 1 -8
v 4 8 -8
v 4 9 -8
v 5 0 -8
v 5 1 -8
v -7 0 7
v 5 0 7
v 5 0 5
v 8 0 5
v -4 0 4
v 8 0 4
v -4 0 -4
v 8 0 -4
v -7 0 -5
v -5 0 -5
v 5 0 -5
v 8 0 -5
v -5 0 -8
v 5 0 -8
v -7 6 7
v -5 6 7
v -4 6 7
v -2 6 7
v -1 6 7
v 1 6 7
v 2 6 7
v 4 6 7
v -6 6 6
v -5 6 6
v -4 6 6
v -2 6 6
v -1 6 6
v 1 6 6
v 2 6 6
v 4 6 6
v -7 6 5
v -6 6 5
v -7 6 4
v -6 6 4
v -7 6 2
v -6 6 2
v -7 6 1
v -6 6 1
v -7 6 -1
v -6 6 -1
v -7 6 -2
v -6 6 -2
v -7 6 -4
v -6 6 -4
v -3 10 5
v 2 10 5
v -4 10 4
v -3 10 4
v 2 10 4
v 3 10 4
v -5 10 3
v -4 10 3
v 3 10 1
v 4 10 1
v 3 10 -1
v 4 10 -1
v -5 10 -2
v -4 10 -2
v -1 10 -2
v 1 10 -2
v 3 10 -2
v -2 10 -3
v -1 10 -3
v 1 10 -3
v 2 10 -3
v -2 10 -4
v 2 10 -4
v -7 1 7
v 5 1 7
v -6 1 6
v 4 1 6
v 5 1 5
v 8 1 5
v 4 1 4
v 8 1 4
v -6 1 -4
v -4 1 -4
v 4 1 -4
v 8 1 -4
v -7 1 -5
v -5 1 -5
v 5 1 -5
v 8 1 -5
v -5 1 -8
v -4 1 -8
v 4 1 -8
v 5 1 -8
v -6 7 7
v -5 7 7
v -4 7 7
v -2 7 7
v -1 7 7
v 1 7 7
v 2 7 7
v 3 7 7
v -7 7 6
v -6 7 6
v -5 7 6
v -4 7 6
v -2 7 6
v -1 7 6
v 1 7 6
v 2 7 6
v 3 7 6
v 4 7 6
v -7 7 5
v -6 7 5
v -5 7 5
v 4 7 5
v -7 7 4
v -6 7 4
v -7 7 2
v -6 7 2
v -7 7 1
v -6 7 1
v -7 7 -1
v -6 7 -1
v -7 7 -2
v -6 7 -2
v -7 7 -3
v -6 7 -3
v -6 7 -4
v -5 7 -4
v -7 8 7
v -6 8 7
v 3 8 7
v 4 8 7
v -7 8 6
v -6 8 6
v 3 8 6
v 4 8 6
v -4 8 4
v 3 8 4
v 4 8 3
v 8 8 3
v 3 8 1
v 4 8 1
v 3 8 -1
v 4 8 -1
v -4 8 -2
v -1 8 -2
v 1 8 -2
v 3 8 -2
v -7 8 -3
v -6 8 -3
v -2 8 -3
v -1 8 -3
v 1 8 -3
v 2 8 -3
v 4 8 -3
v 8 8 -3
v -7 8 -4
v -6 8 -4
v -3 8 -4
v -2 8 -4
v 2 8 -4
v 3 8 -4
v -3 8 -8
v 3 8 -8
v -3 9 5
v 2 9 5
v -3 9 4
v 2 9 4
v 4 9 4
v 8 9 4
v -5 9 3
v -4 9 3
v 4 9 3
v 8 9 3
v -5 9 -2
v -4 9 -2
v 4 9 -3
v 8 9 -3
v -4 9 -4
v -3 9 -4
v 3 9 -4
v 4 9 -4
v 8 9 -4
v -4 9 -8
v -3 9 -8
v 3 9 -8
v 4 9 -8
v -5 12 5
v 4 12 5
v -4 12 4
v 4 12 4
v -5 12 -4
v -4 12 -4
v -4 15 4
v 4 15 4
v -3 15 3
v 4 15 3
v -4 15 -4
v -3 15 -4
v -3 16 3
v 4 16 3
v -2 16 2
v 3 16 2
v -2 16 -3
v 3 16 -3
v -3 16 -4
v 4 16 -4

# faces
f 3/5/1 2/5/1 1/5/1
f 4/5/1 2/5/1 3/5/1
f 13/2/1 6/2/1 5/2/1
f 14/2/1 6/2/1 13/2/1
f 15/2/1 8/2/1 7/2/1
f 16/2/1 8/2/1 15/2/1
f 17/2/1 10/2/1 9/2/1
f 18/2/1 10/2/1 17/2/1
f 19/2/1 12/2/1 11/2/1
f 20/2/1 12/2/1 19/2/1
f 21/2/1 13/2/1 5/2/1
f 22/2/1 13/2/1 21/2/1
f 23/2/1 12/2/1 20/2/1
f 24/2/1 12/2/1 23/2/1
f 27/4/1 26/4/1 25/4/1
f 28/4/1 26/4/1 27/4/1
f 29/4/1 26/4/1 28/4/1
f 30/4/1 26/4/1 29/4/1
f 31/4/1 26/4/1 30/4/1
f 32/4/1 26/4/1 31/4/1
f 33/4/1 26/4/1 32/4/1
f 34/4/1 26/4/1 33/4/1
f 35/2/1 29/2/1 28/2/1
f 36/2/1 29/2/1 35/2/1
f 37/2/1 31/2/1 30/2/1
f 38/2/1 31/2/1 37/2/1
f 39/2/1 33/2/1 32/2/1
f 40/2/1 33/2/1 39/2/1
f 43/5/1 42/5/1 41/5/1
f 44/5/1 42/5/1 43/5/1
f 47/4/1 46/4/1 45/4/1
f 48/4/1 46/4/1 47/4/1
f 49/4/1 47/4/1 45/4/1
f 50/4/1 46/4/1 48/4/1
f 51/4/1 49/4/1 45/4/1
f 51/4/1 50/4/1 49/4/1
f 52/4/1 46/4/1 50/4/1
f 52/4/1 50/4/1 51/4/1
f 53/2/1 52/2/1 51/2/1
f 54/2/1 52/2/1 53/2/1
f 59/4/1 56/4/1 55/4/1
f 60/2/1 58/2/1 57/2/1
f 61/2/1 58/2/1 60/2/1
f 62/4/1 56/4/1 59/4/1
f 63/4/1 56/4/1 62/4/1
f 64/4/1 56/4/1 63/4/1
f 65/1/1 64/1/1 63/1/1
f 66/1/1 64/1/1 65/1/1
f 69/4/1 68/4/1 67/4/1
f 70/4/1 68/4/1 69/4/1
f 71/2/1 70/2/1 69/2/1
f 72/2/1 70/2/1 71/2/1
f 75/4/1 74/4/1 73/4/1
f 76/4/1 74/4/1 75/4/1
f 79/2/1 78/2/1 77/2/1
f 80/2/1 78/2/1 79/2/1
f 83/4/1 82/4/1 81/4/1
f 84/4/1 82/4/1 83/4/1
f 87/2/1 86/2/1 85/2/1
f 88/2/1 86/2/1 87/2/1
f 93/4/1 92/4/1 91/4/1
f 94/4/1 92/4/1 93/4/1
f 95/4/1 90/4/1 89/4/1
f 96/4/1 90/4/1 95/4/1
f 99/2/1 98/2/1 97/2/1
f 100/2/1 98/2/1 99/2/1
f 107/1/1 106/1/1 105/1/1
f 108/1/1 106/1/1 107/1/1
f 109/4/1 102/4/1 101/4/1
f 110/4/1 102/4/1 109/4/1
f 111/4/1 104/4/1 103/4/1
f 112/4/1 104/4/1 111/4/1
f 113/2/2 114/2/2 117/2/2
f 117/2/2 114/2/2 118/2/2
f 115/2/2 116/2/2 119/2/2
f 119/2/2 116/2/2 120/2/2
f 121/2/2 122/2/2 123/2/2
f 123/2/2 122/2/2 124/2/2
f 125/4/2 126/4/2 127/4/2
f 127/4/2 126/4/2 128/4/2
f 125/4/2 127/4/2 129/4/2
f 129/4/2 127/4/2 130/4/2
f 131/1/2 132/1/2 135/1/2
f 135/1/2 132/1/2 136/1/2
f 133/4/2 134/4/2 137/4/2
f 137/4/2 134/4/2 138/4/2
f 139/2/2 140/2/2 141/2/2
f 141/2/2 140/2/2 142/2/2
f 143/4/2 144/4/2 145/4/2
f 145/4/2 144/4/2 146/4/2
f 147/4/2 148/4/2 149/4/2
f 149/4/2 148/4/2 150/4/2
f 151/2/2 152/2/2 153/2/2
f 153/2/2 152/2/2 154/2/2
f 155/4/2 156/4/2 160/4/2
f 160/4/2 156/4/2 161/4/2
f 159/2/2 160/2/2 162/2/2
f 160/2/2 161/2/2 162/2/2
f 162/2/2 161/2/2 163/2/2
f 163/2/2 161/2/2 164/2/2
f 159/2/2 162/2/2 165/2/2
f 165/2/2 162/2/2 166/2/2
f 163/4/2 164/4/2 167/4/2
f 157/4/2 158/4/2 172/4/2
f 172/4/2 158/4/2 173/4/2
f 163/4/2 167/4/2 174/4/2
f 168/4/2 169/4/2 175/4/2
f 170/4/2 171/4/2 176/4/2
f 172/1/2 173/1/2 177/1/2
f 177/1/2 173/1/2 178/1/2
f 174/4/2 175/4/2 179/4/2
f 175/4/2 169/4/2 179/4/2
f 170/4/2 176/4/2 180/4/2
f 176/4/2 177/4/2 180/4/2
f 174/4/2 179/4/2 181/4/2
f 179/4/2 180/4/2 181/4/2
f 163/4/2 174/4/2 181/4/2
f 180/4/2 177/4/2 182/4/2
f 181/4/2 180/4/2 182/4/2
f 181/2/2 182/2/2 183/2/2
f 183/2/2 182/2/2 184/2/2
f 184/2/2 182/2/2 185/2/2
f 184/4/2 185/4/2 186/4/2
f 186/4/2 185/4/2 187/4/2
f 186/2/2 187/2/2 188/2/2
f 188/2/2 187/2/2 189/2/2
f 189/2/2 187/2/2 190/2/2
f 189/4/2 190/4/2 191/4/2
f 191/4/2 190/4/2 192/4/2
f 193/5/2 194/5/2 197/5/2
f 197/5/2 194/5/2 198/5/2
f 195/5/2 196/5/2 199/5/2
f 199/5/2 196/5/2 200/5/2
f 201/5/2 202/5/2 205/5/2
f 202/4/2 203/4/2 206/4/2
f 205/5/2 202/5/2 206/5/2
f 203/5/2 204/5/2 207/5/2
f 206/4/2 203/4/2 207/4/2
f 207/5/2 204/5/2 208/5/2
f 206/4/2 207/4/2 209/4/2
f 209/4/2 207/4/2 210/4/2
f 210/4/2 207/4/2 211/4/2
f 211/4/2 207/4/2 212/4/2
f 209/1/2 210/1/2 213/1/2
f 213/1/2 210/1/2 214/1/2
f 211/1/2 212/1/2 215/1/2
f 215/1/2 212/1/2 216/1/2
f 221/2/3 220/2/3 219/2/3
f 222/2/3 220/2/3 221/2/3
f 223/2/3 221/2/3 219/2/3
f 224/2/3 221/2/3 223/2/3
f 227/2/3 226/2/3 225/2/3
f 228/2/3 226/2/3 227/2/3
f 231/2/3 230/2/3 229/2/3
f 232/2/3 230/2/3 231/2/3
f 235/2/3 234/2/3 233/2/3
f 237/2/3 235/2/3 233/2/3
f 237/2/3 236/2/3 235/2/3
f 238/2/3 236/2/3 237/2/3
f 239/5/3 218/5/3 217/5/3
f 240/5/3 218/5/3 239/5/3
f 243/4/3 242/4/3 241/4/3
f 245/4/3 243/4/3 241/4/3
f 245/2/3 244/2/3 243/2/3
f 246/2/3 244/2/3 245/2/3
f 247/4/3 245/4/3 241/4/3
f 249/4/3 247/4/3 241/4/3
f 249/2/3 248/2/3 247/2/3
f 250/2/3 248/2/3 249/2/3
f 251/4/3 249/4/3 241/4/3
f 253/4/3 251/4/3 241/4/3
f 253/2/3 252/2/3 251/2/3
f 254/2/3 252/2/3 253/2/3
f 255/4/3 253/4/3 241/4/3
f 256/4/3 253/4/3 255/4/3
f 260/4/3 258/4/3 257/4/3
f 261/4/3 258/4/3 260/4/3
f 262/4/3 260/4/3 257/4/3
f 263/4/3 258/4/3 261/4/3
f 264/4/3 262/4/3 257/4/3
f 264/4/3 263/4/3 262/4/3
f 265/2/3 259/2/3 258/2/3
f 265/4/3 263/4/3 264/4/3
f 265/4/3 258/4/3 263/4/3
f 266/2/3 259/2/3 265/2/3
f 269/5/3 268/5/3 267/5/3
f 270/5/3 268/5/3 269/5/3
f 273/2/3 272/2/3 271/2/3
f 274/2/3 272/2/3 273/2/3
f 283/4/3 276/4/3 275/4/3
f 284/2/3 277/2/3 276/2/3
f 284/4/3 276/4/3 283/4/3
f 285/2/3 277/2/3 284/2/3
f 286/4/3 279/4/3 278/4/3
f 286/4/3 280/4/3 279/4/3
f 286/4/3 281/4/3 280/4/3
f 287/1/3 282/1/3 281/1/3
f 287/4/3 281/4/3 286/4/3
f 288/1/3 282/1/3 287/1/3
f 291/4/3 290/4/3 289/4/3
f 292/4/3 290/4/3 291/4/3
f 295/2/3 294/2/3 293/2/3
f 296/2/3 294/2/3 295/2/3
f 299/4/3 298/4/3 297/4/3
f 300/4/3 298/4/3 299/4/3
f 303/2/3 302/2/3 301/2/3
f 304/2/3 302/2/3 303/2/3
f 308/4/3 306/4/3 305/4/3
f 309/4/3 306/4/3 308/4/3
f 310/4/3 308/4/3 307/4/3
f 310/4/3 309/4/3 308/4/3
f 311/4/3 309/4/3 310/4/3
f 314/4/3 313/4/3 312/4/3
f 315/4/3 313/4/3 314/4/3
f 318/2/3 317/2/3 316/2/3
f 319/2/3 317/2/3 318/2/3
f 322/1/3 321/1/3 320/1/3
f 323/1/3 321/1/3 322/1/3
f 324/2/4 325/2/4 326/2/4
f 326/2/4 325/2/4 327/2/4
f 328/2/4 329/2/4 330/2/4
f 330/2/4 329/2/4 331/2/4
f 332/2/4 333/2/4 334/2/4
f 334/2/4 333/2/4 335/2/4
f 336/4/4 337/4/4 338/4/4
f 338/4/4 337/4/4 339/4/4
f 336/4/4 338/4/4 340/4/4
f 336/4/4 340/4/4 342/4/4
f 340/4/4 341/4/4 342/4/4
f 342/4/4 341/4/4 343/4/4
f 344/4/4 345/4/4 346/4/4
f 346/4/4 345/4/4 347/4/4
f 348/1/4 349/1/4 350/1/4
f 350/1/4 349/1/4 351/1/4
f 352/2/4 353/2/4 354/2/4
f 354/2/4 353/2/4 355/2/4
f 356/4/4 357/4/4 358/4/4
f 358/4/4 357/4/4 359/4/4
f 360/2/4 361/2/4 362/2/4
f 362/2/4 361/2/4 363/2/4
f 364/4/4 365/4/4 366/4/4
f 366/4/4 365/4/4 367/4/4
f 368/4/4 369/4/4 370/4/4
f 370/4/4 369/4/4 371/4/4
f 372/2/4 373/2/4 375/2/4
f 375/2/4 373/2/4 376/2/4
f 376/2/4 373/2/4 377/2/4
f 375/2/4 376/2/4 378/2/4
f 374/4/4 375/4/4 381/4/4
f 375/2/4 378/2/4 382/2/4
f 381/4/4 375/4/4 382/4/4
f 378/4/4 379/4/4 383/4/4
f 382/2/4 378/2/4 383/2/4
f 383/4/4 379/4/4 384/4/4
f 384/4/4 379/4/4 385/4/4
f 379/2/4 380/2/4 386/2/4
f 385/4/4 379/4/4 390/4/4
f 387/2/4 388/2/4 391/2/4
f 389/4/4 390/4/4 393/4/4
f 390/4/4 379/4/4 394/4/4
f 393/4/4 390/4/4 394/4/4
f 394/4/4 379/4/4 396/4/4
f 395/4/4 396/4/4 397/4/4
f 397/4/4 396/4/4 398/4/4
f 398/4/4 396/4/4 401/4/4
f 379/2/4 386/2/4 402/2/4
f 396/4/4 379/4/4 402/4/4
f 401/4/4 396/4/4 402/4/4
f 386/4/4 387/4/4 403/4/4
f 402/2/4 386/2/4 403/2/4
f 387/2/4 391/2/4 404/2/4
f 403/4/4 387/4/4 404/4/4
f 391/4/4 392/4/4 405/4/4
f 404/2/4 391/2/4 405/2/4
f 405/4/4 392/4/4 406/4/4
f 399/4/4 400/4/4 407/4/4
f 400/1/4 401/1/4 408/1/4
f 407/4/4 400/4/4 408/4/4
f 408/1/4 401/1/4 409/1/4
f 410/5/4 411/5/4 412/5/4
f 412/5/4 411/5/4 413/5/4
f 414/5/4 415/5/4 416/5/4
f 416/5/4 415/5/4 417/5/4
f 418/5/4 419/5/4 420/5/4
f 420/4/4 421/4/4 423/4/4
f 421/1/4 422/1/4 423/1/4
f 423/1/4 422/1/4 424/1/4
f 420/4/4 423/4/4 425/4/4
f 418/5/4 420/5/4 427/5/4
f 420/4/4 425/4/4 427/4/4
f 425/1/4 426/1/4 428/1/4
f 427/4/4 425/4/4 428/4/4
f 428/1/4 426/1/4 429/1/4
f 418/5/4 427/5/4 430/5/4
f 430/5/4 427/5/4 431/5/4
f 434/5/5 433/5/5 432/5/5
f 436/5/5 434/5/5 432/5/5
f 436/5/5 435/5/5 434/5/5
f 437/5/5 435/5/5 436/5/5
f 438/5/5 436/5/5 432/5/5
f 438/4/5 437/4/5 436/4/5
f 439/4/5 437/4/5 438/4/5
f 440/5/5 438/5/5 432/5/5
f 440/5/5 439/5/5 438/5/5
f 441/5/5 439/5/5 440/5/5
f 442/5/5 439/5/5 441/5/5
f 443/5/5 439/5/5 442/5/5
f 444/5/5 442/5/5 441/5/5
f 445/5/5 442/5/5 444/5/5
f 454/2/5 447/2/5 446/2/5
f 455/2/5 447/2/5 454/2/5
f 456/2/5 449/2/5 448/2/5
f 457/2/5 449/2/5 456/2/5
f 458/2/5 451/2/5 450/2/5
f 459/2/5 451/2/5 458/2/5
f 460/2/5 453/2/5 452/2/5
f 461/2/5 453/2/5 460/2/5
f 462/2/5 454/2/5 446/2/5
f 463/2/5 454/2/5 462/2/5
f 466/2/5 465/2/5 464/2/5
f 467/2/5 465/2/5 466/2/5
f 470/2/5 469/2/5 468/2/5
f 471/2/5 469/2/5 470/2/5
f 474/2/5 473/2/5 472/2/5
f 475/2/5 473/2/5 474/2/5
f 479/4/5 477/4/5 476/4/5
f 480/4/5 477/4/5 479/4/5
f 483/2/5 479/2/5 478/2/5
f 483/2/5 481/2/5 480/2/5
f 483/2/5 480/2/5 479/2/5
f 484/2/5 481/2/5 483/2/5
f 486/2/5 484/2/5 483/2/5
f 486/4/5 485/4/5 484/4/5
f 487/4/5 485/4/5 486/4/5
f 488/4/5 483/4/5 482/4/5
f 489/2/5 486/2/5 483/2/5
f 489/4/5 483/4/5 488/4/5
f 490/2/5 486/2/5 489/2/5
f 491/2/5 486/2/5 490/2/5
f 492/2/5 486/2/5 491/2/5
f 494/2/5 491/2/5 490/2/5
f 495/2/5 491/2/5 494/2/5
f 497/4/5 494/4/5 493/4/5
f 497/4/5 496/4/5 495/4/5
f 497/4/5 495/4/5 494/4/5
f 498/4/5 496/4/5 497/4/5
f 499/5/6 500/5/6 501/5/6
f 501/5/6 500/5/6 502/5/6
f 502/5/6 500/5/6 503/5/6
f 502/5/6 503/5/6 505/5/6
f 503/5/6 504/5/6 505/5/6
f 505/5/6 504/5/6 506/5/6
f 499/5/6 501/5/6 507/5/6
f 499/5/6 507/5/6 511/5/6
f 507/5/6 508/5/6 511/5/6
f 511/5/6 508/5/6 512/5/6
f 509/5/6 510/5/6 513/5/6
f 513/5/6 510/5/6 514/5/6
f 512/5/6 508/5/6 515/5/6
f 515/5/6 508/5/6 516/5/6
f 509/5/6 513/5/6 517/5/6
f 517/5/6 513/5/6 518/5/6
f 519/2/6 520/2/6 528/2/6
f 528/2/6 520/2/6 529/2/6
f 521/2/6 522/2/6 530/2/6
f 530/2/6 522/2/6 531/2/6
f 523/2/6 524/2/6 532/2/6
f 532/2/6 524/2/6 533/2/6
f 525/2/6 526/2/6 534/2/6
f 534/2/6 526/2/6 535/2/6
f 532/2/6 533/2/6 537/2/6
f 535/2/6 536/2/6 537/2/6
f 534/2/6 535/2/6 537/2/6
f 533/2/6 534/2/6 537/2/6
f 528/2/6 529/2/6 537/2/6
f 531/2/6 532/2/6 537/2/6
f 530/2/6 531/2/6 537/2/6
f 529/2/6 530/2/6 537/2/6
f 527/2/6 528/2/6 537/2/6
f 537/2/6 536/2/6 538/2/6
f 538/2/6 536/2/6 539/2/6
f 539/2/6 536/2/6 540/2/6
f 538/2/6 539/2/6 542/2/6
f 541/2/6 542/2/6 543/2/6
f 542/2/6 539/2/6 544/2/6
f 543/2/6 542/2/6 544/2/6
f 544/2/6 539/2/6 546/2/6
f 545/2/6 546/2/6 547/2/6
f 546/2/6 539/2/6 548/2/6
f 547/2/6 546/2/6 548/2/6
f 548/2/6 539/2/6 550/2/6
f 549/2/6 550/2/6 551/2/6
f 550/2/6 539/2/6 552/2/6
f 551/2/6 550/2/6 552/2/6
f 552/2/6 539/2/6 553/2/6
f 553/2/6 539/2/6 554/2/6
f 555/2/6 556/2/6 559/2/6
f 559/2/6 556/2/6 560/2/6
f 557/2/6 558/2/6 561/2/6
f 561/2/6 558/2/6 562/2/6
f 563/4/6 564/4/6 567/4/6
f 565/4/6 566/4/6 568/4/6
f 563/4/6 567/4/6 569/4/6
f 567/4/6 568/4/6 569/4/6
f 568/4/6 566/4/6 570/4/6
f 569/4/6 568/4/6 570/4/6
f 563/4/6 569/4/6 571/4/6
f 571/4/6 569/4/6 572/4/6
f 572/4/6 569/4/6 573/4/6
f 573/4/6 569/4/6 574/4/6
f 572/4/6 573/4/6 578/4/6
f 578/4/6 573/4/6 579/4/6
f 570/4/6 566/4/6 581/4/6
f 581/4/6 566/4/6 582/4/6
f 575/2/6 576/2/6 583/2/6
f 583/2/6 576/2/6 584/2/6
f 579/4/6 580/4/6 586/4/6
f 578/4/6 579/4/6 586/4/6
f 577/4/6 578/4/6 586/4/6
f 586/4/6 580/4/6 587/4/6
f 587/4/6 588/4/6 589/4/6
f 586/4/6 587/4/6 589/4/6
f 585/4/6 586/4/6 589/4/6
f 589/4/6 588/4/6 590/4/6
f 591/4/6 592/4/6 593/4/6
f 593/4/6 592/4/6 594/4/6
f 595/1/6 596/1/6 599/1/6
f 599/1/6 596/1/6 600/1/6
f 597/4/6 598/4/6 601/4/6
f 601/4/6 598/4/6 602/4/6
f 603/1/6 604/1/6 608/1/6
f 608/1/6 604/1/6 609/1/6
f 605/1/6 606/1/6 610/1/6
f 610/1/6 606/1/6 611/1/6
f 607/1/6 608/1/6 612/1/6
f 612/1/6 608/1/6 613/1/6
f 614/2/6 615/2/6 616/2/6
f 616/2/6 615/2/6 617/2/6
f 614/2/6 616/2/6 618/2/6
f 618/2/6 616/2/6 619/2/6
f 620/2/6 621/2/6 622/2/6
f 622/2/6 621/2/6 623/2/6
f 620/2/6 622/2/6 624/2/6
f 624/2/6 622/2/6 625/2/6
f 626/4/6 627/4/6 628/4/6
f 628/4/6 627/4/6 629/4/6
f 626/4/6 628/4/6 630/4/6
f 628/2/6 629/2/6 630/2/6
f 629/4/6 627/4/6 631/4/6
f 630/2/6 629/2/6 631/2/6
f 626/4/6 630/4/6 632/4/6
f 630/4/6 631/4/6 632/4/6
f 631/4/6 627/4/6 633/4/6
f 632/4/6 631/4/6 633/4/6
