# MagicaVoxel @ Ephtracy

# group
g WallCurved_Middle

# material
mtllib WallCurved_Middle.mtl
usemtl palette

# normals
vn -1 0 0
vn 1 0 0
vn 0 0 1
vn 0 0 -1
vn 0 -1 0
vn 0 1 0

# texcoords
vt 0.978516 0.5
vt 0.986328 0.5

# verts
v -4 2 4
v -4 2 2
v -4 2 1
v -4 2 -0
v -4 2 -1
v -4 2 -2
v -4 2 -3
v -4 2 -4
v -4 3 4
v -4 3 2
v -4 3 1
v -4 3 -0
v -4 3 -1
v -4 3 -2
v -4 3 -3
v -4 3 -4
v -4 12 4
v -4 12 2
v -4 12 1
v -4 12 -0
v -4 12 -1
v -4 12 -2
v -4 12 -3
v -4 12 -5
v -4 13 4
v -4 13 2
v -4 13 1
v -4 13 -0
v -4 13 -1
v -4 13 -2
v -4 13 -3
v -4 13 -5
v -3 0 3
v -3 0 2
v -3 0 -3
v -3 0 -4
v -3 1 2
v -3 1 -3
v -3 2 3
v -3 2 2
v -3 2 1
v -3 2 -0
v -3 2 -1
v -3 2 -2
v -3 2 -3
v -3 2 -4
v -3 2 -5
v -3 3 3
v -3 3 2
v -3 3 1
v -3 3 -0
v -3 3 -1
v -3 3 -2
v -3 3 -3
v -3 3 -4
v -3 3 -5
v -3 12 3
v -3 12 2
v -3 12 1
v -3 12 -0
v -3 12 -1
v -3 12 -2
v -3 12 -3
v -3 12 -4
v -3 13 3
v -3 13 2
v -3 13 1
v -3 13 -0
v -3 13 -1
v -3 13 -2
v -3 13 -3
v -3 13 -4
v -3 14 2
v -3 14 -3
v -3 15 2
v -3 15 -3
v -3 16 3
v -3 16 -4
v -1 2 4
v -1 2 3
v -1 2 -4
v -1 2 -5
v -1 3 4
v -1 3 3
v -1 3 -4
v -1 3 -5
v -1 12 4
v -1 12 3
v -1 12 -4
v -1 12 -5
v -1 13 4
v -1 13 3
v -1 13 -4
v -1 13 -5
v 1 2 4
v 1 2 3
v 1 2 -4
v 1 2 -5
v 1 3 4
v 1 3 3
v 1 3 -4
v 1 3 -5
v 1 12 4
v 1 12 3
v 1 12 -4
v 1 12 -5
v 1 13 4
v 1 13 3
v 1 13 -4
v 1 13 -5
v 3 0 3
v 3 0 -4
v 3 1 3
v 3 1 2
v 3 1 -3
v 3 1 -4
v 3 2 4
v 3 2 3
v 3 2 2
v 3 2 -3
v 3 2 -4
v 3 2 -5
v 3 3 4
v 3 3 3
v 3 3 -4
v 3 3 -5
v 3 12 4
v 3 12 3
v 3 12 -4
v 3 12 -5
v 3 13 4
v 3 13 3
v 3 13 2
v 3 13 -3
v 3 13 -4
v 3 13 -5
v 3 14 3
v 3 14 2
v 3 14 -3
v 3 14 -4
v 3 15 3
v 3 15 2
v 3 15 -3
v 3 15 -4
v -2 0 3
v -2 0 2
v -2 0 -3
v -2 0 -4
v -2 1 3
v -2 1 2
v -2 1 -3
v -2 1 -4
v -2 2 4
v -2 2 3
v -2 2 2
v -2 2 -3
v -2 2 -4
v -2 2 -5
v -2 3 4
v -2 3 3
v -2 3 -4
v -2 3 -5
v -2 12 4
v -2 12 3
v -2 12 -4
v -2 12 -5
v -2 13 4
v -2 13 3
v -2 13 2
v -2 13 -3
v -2 13 -4
v -2 13 -5
v -2 14 3
v -2 14 2
v -2 14 -3
v -2 14 -4
v -2 15 3
v -2 15 2
v -2 15 -3
v -2 15 -4
v 0 2 4
v 0 2 3
v 0 2 -4
v 0 2 -5
v 0 3 4
v 0 3 3
v 0 3 -4
v 0 3 -5
v 0 12 4
v 0 12 3
v 0 12 -4
v 0 12 -5
v 0 13 4
v 0 13 3
v 0 13 -4
v 0 13 -5
v 2 2 4
v 2 2 3
v 2 2 -4
v 2 2 -5
v 2 3 4
v 2 3 3
v 2 3 -4
v 2 3 -5
v 2 12 4
v 2 12 3
v 2 12 -4
v 2 12 -5
v 2 13 4
v 2 13 3
v 2 13 -4
v 2 13 -5
v 4 0 3
v 4 0 -4
v 4 2 3
v 4 2 2
v 4 2 1
v 4 2 -0
v 4 2 -1
v 4 2 -2
v 4 2 -3
v 4 2 -4
v 4 3 3
v 4 3 2
v 4 3 1
v 4 3 -0
v 4 3 -1
v 4 3 -2
v 4 3 -3
v 4 3 -4
v 4 12 3
v 4 12 2
v 4 12 1
v 4 12 -0
v 4 12 -1
v 4 12 -2
v 4 12 -3
v 4 12 -4
v 4 13 3
v 4 13 2
v 4 13 1
v 4 13 -0
v 4 13 -1
v 4 13 -2
v 4 13 -3
v 4 13 -4
v 4 14 2
v 4 14 -3
v 4 15 2
v 4 15 -3
v 4 16 3
v 4 16 -4
v 5 2 4
v 5 2 2
v 5 2 1
v 5 2 -0
v 5 2 -1
v 5 2 -2
v 5 2 -3
v 5 2 -5
v 5 3 4
v 5 3 2
v 5 3 1
v 5 3 -0
v 5 3 -1
v 5 3 -2
v 5 3 -3
v 5 3 -5
v 5 12 4
v 5 12 2
v 5 12 1
v 5 12 -0
v 5 12 -1
v 5 12 -2
v 5 12 -3
v 5 12 -5
v 5 13 4
v 5 13 2
v 5 13 1
v 5 13 -0
v 5 13 -1
v 5 13 -2
v 5 13 -3
v 5 13 -5
v -4 2 4
v -4 3 4
v -4 12 4
v -4 13 4
v -2 2 4
v -2 3 4
v -2 12 4
v -2 13 4
v -1 2 4
v -1 3 4
v -1 12 4
v -1 13 4
v 0 2 4
v 0 3 4
v 0 12 4
v 0 13 4
v 1 2 4
v 1 3 4
v 1 12 4
v 1 13 4
v 2 2 4
v 2 3 4
v 2 12 4
v 2 13 4
v 3 2 4
v 3 3 4
v 3 12 4
v 3 13 4
v 5 2 4
v 5 3 4
v 5 12 4
v 5 13 4
v -3 0 3
v -3 2 3
v -3 3 3
v -3 12 3
v -3 13 3
v -3 16 3
v -2 0 3
v -2 1 3
v -2 2 3
v -2 3 3
v -2 12 3
v -2 13 3
v -2 14 3
v -2 15 3
v -1 2 3
v -1 3 3
v -1 12 3
v -1 13 3
v 0 2 3
v 0 3 3
v 0 12 3
v 0 13 3
v 1 2 3
v 1 3 3
v 1 12 3
v 1 13 3
v 2 2 3
v 2 3 3
v 2 12 3
v 2 13 3
v 3 0 3
v 3 1 3
v 3 2 3
v 3 3 3
v 3 12 3
v 3 13 3
v 3 14 3
v 3 15 3
v 4 0 3
v 4 2 3
v 4 3 3
v 4 12 3
v 4 13 3
v 4 16 3
v -4 2 1
v -4 3 1
v -4 12 1
v -4 13 1
v -3 2 1
v -3 3 1
v -3 12 1
v -3 13 1
v 4 2 1
v 4 3 1
v 4 12 1
v 4 13 1
v 5 2 1
v 5 3 1
v 5 12 1
v 5 13 1
v -4 2 -1
v -4 3 -1
v -4 12 -1
v -4 13 -1
v -3 2 -1
v -3 3 -1
v -3 12 -1
v -3 13 -1
v 4 2 -1
v 4 3 -1
v 4 12 -1
v 4 13 -1
v 5 2 -1
v 5 3 -1
v 5 12 -1
v 5 13 -1
v -4 2 -3
v -4 3 -3
v -4 12 -3
v -4 13 -3
v -3 0 -3
v -3 1 -3
v -3 2 -3
v -3 3 -3
v -3 12 -3
v -3 13 -3
v -3 14 -3
v -3 15 -3
v -2 0 -3
v -2 1 -3
v -2 2 -3
v -2 13 -3
v -2 14 -3
v -2 15 -3
v 3 1 -3
v 3 2 -3
v 3 13 -3
v 3 14 -3
v 3 15 -3
v 4 2 -3
v 4 3 -3
v 4 12 -3
v 4 13 -3
v 4 14 -3
v 4 15 -3
v 5 2 -3
v 5 3 -3
v 5 12 -3
v 5 13 -3
v -4 2 2
v -4 3 2
v -4 12 2
v -4 13 2
v -3 0 2
v -3 1 2
v -3 2 2
v -3 3 2
v -3 12 2
v -3 13 2
v -3 14 2
v -3 15 2
v -2 0 2
v -2 1 2
v -2 2 2
v -2 13 2
v -2 14 2
v -2 15 2
v 3 1 2
v 3 2 2
v 3 13 2
v 3 14 2
v 3 15 2
v 4 2 2
v 4 3 2
v 4 12 2
v 4 13 2
v 4 14 2
v 4 15 2
v 5 2 2
v 5 3 2
v 5 12 2
v 5 13 2
v -4 2 -0
v -4 3 -0
v -4 12 -0
v -4 13 -0
v -3 2 -0
v -3 3 -0
v -3 12 -0
v -3 13 -0
v 4 2 -0
v 4 3 -0
v 4 12 -0
v 4 13 -0
v 5 2 -0
v 5 3 -0
v 5 12 -0
v 5 13 -0
v -4 2 -2
v -4 3 -2
v -4 12 -2
v -4 13 -2
v -3 2 -2
v -3 3 -2
v -3 12 -2
v -3 13 -2
v 4 2 -2
v 4 3 -2
v 4 12 -2
v 4 13 -2
v 5 2 -2
v 5 3 -2
v 5 12 -2
v 5 13 -2
v -4 2 -4
v -4 3 -4
v -3 0 -4
v -3 2 -4
v -3 3 -4
v -3 12 -4
v -3 13 -4
v -3 16 -4
v -2 0 -4
v -2 1 -4
v -2 2 -4
v -2 3 -4
v -2 12 -4
v -2 13 -4
v -2 14 -4
v -2 15 -4
v -1 2 -4
v -1 3 -4
v -1 12 -4
v -1 13 -4
v 0 2 -4
v 0 3 -4
v 0 12 -4
v 0 13 -4
v 1 2 -4
v 1 3 -4
v 1 12 -4
v 1 13 -4
v 2 2 -4
v 2 3 -4
v 2 12 -4
v 2 13 -4
v 3 0 -4
v 3 1 -4
v 3 2 -4
v 3 3 -4
v 3 12 -4
v 3 13 -4
v 3 14 -4
v 3 15 -4
v 4 0 -4
v 4 2 -4
v 4 3 -4
v 4 12 -4
v 4 13 -4
v 4 16 -4
v -4 12 -5
v -4 13 -5
v -3 2 -5
v -3 3 -5
v -2 2 -5
v -2 3 -5
v -2 12 -5
v -2 13 -5
v -1 2 -5
v -1 3 -5
v -1 12 -5
v -1 13 -5
v 0 2 -5
v 0 3 -5
v 0 12 -5
v 0 13 -5
v 1 2 -5
v 1 3 -5
v 1 12 -5
v 1 13 -5
v 2 2 -5
v 2 3 -5
v 2 12 -5
v 2 13 -5
v 3 2 -5
v 3 3 -5
v 3 12 -5
v 3 13 -5
v 5 2 -5
v 5 3 -5
v 5 12 -5
v 5 13 -5
v -3 0 3
v -2 0 3
v 3 0 3
v 4 0 3
v -3 0 2
v -2 0 2
v -3 0 -3
v -2 0 -3
v -3 0 -4
v -2 0 -4
v 3 0 -4
v 4 0 -4
v -2 1 3
v 3 1 3
v -3 1 2
v -2 1 2
v 3 1 2
v -3 1 -3
v -2 1 -3
v 3 1 -3
v -2 1 -4
v 3 1 -4
v -4 2 4
v -2 2 4
v -1 2 4
v 0 2 4
v 1 2 4
v 2 2 4
v 3 2 4
v 5 2 4
v -3 2 3
v -2 2 3
v -1 2 3
v 0 2 3
v 1 2 3
v 2 2 3
v 3 2 3
v 4 2 3
v -4 2 2
v -3 2 2
v 4 2 2
v 5 2 2
v -4 2 1
v -3 2 1
v 4 2 1
v 5 2 1
v -4 2 -0
v -3 2 -0
v 4 2 -0
v 5 2 -0
v -4 2 -1
v -3 2 -1
v 4 2 -1
v 5 2 -1
v -4 2 -2
v -3 2 -2
v 4 2 -2
v 5 2 -2
v -4 2 -3
v -3 2 -3
v 4 2 -3
v 5 2 -3
v -4 2 -4
v -3 2 -4
v -2 2 -4
v -1 2 -4
v 0 2 -4
v 1 2 -4
v 2 2 -4
v 3 2 -4
v 4 2 -4
v -3 2 -5
v -2 2 -5
v -1 2 -5
v 0 2 -5
v 1 2 -5
v 2 2 -5
v 3 2 -5
v 5 2 -5
v -4 12 4
v -2 12 4
v -1 12 4
v 0 12 4
v 1 12 4
v 2 12 4
v 3 12 4
v 5 12 4
v -3 12 3
v -2 12 3
v -1 12 3
v 0 12 3
v 1 12 3
v 2 12 3
v 3 12 3
v 4 12 3
v -4 12 2
v -3 12 2
v 4 12 2
v 5 12 2
v -4 12 1
v -3 12 1
v 4 12 1
v 5 12 1
v -4 12 -0
v -3 12 -0
v 4 12 -0
v 5 12 -0
v -4 12 -1
v -3 12 -1
v 4 12 -1
v 5 12 -1
v -4 12 -2
v -3 12 -2
v 4 12 -2
v 5 12 -2
v -4 12 -3
v -3 12 -3
v 4 12 -3
v 5 12 -3
v -3 12 -4
v -2 12 -4
v -1 12 -4
v 0 12 -4
v 1 12 -4
v 2 12 -4
v 3 12 -4
v 4 12 -4
v -4 12 -5
v -2 12 -5
v -1 12 -5
v 0 12 -5
v 1 12 -5
v 2 12 -5
v 3 12 -5
v 5 12 -5
v -2 13 2
v 3 13 2
v -2 13 -3
v 3 13 -3
v -2 15 3
v 3 15 3
v -3 15 2
v -2 15 2
v 3 15 2
v 4 15 2
v -3 15 -3
v -2 15 -3
v 3 15 -3
v 4 15 -3
v -2 15 -4
v 3 15 -4
v -4 3 4
v -2 3 4
v -1 3 4
v 0 3 4
v 1 3 4
v 2 3 4
v 3 3 4
v 5 3 4
v -3 3 3
v -2 3 3
v -1 3 3
v 0 3 3
v 1 3 3
v 2 3 3
v 3 3 3
v 4 3 3
v -4 3 2
v -3 3 2
v 4 3 2
v 5 3 2
v -4 3 1
v -3 3 1
v 4 3 1
v 5 3 1
v -4 3 -0
v -3 3 -0
v 4 3 -0
v 5 3 -0
v -4 3 -1
v -3 3 -1
v 4 3 -1
v 5 3 -1
v -4 3 -2
v -3 3 -2
v 4 3 -2
v 5 3 -2
v -4 3 -3
v -3 3 -3
v 4 3 -3
v 5 3 -3
v -4 3 -4
v -3 3 -4
v -2 3 -4
v -1 3 -4
v 0 3 -4
v 1 3 -4
v 2 3 -4
v 3 3 -4
v 4 3 -4
v -3 3 -5
v -2 3 -5
v -1 3 -5
v 0 3 -5
v 1 3 -5
v 2 3 -5
v 3 3 -5
v 5 3 -5
v -4 13 4
v -2 13 4
v -1 13 4
v 0 13 4
v 1 13 4
v 2 13 4
v 3 13 4
v 5 13 4
v -3 13 3
v -2 13 3
v -1 13 3
v 0 13 3
v 1 13 3
v 2 13 3
v 3 13 3
v 4 13 3
v -4 13 2
v -3 13 2
v 4 13 2
v 5 13 2
v -4 13 1
v -3 13 1
v 4 13 1
v 5 13 1
v -4 13 -0
v -3 13 -0
v 4 13 -0
v 5 13 -0
v -4 13 -1
v -3 13 -1
v 4 13 -1
v 5 13 -1
v -4 13 -2
v -3 13 -2
v 4 13 -2
v 5 13 -2
v -4 13 -3
v -3 13 -3
v 4 13 -3
v 5 13 -3
v -3 13 -4
v -2 13 -4
v -1 13 -4
v 0 13 -4
v 1 13 -4
v 2 13 -4
v 3 13 -4
v 4 13 -4
v -4 13 -5
v -2 13 -5
v -1 13 -5
v 0 13 -5
v 1 13 -5
v 2 13 -5
v 3 13 -5
v 5 13 -5
v -2 14 3
v 3 14 3
v -3 14 2
v -2 14 2
v 3 14 2
v 4 14 2
v -3 14 -3
v -2 14 -3
v 3 14 -3
v 4 14 -3
v -2 14 -4
v 3 14 -4
v -3 16 3
v 4 16 3
v -3 16 -4
v 4 16 -4

# faces
f 9/1/1 2/1/1 1/1/1
f 10/1/1 2/1/1 9/1/1
f 11/1/1 4/1/1 3/1/1
f 12/1/1 4/1/1 11/1/1
f 13/1/1 6/1/1 5/1/1
f 14/1/1 6/1/1 13/1/1
f 15/1/1 8/1/1 7/1/1
f 16/1/1 8/1/1 15/1/1
f 25/1/1 18/1/1 17/1/1
f 26/1/1 18/1/1 25/1/1
f 27/1/1 20/1/1 19/1/1
f 28/1/1 20/1/1 27/1/1
f 29/1/1 22/1/1 21/1/1
f 30/1/1 22/1/1 29/1/1
f 31/1/1 24/1/1 23/1/1
f 32/1/1 24/1/1 31/1/1
f 37/2/1 34/2/1 33/2/1
f 38/2/1 36/2/1 35/2/1
f 39/2/1 37/2/1 33/2/1
f 39/2/1 38/2/1 37/2/1
f 40/2/1 38/2/1 39/2/1
f 41/2/1 38/2/1 40/2/1
f 42/2/1 38/2/1 41/2/1
f 43/2/1 38/2/1 42/2/1
f 44/2/1 38/2/1 43/2/1
f 45/2/1 36/2/1 38/2/1
f 45/2/1 38/2/1 44/2/1
f 46/2/1 36/2/1 45/2/1
f 49/1/1 41/1/1 40/1/1
f 50/1/1 41/1/1 49/1/1
f 51/1/1 43/1/1 42/1/1
f 52/1/1 43/1/1 51/1/1
f 53/1/1 45/1/1 44/1/1
f 54/1/1 45/1/1 53/1/1
f 55/1/1 47/1/1 46/1/1
f 56/1/1 47/1/1 55/1/1
f 57/1/1 54/1/1 53/1/1
f 57/1/1 52/1/1 51/1/1
f 57/1/1 55/1/1 54/1/1
f 57/1/1 50/1/1 49/1/1
f 57/1/1 53/1/1 52/1/1
f 57/1/1 49/1/1 48/1/1
f 57/1/1 51/1/1 50/1/1
f 58/1/1 55/1/1 57/1/1
f 59/1/1 55/1/1 58/1/1
f 60/1/1 55/1/1 59/1/1
f 61/1/1 55/1/1 60/1/1
f 62/1/1 55/1/1 61/1/1
f 63/1/1 55/1/1 62/1/1
f 64/1/1 55/1/1 63/1/1
f 66/1/1 59/1/1 58/1/1
f 67/1/1 59/1/1 66/1/1
f 68/1/1 61/1/1 60/1/1
f 69/1/1 61/1/1 68/1/1
f 70/1/1 63/1/1 62/1/1
f 71/1/1 63/1/1 70/1/1
f 73/1/1 67/1/1 66/1/1
f 73/1/1 72/1/1 71/1/1
f 73/1/1 71/1/1 70/1/1
f 73/1/1 70/1/1 69/1/1
f 73/1/1 69/1/1 68/1/1
f 73/1/1 68/1/1 67/1/1
f 73/1/1 66/1/1 65/1/1
f 74/1/1 72/1/1 73/1/1
f 75/1/1 73/1/1 65/1/1
f 76/1/1 72/1/1 74/1/1
f 77/1/1 75/1/1 65/1/1
f 77/1/1 76/1/1 75/1/1
f 78/1/1 72/1/1 76/1/1
f 78/1/1 76/1/1 77/1/1
f 83/1/1 80/1/1 79/1/1
f 84/1/1 80/1/1 83/1/1
f 85/1/1 82/1/1 81/1/1
f 86/1/1 82/1/1 85/1/1
f 91/1/1 88/1/1 87/1/1
f 92/1/1 88/1/1 91/1/1
f 93/1/1 90/1/1 89/1/1
f 94/1/1 90/1/1 93/1/1
f 99/1/1 96/1/1 95/1/1
f 100/1/1 96/1/1 99/1/1
f 101/1/1 98/1/1 97/1/1
f 102/1/1 98/1/1 101/1/1
f 107/1/1 104/1/1 103/1/1
f 108/1/1 104/1/1 107/1/1
f 109/1/1 106/1/1 105/1/1
f 110/1/1 106/1/1 109/1/1
f 113/2/1 112/2/1 111/2/1
f 114/2/1 112/2/1 113/2/1
f 115/2/1 112/2/1 114/2/1
f 116/2/1 112/2/1 115/2/1
f 119/2/1 115/2/1 114/2/1
f 120/2/1 115/2/1 119/2/1
f 123/1/1 118/1/1 117/1/1
f 124/1/1 118/1/1 123/1/1
f 125/1/1 122/1/1 121/1/1
f 126/1/1 122/1/1 125/1/1
f 131/1/1 128/1/1 127/1/1
f 132/1/1 128/1/1 131/1/1
f 133/1/1 120/1/1 119/1/1
f 134/1/1 120/1/1 133/1/1
f 135/1/1 130/1/1 129/1/1
f 136/1/1 130/1/1 135/1/1
f 141/1/1 138/1/1 137/1/1
f 142/1/1 138/1/1 141/1/1
f 143/1/1 140/1/1 139/1/1
f 144/1/1 140/1/1 143/1/1
f 145/2/2 146/2/2 149/2/2
f 149/2/2 146/2/2 150/2/2
f 147/2/2 148/2/2 151/2/2
f 151/2/2 148/2/2 152/2/2
f 150/2/2 151/2/2 155/2/2
f 155/2/2 151/2/2 156/2/2
f 153/1/2 154/1/2 159/1/2
f 159/1/2 154/1/2 160/1/2
f 157/1/2 158/1/2 161/1/2
f 161/1/2 158/1/2 162/1/2
f 163/1/2 164/1/2 167/1/2
f 167/1/2 164/1/2 168/1/2
f 155/1/2 156/1/2 169/1/2
f 169/1/2 156/1/2 170/1/2
f 165/1/2 166/1/2 171/1/2
f 171/1/2 166/1/2 172/1/2
f 173/1/2 174/1/2 177/1/2
f 177/1/2 174/1/2 178/1/2
f 175/1/2 176/1/2 179/1/2
f 179/1/2 176/1/2 180/1/2
f 181/1/2 182/1/2 185/1/2
f 185/1/2 182/1/2 186/1/2
f 183/1/2 184/1/2 187/1/2
f 187/1/2 184/1/2 188/1/2
f 189/1/2 190/1/2 193/1/2
f 193/1/2 190/1/2 194/1/2
f 191/1/2 192/1/2 195/1/2
f 195/1/2 192/1/2 196/1/2
f 197/1/2 198/1/2 201/1/2
f 201/1/2 198/1/2 202/1/2
f 199/1/2 200/1/2 203/1/2
f 203/1/2 200/1/2 204/1/2
f 205/1/2 206/1/2 209/1/2
f 209/1/2 206/1/2 210/1/2
f 207/1/2 208/1/2 211/1/2
f 211/1/2 208/1/2 212/1/2
f 213/2/2 214/2/2 215/2/2
f 215/2/2 214/2/2 216/2/2
f 216/2/2 214/2/2 217/2/2
f 217/2/2 214/2/2 218/2/2
f 218/2/2 214/2/2 219/2/2
f 219/2/2 214/2/2 220/2/2
f 220/2/2 214/2/2 221/2/2
f 221/2/2 214/2/2 222/2/2
f 216/1/2 217/1/2 224/1/2
f 224/1/2 217/1/2 225/1/2
f 218/1/2 219/1/2 226/1/2
f 226/1/2 219/1/2 227/1/2
f 220/1/2 221/1/2 228/1/2
f 228/1/2 221/1/2 229/1/2
f 224/1/2 225/1/2 231/1/2
f 229/1/2 230/1/2 231/1/2
f 228/1/2 229/1/2 231/1/2
f 227/1/2 228/1/2 231/1/2
f 226/1/2 227/1/2 231/1/2
f 225/1/2 226/1/2 231/1/2
f 223/1/2 224/1/2 231/1/2
f 231/1/2 230/1/2 232/1/2
f 232/1/2 230/1/2 233/1/2
f 233/1/2 230/1/2 234/1/2
f 234/1/2 230/1/2 235/1/2
f 235/1/2 230/1/2 236/1/2
f 236/1/2 230/1/2 237/1/2
f 237/1/2 230/1/2 238/1/2
f 232/1/2 233/1/2 240/1/2
f 240/1/2 233/1/2 241/1/2
f 234/1/2 235/1/2 242/1/2
f 242/1/2 235/1/2 243/1/2
f 236/1/2 237/1/2 244/1/2
f 244/1/2 237/1/2 245/1/2
f 240/1/2 241/1/2 247/1/2
f 245/1/2 246/1/2 247/1/2
f 244/1/2 245/1/2 247/1/2
f 243/1/2 244/1/2 247/1/2
f 242/1/2 243/1/2 247/1/2
f 241/1/2 242/1/2 247/1/2
f 239/1/2 240/1/2 247/1/2
f 247/1/2 246/1/2 248/1/2
f 239/1/2 247/1/2 249/1/2
f 248/1/2 246/1/2 250/1/2
f 239/1/2 249/1/2 251/1/2
f 249/1/2 250/1/2 251/1/2
f 250/1/2 246/1/2 252/1/2
f 251/1/2 250/1/2 252/1/2
f 253/1/2 254/1/2 261/1/2
f 261/1/2 254/1/2 262/1/2
f 255/1/2 256/1/2 263/1/2
f 263/1/2 256/1/2 264/1/2
f 257/1/2 258/1/2 265/1/2
f 265/1/2 258/1/2 266/1/2
f 259/1/2 260/1/2 267/1/2
f 267/1/2 260/1/2 268/1/2
f 269/1/2 270/1/2 277/1/2
f 277/1/2 270/1/2 278/1/2
f 271/1/2 272/1/2 279/1/2
f 279/1/2 272/1/2 280/1/2
f 273/1/2 274/1/2 281/1/2
f 281/1/2 274/1/2 282/1/2
f 275/1/2 276/1/2 283/1/2
f 283/1/2 276/1/2 284/1/2
f 289/1/3 286/1/3 285/1/3
f 290/1/3 286/1/3 289/1/3
f 291/1/3 288/1/3 287/1/3
f 292/1/3 288/1/3 291/1/3
f 297/1/3 294/1/3 293/1/3
f 298/1/3 294/1/3 297/1/3
f 299/1/3 296/1/3 295/1/3
f 300/1/3 296/1/3 299/1/3
f 305/1/3 302/1/3 301/1/3
f 306/1/3 302/1/3 305/1/3
f 307/1/3 304/1/3 303/1/3
f 308/1/3 304/1/3 307/1/3
f 313/1/3 310/1/3 309/1/3
f 314/1/3 310/1/3 313/1/3
f 315/1/3 312/1/3 311/1/3
f 316/1/3 312/1/3 315/1/3
f 323/2/3 318/2/3 317/2/3
f 324/2/3 318/2/3 323/2/3
f 325/2/3 318/2/3 324/2/3
f 326/1/3 320/1/3 319/1/3
f 327/1/3 320/1/3 326/1/3
f 328/1/3 322/1/3 321/1/3
f 329/1/3 322/1/3 328/1/3
f 330/1/3 322/1/3 329/1/3
f 331/1/3 327/1/3 326/1/3
f 331/2/3 325/2/3 324/2/3
f 331/1/3 329/1/3 328/1/3
f 331/1/3 328/1/3 327/1/3
f 331/1/3 326/1/3 325/1/3
f 332/1/3 329/1/3 331/1/3
f 333/1/3 329/1/3 332/1/3
f 334/1/3 329/1/3 333/1/3
f 335/2/3 331/2/3 324/2/3
f 336/1/3 333/1/3 332/1/3
f 337/1/3 333/1/3 336/1/3
f 338/1/3 329/1/3 334/1/3
f 339/1/3 337/1/3 336/1/3
f 339/1/3 338/1/3 337/1/3
f 339/2/3 335/2/3 324/2/3
f 339/1/3 336/1/3 335/1/3
f 340/1/3 338/1/3 339/1/3
f 341/1/3 338/1/3 340/1/3
f 342/1/3 329/1/3 338/1/3
f 342/1/3 338/1/3 341/1/3
f 343/2/3 339/2/3 324/2/3
f 344/1/3 341/1/3 340/1/3
f 345/1/3 341/1/3 344/1/3
f 346/1/3 329/1/3 342/1/3
f 348/2/3 343/2/3 324/2/3
f 349/1/3 346/1/3 345/1/3
f 349/1/3 345/1/3 344/1/3
f 349/2/3 343/2/3 348/2/3
f 349/1/3 344/1/3 343/1/3
f 350/1/3 346/1/3 349/1/3
f 351/1/3 346/1/3 350/1/3
f 352/1/3 329/1/3 346/1/3
f 352/1/3 346/1/3 351/1/3
f 353/1/3 329/1/3 352/1/3
f 354/1/3 322/1/3 330/1/3
f 355/2/3 348/2/3 347/2/3
f 355/2/3 349/2/3 348/2/3
f 356/2/3 349/2/3 355/2/3
f 357/1/3 351/1/3 350/1/3
f 358/1/3 351/1/3 357/1/3
f 359/1/3 353/1/3 352/1/3
f 359/1/3 354/1/3 353/1/3
f 360/1/3 322/1/3 354/1/3
f 360/1/3 354/1/3 359/1/3
f 365/1/3 362/1/3 361/1/3
f 366/1/3 362/1/3 365/1/3
f 367/1/3 364/1/3 363/1/3
f 368/1/3 364/1/3 367/1/3
f 373/1/3 370/1/3 369/1/3
f 374/1/3 370/1/3 373/1/3
f 375/1/3 372/1/3 371/1/3
f 376/1/3 372/1/3 375/1/3
f 381/1/3 378/1/3 377/1/3
f 382/1/3 378/1/3 381/1/3
f 383/1/3 380/1/3 379/1/3
f 384/1/3 380/1/3 383/1/3
f 389/1/3 386/1/3 385/1/3
f 390/1/3 386/1/3 389/1/3
f 391/1/3 388/1/3 387/1/3
f 392/1/3 388/1/3 391/1/3
f 399/1/3 394/1/3 393/1/3
f 400/1/3 394/1/3 399/1/3
f 401/1/3 396/1/3 395/1/3
f 402/1/3 396/1/3 401/1/3
f 405/2/3 398/2/3 397/2/3
f 406/2/3 398/2/3 405/2/3
f 409/1/3 404/1/3 403/1/3
f 410/1/3 404/1/3 409/1/3
f 411/2/3 407/2/3 406/2/3
f 412/1/3 408/1/3 407/1/3
f 412/2/3 407/2/3 411/2/3
f 413/1/3 408/1/3 412/1/3
f 420/1/3 415/1/3 414/1/3
f 421/1/3 415/1/3 420/1/3
f 422/1/3 417/1/3 416/1/3
f 423/1/3 417/1/3 422/1/3
f 424/1/3 419/1/3 418/1/3
f 425/1/3 419/1/3 424/1/3
f 426/1/4 427/1/4 432/1/4
f 432/1/4 427/1/4 433/1/4
f 428/1/4 429/1/4 434/1/4
f 434/1/4 429/1/4 435/1/4
f 430/2/4 431/2/4 438/2/4
f 438/2/4 431/2/4 439/2/4
f 436/1/4 437/1/4 442/1/4
f 442/1/4 437/1/4 443/1/4
f 439/2/4 440/2/4 444/2/4
f 440/1/4 441/1/4 445/1/4
f 444/2/4 440/2/4 445/2/4
f 445/1/4 441/1/4 446/1/4
f 447/1/4 448/1/4 453/1/4
f 453/1/4 448/1/4 454/1/4
f 449/1/4 450/1/4 455/1/4
f 455/1/4 450/1/4 456/1/4
f 451/1/4 452/1/4 457/1/4
f 457/1/4 452/1/4 458/1/4
f 459/1/4 460/1/4 463/1/4
f 463/1/4 460/1/4 464/1/4
f 461/1/4 462/1/4 465/1/4
f 465/1/4 462/1/4 466/1/4
f 467/1/4 468/1/4 471/1/4
f 471/1/4 468/1/4 472/1/4
f 469/1/4 470/1/4 473/1/4
f 473/1/4 470/1/4 474/1/4
f 475/1/4 476/1/4 479/1/4
f 479/1/4 476/1/4 480/1/4
f 477/1/4 478/1/4 481/1/4
f 481/1/4 478/1/4 482/1/4
f 483/1/4 484/1/4 487/1/4
f 487/1/4 484/1/4 488/1/4
f 485/1/4 486/1/4 489/1/4
f 489/1/4 486/1/4 490/1/4
f 491/1/4 492/1/4 494/1/4
f 494/1/4 492/1/4 495/1/4
f 493/2/4 494/2/4 499/2/4
f 499/2/4 494/2/4 500/2/4
f 500/2/4 494/2/4 501/2/4
f 495/1/4 496/1/4 502/1/4
f 502/1/4 496/1/4 503/1/4
f 497/1/4 498/1/4 504/1/4
f 504/1/4 498/1/4 505/1/4
f 505/1/4 498/1/4 506/1/4
f 502/1/4 503/1/4 507/1/4
f 500/2/4 501/2/4 507/2/4
f 504/1/4 505/1/4 507/1/4
f 503/1/4 504/1/4 507/1/4
f 501/1/4 502/1/4 507/1/4
f 507/1/4 505/1/4 508/1/4
f 508/1/4 505/1/4 509/1/4
f 509/1/4 505/1/4 510/1/4
f 500/2/4 507/2/4 511/2/4
f 508/1/4 509/1/4 512/1/4
f 512/1/4 509/1/4 513/1/4
f 510/1/4 505/1/4 514/1/4
f 512/1/4 513/1/4 515/1/4
f 513/1/4 514/1/4 515/1/4
f 500/2/4 511/2/4 515/2/4
f 511/1/4 512/1/4 515/1/4
f 515/1/4 514/1/4 516/1/4
f 516/1/4 514/1/4 517/1/4
f 514/1/4 505/1/4 518/1/4
f 517/1/4 514/1/4 518/1/4
f 500/2/4 515/2/4 519/2/4
f 516/1/4 517/1/4 520/1/4
f 520/1/4 517/1/4 521/1/4
f 518/1/4 505/1/4 522/1/4
f 500/2/4 519/2/4 524/2/4
f 521/1/4 522/1/4 525/1/4
f 520/1/4 521/1/4 525/1/4
f 524/2/4 519/2/4 525/2/4
f 519/1/4 520/1/4 525/1/4
f 525/1/4 522/1/4 526/1/4
f 526/1/4 522/1/4 527/1/4
f 522/1/4 505/1/4 528/1/4
f 527/1/4 522/1/4 528/1/4
f 528/1/4 505/1/4 529/1/4
f 506/1/4 498/1/4 530/1/4
f 523/2/4 524/2/4 531/2/4
f 524/2/4 525/2/4 531/2/4
f 531/2/4 525/2/4 532/2/4
f 526/1/4 527/1/4 533/1/4
f 533/1/4 527/1/4 534/1/4
f 528/1/4 529/1/4 535/1/4
f 529/1/4 530/1/4 535/1/4
f 530/1/4 498/1/4 536/1/4
f 535/1/4 530/1/4 536/1/4
f 539/1/4 540/1/4 541/1/4
f 541/1/4 540/1/4 542/1/4
f 537/1/4 538/1/4 543/1/4
f 543/1/4 538/1/4 544/1/4
f 545/1/4 546/1/4 549/1/4
f 549/1/4 546/1/4 550/1/4
f 547/1/4 548/1/4 551/1/4
f 551/1/4 548/1/4 552/1/4
f 553/1/4 554/1/4 557/1/4
f 557/1/4 554/1/4 558/1/4
f 555/1/4 556/1/4 559/1/4
f 559/1/4 556/1/4 560/1/4
f 561/1/4 562/1/4 565/1/4
f 565/1/4 562/1/4 566/1/4
f 563/1/4 564/1/4 567/1/4
f 567/1/4 564/1/4 568/1/4
f 573/2/5 570/2/5 569/2/5
f 574/2/5 570/2/5 573/2/5
f 577/2/5 576/2/5 575/2/5
f 578/2/5 576/2/5 577/2/5
f 579/2/5 572/2/5 571/2/5
f 580/2/5 572/2/5 579/2/5
f 584/2/5 582/2/5 581/2/5
f 585/2/5 582/2/5 584/2/5
f 586/2/5 584/2/5 583/2/5
f 587/2/5 584/2/5 586/2/5
f 589/2/5 588/2/5 587/2/5
f 590/2/5 588/2/5 589/2/5
f 599/1/5 592/1/5 591/1/5
f 600/1/5 592/1/5 599/1/5
f 601/1/5 594/1/5 593/1/5
f 602/1/5 594/1/5 601/1/5
f 603/1/5 596/1/5 595/1/5
f 604/1/5 596/1/5 603/1/5
f 605/1/5 598/1/5 597/1/5
f 606/1/5 598/1/5 605/1/5
f 607/1/5 599/1/5 591/1/5
f 608/1/5 599/1/5 607/1/5
f 609/1/5 598/1/5 606/1/5
f 610/1/5 598/1/5 609/1/5
f 615/1/5 612/1/5 611/1/5
f 616/1/5 612/1/5 615/1/5
f 617/1/5 614/1/5 613/1/5
f 618/1/5 614/1/5 617/1/5
f 623/1/5 620/1/5 619/1/5
f 624/1/5 620/1/5 623/1/5
f 625/1/5 622/1/5 621/1/5
f 626/1/5 622/1/5 625/1/5
f 631/1/5 628/1/5 627/1/5
f 632/1/5 628/1/5 631/1/5
f 639/1/5 630/1/5 629/1/5
f 640/1/5 633/1/5 632/1/5
f 641/1/5 633/1/5 640/1/5
f 642/1/5 635/1/5 634/1/5
f 643/1/5 635/1/5 642/1/5
f 644/1/5 637/1/5 636/1/5
f 645/1/5 637/1/5 644/1/5
f 646/1/5 639/1/5 638/1/5
f 647/1/5 630/1/5 639/1/5
f 647/1/5 639/1/5 646/1/5
f 656/1/5 649/1/5 648/1/5
f 657/1/5 649/1/5 656/1/5
f 658/1/5 651/1/5 650/1/5
f 659/1/5 651/1/5 658/1/5
f 660/1/5 653/1/5 652/1/5
f 661/1/5 653/1/5 660/1/5
f 662/1/5 655/1/5 654/1/5
f 663/1/5 655/1/5 662/1/5
f 664/1/5 656/1/5 648/1/5
f 665/1/5 656/1/5 664/1/5
f 666/1/5 655/1/5 663/1/5
f 667/1/5 655/1/5 666/1/5
f 672/1/5 669/1/5 668/1/5
f 673/1/5 669/1/5 672/1/5
f 674/1/5 671/1/5 670/1/5
f 675/1/5 671/1/5 674/1/5
f 680/1/5 677/1/5 676/1/5
f 681/1/5 677/1/5 680/1/5
f 682/1/5 679/1/5 678/1/5
f 683/1/5 679/1/5 682/1/5
f 688/1/5 685/1/5 684/1/5
f 695/1/5 687/1/5 686/1/5
f 696/1/5 688/1/5 684/1/5
f 696/1/5 689/1/5 688/1/5
f 697/1/5 689/1/5 696/1/5
f 698/1/5 691/1/5 690/1/5
f 699/1/5 691/1/5 698/1/5
f 700/1/5 693/1/5 692/1/5
f 701/1/5 693/1/5 700/1/5
f 702/1/5 695/1/5 694/1/5
f 703/1/5 687/1/5 695/1/5
f 703/1/5 695/1/5 702/1/5
f 706/1/5 705/1/5 704/1/5
f 707/1/5 705/1/5 706/1/5
f 711/1/5 709/1/5 708/1/5
f 712/1/5 709/1/5 711/1/5
f 714/1/5 711/1/5 710/1/5
f 714/1/5 713/1/5 712/1/5
f 714/1/5 712/1/5 711/1/5
f 715/1/5 713/1/5 714/1/5
f 716/1/5 713/1/5 715/1/5
f 717/1/5 713/1/5 716/1/5
f 718/1/5 716/1/5 715/1/5
f 719/1/5 716/1/5 718/1/5
f 720/1/6 721/1/6 728/1/6
f 728/1/6 721/1/6 729/1/6
f 722/1/6 723/1/6 730/1/6
f 730/1/6 723/1/6 731/1/6
f 724/1/6 725/1/6 732/1/6
f 732/1/6 725/1/6 733/1/6
f 726/1/6 727/1/6 734/1/6
f 734/1/6 727/1/6 735/1/6
f 720/1/6 728/1/6 736/1/6
f 736/1/6 728/1/6 737/1/6
f 735/1/6 727/1/6 738/1/6
f 738/1/6 727/1/6 739/1/6
f 740/1/6 741/1/6 744/1/6
f 744/1/6 741/1/6 745/1/6
f 742/1/6 743/1/6 746/1/6
f 746/1/6 743/1/6 747/1/6
f 748/1/6 749/1/6 752/1/6
f 752/1/6 749/1/6 753/1/6
f 750/1/6 751/1/6 754/1/6
f 754/1/6 751/1/6 755/1/6
f 756/1/6 757/1/6 760/1/6
f 760/1/6 757/1/6 761/1/6
f 758/1/6 759/1/6 768/1/6
f 761/1/6 762/1/6 769/1/6
f 769/1/6 762/1/6 770/1/6
f 763/1/6 764/1/6 771/1/6
f 771/1/6 764/1/6 772/1/6
f 765/1/6 766/1/6 773/1/6
f 773/1/6 766/1/6 774/1/6
f 767/1/6 768/1/6 775/1/6
f 768/1/6 759/1/6 776/1/6
f 775/1/6 768/1/6 776/1/6
f 777/1/6 778/1/6 785/1/6
f 785/1/6 778/1/6 786/1/6
f 779/1/6 780/1/6 787/1/6
f 787/1/6 780/1/6 788/1/6
f 781/1/6 782/1/6 789/1/6
f 789/1/6 782/1/6 790/1/6
f 783/1/6 784/1/6 791/1/6
f 791/1/6 784/1/6 792/1/6
f 777/1/6 785/1/6 793/1/6
f 793/1/6 785/1/6 794/1/6
f 792/1/6 784/1/6 795/1/6
f 795/1/6 784/1/6 796/1/6
f 797/1/6 798/1/6 801/1/6
f 801/1/6 798/1/6 802/1/6
f 799/1/6 800/1/6 803/1/6
f 803/1/6 800/1/6 804/1/6
f 805/1/6 806/1/6 809/1/6
f 809/1/6 806/1/6 810/1/6
f 807/1/6 808/1/6 811/1/6
f 811/1/6 808/1/6 812/1/6
f 813/1/6 814/1/6 817/1/6
f 815/1/6 816/1/6 824/1/6
f 813/1/6 817/1/6 825/1/6
f 817/1/6 818/1/6 825/1/6
f 825/1/6 818/1/6 826/1/6
f 819/1/6 820/1/6 827/1/6
f 827/1/6 820/1/6 828/1/6
f 821/1/6 822/1/6 829/1/6
f 829/1/6 822/1/6 830/1/6
f 823/1/6 824/1/6 831/1/6
f 824/1/6 816/1/6 832/1/6
f 831/1/6 824/1/6 832/1/6
f 833/1/6 834/1/6 836/1/6
f 836/1/6 834/1/6 837/1/6
f 835/1/6 836/1/6 839/1/6
f 837/1/6 838/1/6 839/1/6
f 836/1/6 837/1/6 839/1/6
f 839/1/6 838/1/6 840/1/6
f 840/1/6 838/1/6 841/1/6
f 841/1/6 838/1/6 842/1/6
f 840/1/6 841/1/6 843/1/6
f 843/1/6 841/1/6 844/1/6
f 845/1/6 846/1/6 847/1/6
f 847/1/6 846/1/6 848/1/6
