# This file uses centimeters as units for non-parametric coordinates.

mtllib down.mtl
g default
v -0.500000 -0.500000 0.000000
v -0.500000 0.500000 -0.000000
v -0.500000 -1.500000 1.000000
v -0.500000 -0.500000 1.000000
v -0.500000 -1.500000 2.000000
v -0.500000 0.500000 2.000000
v 0.500000 -0.500000 0.000000
v 0.500000 0.500000 -0.000000
v 0.500000 -1.500000 1.000000
v 0.500000 -0.500000 1.000000
v 0.500000 -1.500000 2.000000
v 0.500000 0.500000 2.000000
v -0.500000 -1.500000 1.000000
v -0.500000 -1.500000 2.000000
v 0.500000 -1.500000 1.000000
v 0.500000 -1.500000 2.000000
v -0.500000 -0.500000 0.000000
v -0.500000 -0.500000 1.000000
v 0.500000 -0.500000 0.000000
v 0.500000 -0.500000 1.000000
v -0.500000 0.500000 -0.000000
v -0.500000 0.500000 2.000000
v 0.500000 0.500000 -0.000000
v 0.500000 0.500000 2.000000
v -0.500000 -0.500000 0.000000
v 0.500000 -0.500000 0.000000
v -0.500000 0.500000 -0.000000
v 0.500000 0.500000 -0.000000
v -0.500000 -1.500000 1.000000
v 0.500000 -1.500000 1.000000
v -0.500000 -0.500000 1.000000
v 0.500000 -0.500000 1.000000
v -0.500000 -1.500000 2.000000
v 0.500000 -1.500000 2.000000
v -0.500000 0.500000 2.000000
v 0.500000 0.500000 2.000000
vt 0.044922 0.500000
vt 0.044922 0.500000
vt 0.044922 0.500000
vt 0.044922 0.500000
vt 0.044922 0.500000
vt 0.044922 0.500000
vt 0.044922 0.500000
vt 0.044922 0.500000
vt 0.044922 0.500000
vt 0.044922 0.500000
vt 0.044922 0.500000
vt 0.044922 0.500000
vt 0.044922 0.500000
vt 0.044922 0.500000
vt 0.044922 0.500000
vt 0.044922 0.500000
vt 0.044922 0.500000
vt 0.044922 0.500000
vt 0.044922 0.500000
vt 0.044922 0.500000
vt 0.044922 0.500000
vt 0.044922 0.500000
vt 0.044922 0.500000
vt 0.044922 0.500000
vt 0.044922 0.500000
vt 0.044922 0.500000
vt 0.044922 0.500000
vt 0.044922 0.500000
vt 0.044922 0.500000
vt 0.044922 0.500000
vt 0.044922 0.500000
vt 0.044922 0.500000
vt 0.044922 0.500000
vt 0.044922 0.500000
vt 0.044922 0.500000
vt 0.044922 0.500000
vt 0.044922 0.500000
vt 0.044922 0.500000
vt 0.044922 0.500000
vt 0.044922 0.500000
vt 0.044922 0.500000
vt 0.044922 0.500000
vt 0.044922 0.500000
vt 0.044922 0.500000
vt 0.044922 0.500000
vt 0.044922 0.500000
vt 0.044922 0.500000
vt 0.044922 0.500000
vt 0.044922 0.500000
vt 0.044922 0.500000
vt 0.044922 0.500000
vt 0.044922 0.500000
vt 0.044922 0.500000
vt 0.044922 0.500000
vt 0.044922 0.500000
vt 0.044922 0.500000
vt 0.044922 0.500000
vn -1.000000 0.000000 0.000000
vn -1.000000 0.000000 0.000000
vn -1.000000 0.000000 0.000000
vn -1.000000 0.000000 0.000000
vn -1.000000 0.000000 0.000000
vn -1.000000 0.000000 0.000000
vn -1.000000 0.000000 0.000000
vn -1.000000 0.000000 0.000000
vn -1.000000 0.000000 0.000000
vn -1.000000 0.000000 0.000000
vn -1.000000 0.000000 0.000000
vn -1.000000 0.000000 0.000000
vn 1.000000 0.000000 0.000000
vn 1.000000 0.000000 0.000000
vn 1.000000 0.000000 0.000000
vn 1.000000 0.000000 0.000000
vn 1.000000 0.000000 0.000000
vn 1.000000 0.000000 0.000000
vn 1.000000 0.000000 0.000000
vn 1.000000 0.000000 0.000000
vn 1.000000 0.000000 0.000000
vn 1.000000 0.000000 0.000000
vn 1.000000 0.000000 0.000000
vn 1.000000 0.000000 0.000000
vn 0.000000 -1.000000 0.000000
vn 0.000000 -1.000000 0.000000
vn 0.000000 -1.000000 0.000000
vn 0.000000 -1.000000 0.000000
vn 0.000000 -1.000000 0.000000
vn 0.000000 -1.000000 0.000000
vn 0.000000 -1.000000 0.000000
vn 0.000000 -1.000000 0.000000
vn 0.000000 -1.000000 0.000000
vn 0.000000 -1.000000 0.000000
vn 0.000000 -1.000000 0.000000
vn 0.000000 -1.000000 0.000000
vn 0.000000 1.000000 -0.000000
vn 0.000000 1.000000 -0.000000
vn 0.000000 1.000000 -0.000000
vn 0.000000 1.000000 -0.000000
vn 0.000000 1.000000 -0.000000
vn 0.000000 1.000000 -0.000000
vn 0.000000 -0.000000 -1.000000
vn 0.000000 -0.000000 -1.000000
vn 0.000000 -0.000000 -1.000000
vn 0.000000 -0.000000 -1.000000
vn 0.000000 -0.000000 -1.000000
vn 0.000000 -0.000000 -1.000000
vn 0.000000 -0.000000 -1.000000
vn 0.000000 -0.000000 -1.000000
vn 0.000000 -0.000000 -1.000000
vn 0.000000 -0.000000 -1.000000
vn 0.000000 -0.000000 -1.000000
vn 0.000000 -0.000000 -1.000000
vn 0.000000 0.000000 1.000000
vn 0.000000 0.000000 1.000000
vn 0.000000 0.000000 1.000000
vn 0.000000 0.000000 1.000000
vn 0.000000 0.000000 1.000000
vn 0.000000 0.000000 1.000000
s off
g down
usemtl down_palette
f 4/1/1 2/2/2 1/3/3
f 5/4/4 4/1/5 3/5/6
f 6/6/7 2/7/8 4/1/9
f 6/8/10 4/1/11 5/9/12
f 7/10/13 8/11/14 10/12/15
f 9/13/16 10/14/17 11/15/18
f 10/16/19 8/17/20 12/18/21
f 11/19/22 10/20/23 12/21/24
f 15/22/25 14/23/26 13/24/27
f 16/25/28 14/26/29 15/27/30
f 19/28/31 18/29/32 17/30/33
f 20/31/34 18/32/35 19/33/36
f 21/34/37 22/35/38 23/36/39
f 23/37/40 22/38/41 24/39/42
f 27/40/43 26/41/44 25/42/45
f 28/43/46 26/44/47 27/45/48
f 31/46/49 30/47/50 29/48/51
f 32/49/52 30/50/53 31/51/54
f 33/52/55 34/53/56 35/54/57
f 35/55/58 34/56/59 36/57/60
