# This file uses centimeters as units for non-parametric coordinates.

mtllib ground.mtl
g default
v -1.500000 -1.500000 0.000000
v -1.500000 1.500000 -0.000000
v -1.500000 -1.500000 1.000000
v -1.500000 1.500000 1.000000
v -0.500000 -0.500000 1.000000
v -0.500000 0.500000 1.000000
v -0.500000 -0.500000 3.000000
v -0.500000 0.500000 3.000000
v 0.500000 -0.500000 1.000000
v 0.500000 0.500000 1.000000
v 0.500000 -0.500000 3.000000
v 0.500000 0.500000 3.000000
v 1.500000 -1.500000 0.000000
v 1.500000 1.500000 -0.000000
v 1.500000 -1.500000 1.000000
v 1.500000 1.500000 1.000000
v -1.500000 -1.500000 0.000000
v -1.500000 -1.500000 1.000000
v 1.500000 -1.500000 0.000000
v 1.500000 -1.500000 1.000000
v -0.500000 -0.500000 1.000000
v -0.500000 -0.500000 3.000000
v 0.500000 -0.500000 1.000000
v 0.500000 -0.500000 3.000000
v -0.500000 0.500000 1.000000
v -0.500000 0.500000 3.000000
v 0.500000 0.500000 1.000000
v 0.500000 0.500000 3.000000
v -1.500000 1.500000 -0.000000
v -1.500000 1.500000 1.000000
v 1.500000 1.500000 -0.000000
v 1.500000 1.500000 1.000000
v -1.500000 -1.500000 0.000000
v 1.500000 -1.500000 0.000000
v -0.500000 -0.500000 0.000000
v 0.500000 -0.500000 0.000000
v -0.500000 0.500000 -0.000000
v 0.500000 0.500000 -0.000000
v -1.500000 1.500000 -0.000000
v 1.500000 1.500000 -0.000000
v -1.500000 -1.500000 1.000000
v 1.500000 -1.500000 1.000000
v -0.500000 -0.500000 1.000000
v 0.500000 -0.500000 1.000000
v -0.500000 0.500000 1.000000
v 0.500000 0.500000 1.000000
v -1.500000 1.500000 1.000000
v 1.500000 1.500000 1.000000
v -0.500000 -0.500000 3.000000
v 0.500000 -0.500000 3.000000
v -0.500000 0.500000 3.000000
v 0.500000 0.500000 3.000000
vt 0.341797 0.500000
vt 0.044922 0.500000
vt 0.341797 0.500000
vt 0.341797 0.500000
vt 0.341797 0.500000
vt 0.341797 0.500000
vt 0.044922 0.500000
vt 0.044922 0.500000
vt 0.044922 0.500000
vt 0.044922 0.500000
vt 0.044922 0.500000
vt 0.044922 0.500000
vt 0.044922 0.500000
vt 0.044922 0.500000
vt 0.044922 0.500000
vt 0.044922 0.500000
vt 0.341797 0.500000
vt 0.341797 0.500000
vt 0.341797 0.500000
vt 0.341797 0.500000
vt 0.341797 0.500000
vt 0.341797 0.500000
vt 0.341797 0.500000
vt 0.341797 0.500000
vt 0.341797 0.500000
vt 0.341797 0.500000
vt 0.341797 0.500000
vt 0.341797 0.500000
vt 0.044922 0.500000
vt 0.044922 0.500000
vt 0.044922 0.500000
vt 0.044922 0.500000
vt 0.044922 0.500000
vt 0.044922 0.500000
vt 0.044922 0.500000
vt 0.044922 0.500000
vt 0.044922 0.500000
vt 0.044922 0.500000
vt 0.044922 0.500000
vt 0.044922 0.500000
vt 0.341797 0.500000
vt 0.341797 0.500000
vt 0.341797 0.500000
vt 0.341797 0.500000
vt 0.341797 0.500000
vt 0.341797 0.500000
vt 0.341797 0.500000
vt 0.341797 0.500000
vt 0.341797 0.500000
vt 0.341797 0.500000
vt 0.341797 0.500000
vt 0.341797 0.500000
vt 0.341797 0.500000
vt 0.341797 0.500000
vt 0.341797 0.500000
vt 0.044922 0.500000
vt 0.044922 0.500000
vt 0.044922 0.500000
vt 0.341797 0.500000
vt 0.341797 0.500000
vt 0.341797 0.500000
vt 0.044922 0.500000
vt 0.044922 0.500000
vt 0.044922 0.500000
vt 0.341797 0.500000
vt 0.341797 0.500000
vt 0.341797 0.500000
vt 0.341797 0.500000
vt 0.341797 0.500000
vt 0.341797 0.500000
vt 0.341797 0.500000
vt 0.341797 0.500000
vt 0.341797 0.500000
vt 0.341797 0.500000
vt 0.341797 0.500000
vt 0.341797 0.500000
vt 0.341797 0.500000
vt 0.341797 0.500000
vt 0.341797 0.500000
vt 0.341797 0.500000
vt 0.341797 0.500000
vt 0.341797 0.500000
vt 0.341797 0.500000
vt 0.341797 0.500000
vt 0.341797 0.500000
vt 0.341797 0.500000
vt 0.341797 0.500000
vt 0.341797 0.500000
vt 0.341797 0.500000
vt 0.341797 0.500000
vt 0.341797 0.500000
vt 0.341797 0.500000
vt 0.341797 0.500000
vt 0.341797 0.500000
vt 0.341797 0.500000
vt 0.341797 0.500000
vt 0.341797 0.500000
vt 0.341797 0.500000
vt 0.341797 0.500000
vt 0.341797 0.500000
vt 0.044922 0.500000
vt 0.044922 0.500000
vt 0.044922 0.500000
vt 0.044922 0.500000
vt 0.044922 0.500000
vt 0.044922 0.500000
vn -1.000000 0.000000 0.000000
vn -1.000000 0.000000 0.000000
vn -1.000000 0.000000 0.000000
vn -1.000000 0.000000 0.000000
vn -1.000000 0.000000 0.000000
vn -1.000000 0.000000 0.000000
vn -1.000000 0.000000 0.000000
vn -1.000000 0.000000 0.000000
vn -1.000000 0.000000 0.000000
vn -1.000000 0.000000 0.000000
vn -1.000000 0.000000 0.000000
vn -1.000000 0.000000 0.000000
vn 1.000000 0.000000 0.000000
vn 1.000000 0.000000 0.000000
vn 1.000000 0.000000 0.000000
vn 1.000000 0.000000 0.000000
vn 1.000000 0.000000 0.000000
vn 1.000000 0.000000 0.000000
vn 1.000000 0.000000 0.000000
vn 1.000000 0.000000 0.000000
vn 1.000000 0.000000 0.000000
vn 1.000000 0.000000 0.000000
vn 1.000000 0.000000 0.000000
vn 1.000000 0.000000 0.000000
vn 0.000000 -1.000000 0.000000
vn 0.000000 -1.000000 0.000000
vn 0.000000 -1.000000 0.000000
vn 0.000000 -1.000000 0.000000
vn 0.000000 -1.000000 0.000000
vn 0.000000 -1.000000 0.000000
vn 0.000000 -1.000000 0.000000
vn 0.000000 -1.000000 0.000000
vn 0.000000 -1.000000 0.000000
vn 0.000000 -1.000000 0.000000
vn 0.000000 -1.000000 0.000000
vn 0.000000 -1.000000 0.000000
vn 0.000000 1.000000 -0.000000
vn 0.000000 1.000000 -0.000000
vn 0.000000 1.000000 -0.000000
vn 0.000000 1.000000 -0.000000
vn 0.000000 1.000000 -0.000000
vn 0.000000 1.000000 -0.000000
vn 0.000000 1.000000 -0.000000
vn 0.000000 1.000000 -0.000000
vn 0.000000 1.000000 -0.000000
vn 0.000000 1.000000 -0.000000
vn 0.000000 1.000000 -0.000000
vn 0.000000 1.000000 -0.000000
vn 0.000000 -0.000000 -1.000000
vn 0.000000 -0.000000 -1.000000
vn 0.000000 -0.000000 -1.000000
vn 0.000000 -0.000000 -1.000000
vn 0.000000 -0.000000 -1.000000
vn 0.000000 -0.000000 -1.000000
vn 0.000000 -0.000000 -1.000000
vn 0.000000 -0.000000 -1.000000
vn 0.000000 -0.000000 -1.000000
vn 0.000000 -0.000000 -1.000000
vn 0.000000 -0.000000 -1.000000
vn 0.000000 -0.000000 -1.000000
vn 0.000000 -0.000000 -1.000000
vn 0.000000 -0.000000 -1.000000
vn 0.000000 -0.000000 -1.000000
vn 0.000000 -0.000000 -1.000000
vn 0.000000 -0.000000 -1.000000
vn 0.000000 -0.000000 -1.000000
vn 0.000000 -0.000000 -1.000000
vn 0.000000 -0.000000 -1.000000
vn 0.000000 -0.000000 -1.000000
vn 0.000000 -0.000000 -1.000000
vn 0.000000 -0.000000 -1.000000
vn 0.000000 -0.000000 -1.000000
vn 0.000000 -0.000000 -1.000000
vn 0.000000 -0.000000 -1.000000
vn 0.000000 -0.000000 -1.000000
vn 0.000000 -0.000000 -1.000000
vn 0.000000 -0.000000 -1.000000
vn 0.000000 -0.000000 -1.000000
vn 0.000000 0.000000 1.000000
vn 0.000000 0.000000 1.000000
vn 0.000000 0.000000 1.000000
vn 0.000000 0.000000 1.000000
vn 0.000000 0.000000 1.000000
vn 0.000000 0.000000 1.000000
vn 0.000000 0.000000 1.000000
vn 0.000000 0.000000 1.000000
vn 0.000000 0.000000 1.000000
vn 0.000000 0.000000 1.000000
vn 0.000000 0.000000 1.000000
vn 0.000000 0.000000 1.000000
vn 0.000000 0.000000 1.000000
vn 0.000000 0.000000 1.000000
vn 0.000000 0.000000 1.000000
vn 0.000000 0.000000 1.000000
vn 0.000000 0.000000 1.000000
vn 0.000000 0.000000 1.000000
vn 0.000000 0.000000 1.000000
vn 0.000000 0.000000 1.000000
vn 0.000000 0.000000 1.000000
vn 0.000000 0.000000 1.000000
vn 0.000000 0.000000 1.000000
vn 0.000000 0.000000 1.000000
vn 0.000000 0.000000 1.000000
vn 0.000000 0.000000 1.000000
vn 0.000000 0.000000 1.000000
vn 0.000000 0.000000 1.000000
vn 0.000000 0.000000 1.000000
vn 0.000000 0.000000 1.000000
s off
g ground
usemtl ground_palette2
f 3/1/1 2/3/2 1/4/3
f 4/5/4 2/6/5 3/1/6
f 7/2/7 6/7/8 5/8/9
f 8/9/10 6/10/11 7/2/12
f 9/11/13 10/12/14 11/13/15
f 11/14/16 10/15/17 12/16/18
f 13/17/19 14/18/20 15/19/21
f 15/20/22 14/21/23 16/22/24
f 19/23/25 18/24/26 17/25/27
f 20/26/28 18/27/29 19/28/30
f 23/29/31 22/30/32 21/31/33
f 24/32/34 22/33/35 23/34/36
f 25/35/37 26/36/38 27/37/39
f 27/38/40 26/39/41 28/40/42
f 29/41/43 30/42/44 31/43/45
f 31/44/46 30/45/47 32/46/48
f 35/47/49 34/48/50 33/49/51
f 36/50/52 34/51/53 35/52/54
f 37/53/55 35/54/56 33/55/57
f 37/56/58 36/57/59 35/58/60
f 38/59/61 34/60/62 36/61/63
f 38/62/64 36/63/65 37/64/66
f 39/65/67 37/66/68 33/67/69
f 39/68/70 38/69/71 37/70/72
f 40/71/73 34/72/74 38/73/75
f 40/74/76 38/75/77 39/76/78
f 41/77/79 42/78/80 43/79/81
f 43/80/82 42/81/83 44/82/84
f 41/83/85 43/84/86 45/85/87
f 44/86/88 42/87/89 46/88/90
f 41/89/91 45/90/92 47/91/93
f 45/92/94 46/93/95 47/94/96
f 46/95/97 42/96/98 48/97/99
f 47/98/100 46/99/101 48/100/102
f 49/101/103 50/102/104 51/103/105
f 51/104/106 50/105/107 52/106/108
