# This file uses centimeters as units for non-parametric coordinates.

mtllib pipe2.mtl
g default
v -0.500000 -1.500000 1.000000
v -0.500000 -0.500000 1.000000
v -0.500000 0.500000 1.000000
v -0.500000 1.500000 1.000000
v -0.500000 -1.500000 2.000000
v -0.500000 -0.500000 2.000000
v -0.500000 0.500000 2.000000
v -0.500000 1.500000 2.000000
v 0.500000 -1.500000 1.000000
v 0.500000 -0.500000 1.000000
v 0.500000 0.500000 1.000000
v 0.500000 1.500000 1.000000
v 0.500000 -1.500000 2.000000
v 0.500000 -0.500000 2.000000
v 0.500000 0.500000 2.000000
v 0.500000 1.500000 2.000000
v 1.500000 -0.500000 1.000000
v 1.500000 0.500000 1.000000
v 1.500000 -0.500000 2.000000
v 1.500000 0.500000 2.000000
v -0.500000 -1.500000 1.000000
v -0.500000 -1.500000 2.000000
v 0.500000 -1.500000 1.000000
v 0.500000 -1.500000 2.000000
v 0.500000 -0.500000 1.000000
v 0.500000 -0.500000 2.000000
v 1.500000 -0.500000 1.000000
v 1.500000 -0.500000 2.000000
v 0.500000 0.500000 1.000000
v 0.500000 0.500000 2.000000
v 1.500000 0.500000 1.000000
v 1.500000 0.500000 2.000000
v -0.500000 1.500000 1.000000
v -0.500000 1.500000 2.000000
v 0.500000 1.500000 1.000000
v 0.500000 1.500000 2.000000
v -0.500000 -1.500000 1.000000
v 0.500000 -1.500000 1.000000
v -0.500000 -0.500000 1.000000
v 0.500000 -0.500000 1.000000
v 1.500000 -0.500000 1.000000
v -0.500000 0.500000 1.000000
v 0.500000 0.500000 1.000000
v 1.500000 0.500000 1.000000
v -0.500000 1.500000 1.000000
v 0.500000 1.500000 1.000000
v -0.500000 -1.500000 2.000000
v 0.500000 -1.500000 2.000000
v -0.500000 -0.500000 2.000000
v 0.500000 -0.500000 2.000000
v 1.500000 -0.500000 2.000000
v -0.500000 0.500000 2.000000
v 0.500000 0.500000 2.000000
v 1.500000 0.500000 2.000000
v -0.500000 1.500000 2.000000
v 0.500000 1.500000 2.000000
vt 0.919922 0.500000
vt 0.123047 0.500000
vt 0.021484 0.500000
vt 0.884766 0.500000
vt 0.919922 0.500000
vt 0.919922 0.500000
vt 0.123047 0.500000
vt 0.123047 0.500000
vt 0.919922 0.500000
vt 0.919922 0.500000
vt 0.021484 0.500000
vt 0.021484 0.500000
vt 0.123047 0.500000
vt 0.123047 0.500000
vt 0.021484 0.500000
vt 0.021484 0.500000
vt 0.919922 0.500000
vt 0.919922 0.500000
vt 0.919922 0.500000
vt 0.919922 0.500000
vt 0.919922 0.500000
vt 0.919922 0.500000
vt 0.021484 0.500000
vt 0.021484 0.500000
vt 0.021484 0.500000
vt 0.021484 0.500000
vt 0.021484 0.500000
vt 0.021484 0.500000
vt 0.884766 0.500000
vt 0.884766 0.500000
vt 0.884766 0.500000
vt 0.884766 0.500000
vt 0.884766 0.500000
vt 0.919922 0.500000
vt 0.919922 0.500000
vt 0.919922 0.500000
vt 0.919922 0.500000
vt 0.919922 0.500000
vt 0.919922 0.500000
vt 0.884766 0.500000
vt 0.884766 0.500000
vt 0.884766 0.500000
vt 0.884766 0.500000
vt 0.884766 0.500000
vt 0.884766 0.500000
vt 0.884766 0.500000
vt 0.884766 0.500000
vt 0.884766 0.500000
vt 0.884766 0.500000
vt 0.884766 0.500000
vt 0.884766 0.500000
vt 0.021484 0.500000
vt 0.021484 0.500000
vt 0.021484 0.500000
vt 0.021484 0.500000
vt 0.021484 0.500000
vt 0.021484 0.500000
vt 0.919922 0.500000
vt 0.919922 0.500000
vt 0.919922 0.500000
vt 0.919922 0.500000
vt 0.919922 0.500000
vt 0.919922 0.500000
vt 0.123047 0.500000
vt 0.123047 0.500000
vt 0.123047 0.500000
vt 0.884766 0.500000
vt 0.884766 0.500000
vt 0.884766 0.500000
vt 0.123047 0.500000
vt 0.123047 0.500000
vt 0.123047 0.500000
vt 0.884766 0.500000
vt 0.884766 0.500000
vt 0.884766 0.500000
vt 0.021484 0.500000
vt 0.021484 0.500000
vt 0.021484 0.500000
vt 0.021484 0.500000
vt 0.021484 0.500000
vt 0.021484 0.500000
vt 0.919922 0.500000
vt 0.919922 0.500000
vt 0.919922 0.500000
vt 0.919922 0.500000
vt 0.919922 0.500000
vt 0.919922 0.500000
vt 0.123047 0.500000
vt 0.123047 0.500000
vt 0.123047 0.500000
vt 0.884766 0.500000
vt 0.884766 0.500000
vt 0.884766 0.500000
vt 0.123047 0.500000
vt 0.123047 0.500000
vt 0.123047 0.500000
vt 0.884766 0.500000
vt 0.884766 0.500000
vt 0.884766 0.500000
vt 0.021484 0.500000
vt 0.021484 0.500000
vt 0.021484 0.500000
vt 0.021484 0.500000
vt 0.021484 0.500000
vt 0.021484 0.500000
vn -1.000000 0.000000 0.000000
vn -1.000000 0.000000 0.000000
vn -1.000000 0.000000 0.000000
vn -1.000000 0.000000 0.000000
vn -1.000000 0.000000 0.000000
vn -1.000000 0.000000 0.000000
vn -1.000000 0.000000 0.000000
vn -1.000000 0.000000 0.000000
vn -1.000000 0.000000 0.000000
vn -1.000000 0.000000 0.000000
vn -1.000000 0.000000 0.000000
vn -1.000000 0.000000 0.000000
vn -1.000000 0.000000 0.000000
vn -1.000000 0.000000 0.000000
vn -1.000000 0.000000 0.000000
vn -1.000000 0.000000 0.000000
vn -1.000000 0.000000 0.000000
vn -1.000000 0.000000 0.000000
vn 1.000000 0.000000 0.000000
vn 1.000000 0.000000 0.000000
vn 1.000000 0.000000 0.000000
vn 1.000000 0.000000 0.000000
vn 1.000000 0.000000 0.000000
vn 1.000000 0.000000 0.000000
vn 1.000000 0.000000 0.000000
vn 1.000000 0.000000 0.000000
vn 1.000000 0.000000 0.000000
vn 1.000000 0.000000 0.000000
vn 1.000000 0.000000 0.000000
vn 1.000000 0.000000 0.000000
vn 1.000000 0.000000 0.000000
vn 1.000000 0.000000 0.000000
vn 1.000000 0.000000 0.000000
vn 1.000000 0.000000 0.000000
vn 1.000000 0.000000 0.000000
vn 1.000000 0.000000 0.000000
vn 0.000000 -1.000000 0.000000
vn 0.000000 -1.000000 0.000000
vn 0.000000 -1.000000 0.000000
vn 0.000000 -1.000000 0.000000
vn 0.000000 -1.000000 0.000000
vn 0.000000 -1.000000 0.000000
vn 0.000000 -1.000000 0.000000
vn 0.000000 -1.000000 0.000000
vn 0.000000 -1.000000 0.000000
vn 0.000000 -1.000000 0.000000
vn 0.000000 -1.000000 0.000000
vn 0.000000 -1.000000 0.000000
vn 0.000000 1.000000 -0.000000
vn 0.000000 1.000000 -0.000000
vn 0.000000 1.000000 -0.000000
vn 0.000000 1.000000 -0.000000
vn 0.000000 1.000000 -0.000000
vn 0.000000 1.000000 -0.000000
vn 0.000000 1.000000 -0.000000
vn 0.000000 1.000000 -0.000000
vn 0.000000 1.000000 -0.000000
vn 0.000000 1.000000 -0.000000
vn 0.000000 1.000000 -0.000000
vn 0.000000 1.000000 -0.000000
vn 0.000000 -0.000000 -1.000000
vn 0.000000 -0.000000 -1.000000
vn 0.000000 -0.000000 -1.000000
vn 0.000000 -0.000000 -1.000000
vn 0.000000 -0.000000 -1.000000
vn 0.000000 -0.000000 -1.000000
vn 0.000000 -0.000000 -1.000000
vn 0.000000 -0.000000 -1.000000
vn 0.000000 -0.000000 -1.000000
vn 0.000000 -0.000000 -1.000000
vn 0.000000 -0.000000 -1.000000
vn 0.000000 -0.000000 -1.000000
vn 0.000000 -0.000000 -1.000000
vn 0.000000 -0.000000 -1.000000
vn 0.000000 -0.000000 -1.000000
vn 0.000000 -0.000000 -1.000000
vn 0.000000 -0.000000 -1.000000
vn 0.000000 -0.000000 -1.000000
vn 0.000000 -0.000000 -1.000000
vn 0.000000 -0.000000 -1.000000
vn 0.000000 -0.000000 -1.000000
vn 0.000000 -0.000000 -1.000000
vn 0.000000 -0.000000 -1.000000
vn 0.000000 -0.000000 -1.000000
vn 0.000000 0.000000 1.000000
vn 0.000000 0.000000 1.000000
vn 0.000000 0.000000 1.000000
vn 0.000000 0.000000 1.000000
vn 0.000000 0.000000 1.000000
vn 0.000000 0.000000 1.000000
vn 0.000000 0.000000 1.000000
vn 0.000000 0.000000 1.000000
vn 0.000000 0.000000 1.000000
vn 0.000000 0.000000 1.000000
vn 0.000000 0.000000 1.000000
vn 0.000000 0.000000 1.000000
vn 0.000000 0.000000 1.000000
vn 0.000000 0.000000 1.000000
vn 0.000000 0.000000 1.000000
vn 0.000000 0.000000 1.000000
vn 0.000000 0.000000 1.000000
vn 0.000000 0.000000 1.000000
vn 0.000000 0.000000 1.000000
vn 0.000000 0.000000 1.000000
vn 0.000000 0.000000 1.000000
vn 0.000000 0.000000 1.000000
vn 0.000000 0.000000 1.000000
vn 0.000000 0.000000 1.000000
s off
g pipe2
usemtl pipe2_palette
f 5/1/1 2/5/2 1/6/3
f 6/2/4 3/7/5 2/8/6
f 6/9/7 2/10/8 5/1/9
f 7/3/10 4/11/11 3/12/12
f 7/13/13 3/14/14 6/2/15
f 8/15/16 4/16/17 7/3/18
f 9/17/19 10/18/20 13/19/21
f 13/20/22 10/21/23 14/22/24
f 11/23/25 12/24/26 15/25/27
f 15/26/28 12/27/29 16/28/30
f 17/4/31 18/29/32 19/30/33
f 19/31/34 18/32/35 20/33/36
f 23/34/37 22/35/38 21/36/39
f 24/37/40 22/38/41 23/39/42
f 27/40/43 26/41/44 25/42/45
f 28/43/46 26/44/47 27/45/48
f 29/46/49 30/47/50 31/48/51
f 31/49/52 30/50/53 32/51/54
f 33/52/55 34/53/56 35/54/57
f 35/55/58 34/56/59 36/57/60
f 39/58/61 38/59/62 37/60/63
f 40/61/64 38/62/65 39/63/66
f 42/64/67 40/65/68 39/66/69
f 43/67/70 41/68/71 40/69/72
f 43/70/73 40/71/74 42/72/75
f 44/73/76 41/74/77 43/75/78
f 45/76/79 43/77/80 42/78/81
f 46/79/82 43/80/83 45/81/84
f 47/82/85 48/83/86 49/84/87
f 49/85/88 48/86/89 50/87/90
f 49/88/91 50/89/92 52/90/93
f 50/91/94 51/92/95 53/93/96
f 52/94/97 50/95/98 53/96/99
f 53/97/100 51/98/101 54/99/102
f 52/100/103 53/101/104 55/102/105
f 55/103/106 53/104/107 56/105/108
