# MagicaVoxel @ Ephtracy

# group
g roof_curved_1

# material
mtllib roof_curved_1.mtl
usemtl palette

# normals
vn -1 0 0
vn 1 0 0
vn 0 0 1
vn 0 0 -1
vn 0 -1 0
vn 0 1 0

# texcoords
vt 0.0371094 0.5
vt 0.0683594 0.5

# verts
v -2.5 0 -0.5
v -2.5 0 -2.5
v -2.5 2 -0.5
v -2.5 2 -2.5
v -1.5 0 0.5
v -1.5 0 -0.5
v -1.5 2 0.5
v -1.5 2 -0.5
v -0.5 0 1.5
v -0.5 0 0.5
v -0.5 2 1.5
v -0.5 2 0.5
v 0.5 0 2.5
v 0.5 0 1.5
v 0.5 2 2.5
v 0.5 2 1.5
v -1.5 1 -0.5
v -1.5 1 -2.5
v -1.5 2 -0.5
v -1.5 2 -2.5
v -0.5 1 0.5
v -0.5 1 -0.5
v -0.5 2 0.5
v -0.5 2 -0.5
v 0.5 1 1.5
v 0.5 1 0.5
v 0.5 2 1.5
v 0.5 2 0.5
v 2.5 0 2.5
v 2.5 0 1.5
v 2.5 0 -2.5
v 2.5 1 1.5
v 2.5 1 -2.5
v 2.5 2 2.5
v 2.5 2 1.5
v 0.5 0 2.5
v 0.5 2 2.5
v 2.5 0 2.5
v 2.5 2 2.5
v -0.5 0 1.5
v -0.5 2 1.5
v 0.5 0 1.5
v 0.5 2 1.5
v -1.5 0 0.5
v -1.5 2 0.5
v -0.5 0 0.5
v -0.5 2 0.5
v -2.5 0 -0.5
v -2.5 2 -0.5
v -1.5 0 -0.5
v -1.5 2 -0.5
v 0.5 1 1.5
v 0.5 2 1.5
v 2.5 1 1.5
v 2.5 2 1.5
v -0.5 1 0.5
v -0.5 2 0.5
v 0.5 1 0.5
v 0.5 2 0.5
v -1.5 1 -0.5
v -1.5 2 -0.5
v -0.5 1 -0.5
v -0.5 2 -0.5
v -2.5 0 -2.5
v -2.5 2 -2.5
v -1.5 0 -2.5
v -1.5 1 -2.5
v -1.5 2 -2.5
v 2.5 0 -2.5
v 2.5 1 -2.5
v 0.5 0 2.5
v 2.5 0 2.5
v -0.5 0 1.5
v 0.5 0 1.5
v 2.5 0 1.5
v -1.5 0 0.5
v -0.5 0 0.5
v 0.5 0 0.5
v -2.5 0 -0.5
v -1.5 0 -0.5
v -0.5 0 -0.5
v -2.5 0 -2.5
v -1.5 0 -2.5
v 2.5 0 -2.5
v 0.5 1 1.5
v 2.5 1 1.5
v -0.5 1 0.5
v 0.5 1 0.5
v -1.5 1 -0.5
v -0.5 1 -0.5
v -1.5 1 -2.5
v 2.5 1 -2.5
v 0.5 2 2.5
v 2.5 2 2.5
v -0.5 2 1.5
v 0.5 2 1.5
v 2.5 2 1.5
v -1.5 2 0.5
v -0.5 2 0.5
v 0.5 2 0.5
v -2.5 2 -0.5
v -1.5 2 -0.5
v -0.5 2 -0.5
v -2.5 2 -2.5
v -1.5 2 -2.5

# faces
f 3/1/1 2/1/1 1/1/1
f 4/1/1 2/1/1 3/1/1
f 7/1/1 6/1/1 5/1/1
f 8/1/1 6/1/1 7/1/1
f 11/1/1 10/1/1 9/1/1
f 12/1/1 10/1/1 11/1/1
f 15/1/1 14/1/1 13/1/1
f 16/1/1 14/1/1 15/1/1
f 17/1/2 18/1/2 19/1/2
f 19/1/2 18/1/2 20/1/2
f 21/1/2 22/1/2 23/1/2
f 23/1/2 22/1/2 24/1/2
f 25/1/2 26/1/2 27/1/2
f 27/1/2 26/1/2 28/1/2
f 29/1/2 30/1/2 32/1/2
f 30/2/2 31/2/2 32/2/2
f 32/2/2 31/2/2 33/2/2
f 29/1/2 32/1/2 34/1/2
f 34/1/2 32/1/2 35/1/2
f 38/1/3 37/1/3 36/1/3
f 39/1/3 37/1/3 38/1/3
f 42/1/3 41/1/3 40/1/3
f 43/1/3 41/1/3 42/1/3
f 46/1/3 45/1/3 44/1/3
f 47/1/3 45/1/3 46/1/3
f 50/1/3 49/1/3 48/1/3
f 51/1/3 49/1/3 50/1/3
f 52/1/4 53/1/4 54/1/4
f 54/1/4 53/1/4 55/1/4
f 56/1/4 57/1/4 58/1/4
f 58/1/4 57/1/4 59/1/4
f 60/1/4 61/1/4 62/1/4
f 62/1/4 61/1/4 63/1/4
f 64/1/4 65/1/4 66/1/4
f 66/1/4 65/1/4 67/1/4
f 67/1/4 65/1/4 68/1/4
f 66/2/4 67/2/4 69/2/4
f 69/2/4 67/2/4 70/2/4
f 74/1/5 72/1/5 71/1/5
f 75/1/5 72/1/5 74/1/5
f 77/1/5 74/1/5 73/1/5
f 78/2/5 75/2/5 74/2/5
f 78/1/5 74/1/5 77/1/5
f 80/1/5 77/1/5 76/1/5
f 81/2/5 78/2/5 77/2/5
f 81/1/5 77/1/5 80/1/5
f 82/1/5 80/1/5 79/1/5
f 83/2/5 81/2/5 80/2/5
f 83/1/5 80/1/5 82/1/5
f 84/2/5 75/2/5 78/2/5
f 84/2/5 81/2/5 83/2/5
f 84/2/5 78/2/5 81/2/5
f 85/2/6 86/2/6 88/2/6
f 87/2/6 88/2/6 90/2/6
f 89/2/6 90/2/6 91/2/6
f 88/2/6 86/2/6 92/2/6
f 91/2/6 90/2/6 92/2/6
f 90/2/6 88/2/6 92/2/6
f 93/1/6 94/1/6 96/1/6
f 96/1/6 94/1/6 97/1/6
f 95/1/6 96/1/6 99/1/6
f 99/1/6 96/1/6 100/1/6
f 98/1/6 99/1/6 102/1/6
f 102/1/6 99/1/6 103/1/6
f 101/1/6 102/1/6 104/1/6
f 104/1/6 102/1/6 105/1/6
