# This file uses centimeters as units for non-parametric coordinates.

mtllib up.mtl
g default
v -0.500000 -1.500000 1.000000
v -0.500000 0.500000 1.000000
v -0.500000 -1.500000 2.000000
v -0.500000 -0.500000 2.000000
v -0.500000 -0.500000 3.000000
v -0.500000 0.500000 3.000000
v 0.500000 -1.500000 1.000000
v 0.500000 0.500000 1.000000
v 0.500000 -1.500000 2.000000
v 0.500000 -0.500000 2.000000
v 0.500000 -0.500000 3.000000
v 0.500000 0.500000 3.000000
v -0.500000 -1.500000 1.000000
v -0.500000 -1.500000 2.000000
v 0.500000 -1.500000 1.000000
v 0.500000 -1.500000 2.000000
v -0.500000 -0.500000 2.000000
v -0.500000 -0.500000 3.000000
v 0.500000 -0.500000 2.000000
v 0.500000 -0.500000 3.000000
v -0.500000 0.500000 1.000000
v -0.500000 0.500000 3.000000
v 0.500000 0.500000 1.000000
v 0.500000 0.500000 3.000000
v -0.500000 -1.500000 1.000000
v 0.500000 -1.500000 1.000000
v -0.500000 0.500000 1.000000
v 0.500000 0.500000 1.000000
v -0.500000 -1.500000 2.000000
v 0.500000 -1.500000 2.000000
v -0.500000 -0.500000 2.000000
v 0.500000 -0.500000 2.000000
v -0.500000 -0.500000 3.000000
v 0.500000 -0.500000 3.000000
v -0.500000 0.500000 3.000000
v 0.500000 0.500000 3.000000
vt 0.044922 0.500000
vt 0.044922 0.500000
vt 0.044922 0.500000
vt 0.044922 0.500000
vt 0.044922 0.500000
vt 0.044922 0.500000
vt 0.044922 0.500000
vt 0.044922 0.500000
vt 0.044922 0.500000
vt 0.044922 0.500000
vt 0.044922 0.500000
vt 0.044922 0.500000
vt 0.044922 0.500000
vt 0.044922 0.500000
vt 0.044922 0.500000
vt 0.044922 0.500000
vt 0.044922 0.500000
vt 0.044922 0.500000
vt 0.044922 0.500000
vt 0.044922 0.500000
vt 0.044922 0.500000
vt 0.044922 0.500000
vt 0.044922 0.500000
vt 0.044922 0.500000
vt 0.044922 0.500000
vt 0.044922 0.500000
vt 0.044922 0.500000
vt 0.044922 0.500000
vt 0.044922 0.500000
vt 0.044922 0.500000
vt 0.044922 0.500000
vt 0.044922 0.500000
vt 0.044922 0.500000
vt 0.044922 0.500000
vt 0.044922 0.500000
vt 0.044922 0.500000
vt 0.044922 0.500000
vt 0.044922 0.500000
vt 0.044922 0.500000
vt 0.044922 0.500000
vt 0.044922 0.500000
vt 0.044922 0.500000
vt 0.044922 0.500000
vt 0.044922 0.500000
vt 0.044922 0.500000
vt 0.044922 0.500000
vt 0.044922 0.500000
vt 0.044922 0.500000
vt 0.044922 0.500000
vt 0.044922 0.500000
vt 0.044922 0.500000
vt 0.044922 0.500000
vt 0.044922 0.500000
vt 0.044922 0.500000
vt 0.044922 0.500000
vt 0.044922 0.500000
vt 0.044922 0.500000
vt 0.044922 0.500000
vt 0.044922 0.500000
vn -1.000000 0.000000 0.000000
vn -1.000000 0.000000 0.000000
vn -1.000000 0.000000 0.000000
vn -1.000000 0.000000 0.000000
vn -1.000000 0.000000 0.000000
vn -1.000000 0.000000 0.000000
vn -1.000000 0.000000 0.000000
vn -1.000000 0.000000 0.000000
vn -1.000000 0.000000 0.000000
vn -1.000000 0.000000 0.000000
vn -1.000000 0.000000 0.000000
vn -1.000000 0.000000 0.000000
vn 1.000000 0.000000 0.000000
vn 1.000000 0.000000 0.000000
vn 1.000000 0.000000 0.000000
vn 1.000000 0.000000 0.000000
vn 1.000000 0.000000 0.000000
vn 1.000000 0.000000 0.000000
vn 1.000000 0.000000 0.000000
vn 1.000000 0.000000 0.000000
vn 1.000000 0.000000 0.000000
vn 1.000000 0.000000 0.000000
vn 1.000000 0.000000 0.000000
vn 1.000000 0.000000 0.000000
vn 0.000000 -1.000000 0.000000
vn 0.000000 -1.000000 0.000000
vn 0.000000 -1.000000 0.000000
vn 0.000000 -1.000000 0.000000
vn 0.000000 -1.000000 0.000000
vn 0.000000 -1.000000 0.000000
vn 0.000000 -1.000000 0.000000
vn 0.000000 -1.000000 0.000000
vn 0.000000 -1.000000 0.000000
vn 0.000000 -1.000000 0.000000
vn 0.000000 -1.000000 0.000000
vn 0.000000 -1.000000 0.000000
vn 0.000000 1.000000 -0.000000
vn 0.000000 1.000000 -0.000000
vn 0.000000 1.000000 -0.000000
vn 0.000000 1.000000 -0.000000
vn 0.000000 1.000000 -0.000000
vn 0.000000 1.000000 -0.000000
vn 0.000000 -0.000000 -1.000000
vn 0.000000 -0.000000 -1.000000
vn 0.000000 -0.000000 -1.000000
vn 0.000000 -0.000000 -1.000000
vn 0.000000 -0.000000 -1.000000
vn 0.000000 -0.000000 -1.000000
vn 0.000000 0.000000 1.000000
vn 0.000000 0.000000 1.000000
vn 0.000000 0.000000 1.000000
vn 0.000000 0.000000 1.000000
vn 0.000000 0.000000 1.000000
vn 0.000000 0.000000 1.000000
vn 0.000000 0.000000 1.000000
vn 0.000000 0.000000 1.000000
vn 0.000000 0.000000 1.000000
vn 0.000000 0.000000 1.000000
vn 0.000000 0.000000 1.000000
vn 0.000000 0.000000 1.000000
s off
g up
usemtl up_palette
f 3/1/1 2/2/2 1/3/3
f 4/4/4 2/5/5 3/1/6
f 5/6/7 2/7/8 4/8/9
f 6/9/10 2/10/11 5/11/12
f 7/12/13 8/13/14 9/14/15
f 9/15/16 8/16/17 10/17/18
f 10/18/19 8/19/20 11/20/21
f 11/21/22 8/22/23 12/23/24
f 15/24/25 14/25/26 13/26/27
f 16/27/28 14/28/29 15/29/30
f 19/30/31 18/31/32 17/32/33
f 20/33/34 18/34/35 19/35/36
f 21/36/37 22/37/38 23/38/39
f 23/39/40 22/40/41 24/41/42
f 27/42/43 26/43/44 25/44/45
f 28/45/46 26/46/47 27/47/48
f 29/48/49 30/49/50 31/50/51
f 31/51/52 30/52/53 32/53/54
f 33/54/55 34/55/56 35/56/57
f 35/57/58 34/58/59 36/59/60
