# MagicaVoxel @ Ephtracy

# group
g wallroof1

# material
mtllib wallroof1.mtl
usemtl palette

# normals
vn -1 0 0
vn 1 0 0
vn 0 0 1
vn 0 0 -1
vn 0 -1 0
vn 0 1 0

# texcoords
vt 0.396484 0.5
vt 0.986328 0.5

# verts
v -2.5 1 -0.5
v -2.5 1 -2.5
v -2.5 2 -0.5
v -2.5 2 -2.5
v -2.5 3 -1.5
v -2.5 3 -2.5
v -2.5 5 -0.5
v -2.5 5 -1.5
v -1.5 0 -0.5
v -1.5 0 -2.5
v -1.5 1 0.5
v -1.5 1 -0.5
v -1.5 1 -2.5
v -1.5 2 0.5
v -1.5 2 -0.5
v -1.5 3 0.5
v -1.5 3 -0.5
v -0.5 0 0.5
v -0.5 0 -0.5
v -0.5 1 1.5
v -0.5 1 0.5
v -0.5 1 -0.5
v -0.5 2 1.5
v -0.5 2 0.5
v -0.5 3 1.5
v -0.5 3 0.5
v 0.5 0 1.5
v 0.5 0 0.5
v 0.5 1 2.5
v 0.5 1 1.5
v 0.5 1 0.5
v 0.5 2 2.5
v 0.5 2 1.5
v 0.5 3 1.5
v 0.5 5 2.5
v 0.5 5 1.5
v -1.5 1 -0.5
v -1.5 1 -2.5
v -1.5 2 -0.5
v -1.5 2 -2.5
v -1.5 3 -0.5
v -1.5 3 -1.5
v -1.5 3 -2.5
v -1.5 5 -0.5
v -1.5 5 -1.5
v -0.5 1 0.5
v -0.5 1 -0.5
v -0.5 2 0.5
v -0.5 2 -0.5
v -0.5 3 0.5
v -0.5 3 -0.5
v 0.5 1 1.5
v 0.5 1 0.5
v 0.5 2 1.5
v 0.5 2 0.5
v 0.5 3 1.5
v 0.5 3 0.5
v 1.5 3 2.5
v 1.5 3 1.5
v 1.5 5 2.5
v 1.5 5 1.5
v 2.5 0 1.5
v 2.5 0 0.5
v 2.5 0 -2.5
v 2.5 1 2.5
v 2.5 1 1.5
v 2.5 1 0.5
v 2.5 1 -2.5
v 2.5 2 2.5
v 2.5 2 1.5
v 2.5 3 2.5
v 2.5 3 1.5
v 0.5 1 2.5
v 0.5 2 2.5
v 0.5 5 2.5
v 1.5 3 2.5
v 1.5 5 2.5
v 2.5 1 2.5
v 2.5 2 2.5
v 2.5 3 2.5
v -0.5 1 1.5
v -0.5 2 1.5
v -0.5 3 1.5
v 0.5 0 1.5
v 0.5 1 1.5
v 0.5 2 1.5
v 0.5 3 1.5
v 2.5 0 1.5
v 2.5 1 1.5
v -1.5 1 0.5
v -1.5 2 0.5
v -1.5 3 0.5
v -0.5 0 0.5
v -0.5 1 0.5
v -0.5 2 0.5
v -0.5 3 0.5
v 0.5 0 0.5
v 0.5 1 0.5
v -2.5 1 -0.5
v -2.5 2 -0.5
v -2.5 5 -0.5
v -1.5 0 -0.5
v -1.5 1 -0.5
v -1.5 2 -0.5
v -1.5 3 -0.5
v -1.5 5 -0.5
v -0.5 0 -0.5
v -0.5 1 -0.5
v 0.5 1 1.5
v 0.5 2 1.5
v 0.5 3 1.5
v 0.5 5 1.5
v 1.5 3 1.5
v 1.5 5 1.5
v 2.5 1 1.5
v 2.5 2 1.5
v 2.5 3 1.5
v -0.5 1 0.5
v -0.5 2 0.5
v -0.5 3 0.5
v 0.5 1 0.5
v 0.5 2 0.5
v 0.5 3 0.5
v -1.5 1 -0.5
v -1.5 2 -0.5
v -1.5 3 -0.5
v -0.5 1 -0.5
v -0.5 2 -0.5
v -0.5 3 -0.5
v -2.5 3 -1.5
v -2.5 5 -1.5
v -1.5 3 -1.5
v -1.5 5 -1.5
v -2.5 1 -2.5
v -2.5 2 -2.5
v -2.5 3 -2.5
v -1.5 0 -2.5
v -1.5 1 -2.5
v -1.5 2 -2.5
v -1.5 3 -2.5
v -0.5 0 -2.5
v -0.5 1 -2.5
v 2.5 0 -2.5
v 2.5 1 -2.5
v 0.5 0 1.5
v 2.5 0 1.5
v -0.5 0 0.5
v 0.5 0 0.5
v 2.5 0 0.5
v -1.5 0 -0.5
v -0.5 0 -0.5
v 0.5 0 -0.5
v -1.5 0 -2.5
v -0.5 0 -2.5
v 2.5 0 -2.5
v 0.5 1 2.5
v 2.5 1 2.5
v -0.5 1 1.5
v 0.5 1 1.5
v 2.5 1 1.5
v -1.5 1 0.5
v -0.5 1 0.5
v 0.5 1 0.5
v -2.5 1 -0.5
v -1.5 1 -0.5
v -0.5 1 -0.5
v -2.5 1 -2.5
v -1.5 1 -2.5
v 0.5 1 1.5
v 2.5 1 1.5
v -0.5 1 0.5
v 0.5 1 0.5
v 2.5 1 0.5
v -1.5 1 -0.5
v -0.5 1 -0.5
v 0.5 1 -0.5
v -1.5 1 -2.5
v -0.5 1 -2.5
v 2.5 1 -2.5
v 1.5 3 2.5
v 2.5 3 2.5
v -0.5 3 1.5
v 0.5 3 1.5
v 1.5 3 1.5
v 2.5 3 1.5
v -1.5 3 0.5
v -0.5 3 0.5
v 0.5 3 0.5
v -1.5 3 -0.5
v -0.5 3 -0.5
v -2.5 3 -1.5
v -1.5 3 -1.5
v -2.5 3 -2.5
v -1.5 3 -2.5
v 0.5 5 2.5
v 1.5 5 2.5
v 0.5 5 1.5
v 1.5 5 1.5
v -2.5 5 -0.5
v -1.5 5 -0.5
v -2.5 5 -1.5
v -1.5 5 -1.5

# faces
f 3/1/1 2/1/1 1/1/1
f 4/1/1 2/1/1 3/1/1
f 5/2/1 4/2/1 3/2/1
f 6/2/1 4/2/1 5/2/1
f 7/2/1 5/2/1 3/2/1
f 8/2/1 5/2/1 7/2/1
f 12/2/1 10/2/1 9/2/1
f 13/2/1 10/2/1 12/2/1
f 14/1/1 12/1/1 11/1/1
f 15/1/1 12/1/1 14/1/1
f 16/2/1 15/2/1 14/2/1
f 17/2/1 15/2/1 16/2/1
f 21/2/1 19/2/1 18/2/1
f 22/2/1 19/2/1 21/2/1
f 23/1/1 21/1/1 20/1/1
f 24/1/1 21/1/1 23/1/1
f 25/2/1 24/2/1 23/2/1
f 26/2/1 24/2/1 25/2/1
f 30/2/1 28/2/1 27/2/1
f 31/2/1 28/2/1 30/2/1
f 32/1/1 30/1/1 29/1/1
f 33/1/1 30/1/1 32/1/1
f 34/2/1 33/2/1 32/2/1
f 35/2/1 34/2/1 32/2/1
f 36/2/1 34/2/1 35/2/1
f 37/1/2 38/1/2 39/1/2
f 39/1/2 38/1/2 40/1/2
f 39/2/2 40/2/2 41/2/2
f 41/2/2 40/2/2 42/2/2
f 42/2/2 40/2/2 43/2/2
f 41/2/2 42/2/2 44/2/2
f 44/2/2 42/2/2 45/2/2
f 46/1/2 47/1/2 48/1/2
f 48/1/2 47/1/2 49/1/2
f 48/2/2 49/2/2 50/2/2
f 50/2/2 49/2/2 51/2/2
f 52/1/2 53/1/2 54/1/2
f 54/1/2 53/1/2 55/1/2
f 54/2/2 55/2/2 56/2/2
f 56/2/2 55/2/2 57/2/2
f 58/2/2 59/2/2 60/2/2
f 60/2/2 59/2/2 61/2/2
f 62/2/2 63/2/2 66/2/2
f 63/1/2 64/1/2 67/1/2
f 66/2/2 63/2/2 67/2/2
f 67/1/2 64/1/2 68/1/2
f 65/1/2 66/1/2 69/1/2
f 69/1/2 66/1/2 70/1/2
f 69/2/2 70/2/2 71/2/2
f 71/2/2 70/2/2 72/2/2
f 76/2/3 75/2/3 74/2/3
f 77/2/3 75/2/3 76/2/3
f 78/1/3 74/1/3 73/1/3
f 79/2/3 76/2/3 74/2/3
f 79/1/3 74/1/3 78/1/3
f 80/2/3 76/2/3 79/2/3
f 85/1/3 82/1/3 81/1/3
f 86/2/3 83/2/3 82/2/3
f 86/1/3 82/1/3 85/1/3
f 87/2/3 83/2/3 86/2/3
f 88/2/3 85/2/3 84/2/3
f 89/2/3 85/2/3 88/2/3
f 94/1/3 91/1/3 90/1/3
f 95/2/3 92/2/3 91/2/3
f 95/1/3 91/1/3 94/1/3
f 96/2/3 92/2/3 95/2/3
f 97/2/3 94/2/3 93/2/3
f 98/2/3 94/2/3 97/2/3
f 103/1/3 100/1/3 99/1/3
f 104/2/3 101/2/3 100/2/3
f 104/1/3 100/1/3 103/1/3
f 105/2/3 101/2/3 104/2/3
f 106/2/3 101/2/3 105/2/3
f 107/2/3 103/2/3 102/2/3
f 108/2/3 103/2/3 107/2/3
f 110/2/4 111/2/4 113/2/4
f 111/2/4 112/2/4 113/2/4
f 113/2/4 112/2/4 114/2/4
f 109/1/4 110/1/4 115/1/4
f 110/2/4 113/2/4 116/2/4
f 115/1/4 110/1/4 116/1/4
f 116/2/4 113/2/4 117/2/4
f 118/1/4 119/1/4 121/1/4
f 119/2/4 120/2/4 122/2/4
f 121/1/4 119/1/4 122/1/4
f 122/2/4 120/2/4 123/2/4
f 124/1/4 125/1/4 127/1/4
f 125/2/4 126/2/4 128/2/4
f 127/1/4 125/1/4 128/1/4
f 128/2/4 126/2/4 129/2/4
f 130/2/4 131/2/4 132/2/4
f 132/2/4 131/2/4 133/2/4
f 134/1/4 135/1/4 138/1/4
f 135/2/4 136/2/4 139/2/4
f 138/1/4 135/1/4 139/1/4
f 139/2/4 136/2/4 140/2/4
f 137/2/4 138/2/4 141/2/4
f 141/2/4 138/2/4 142/2/4
f 141/1/4 142/1/4 143/1/4
f 143/1/4 142/1/4 144/1/4
f 148/2/5 146/2/5 145/2/5
f 149/2/5 146/2/5 148/2/5
f 151/2/5 148/2/5 147/2/5
f 152/1/5 149/1/5 148/1/5
f 152/2/5 148/2/5 151/2/5
f 153/2/5 151/2/5 150/2/5
f 154/1/5 152/1/5 151/1/5
f 154/2/5 151/2/5 153/2/5
f 155/1/5 149/1/5 152/1/5
f 155/1/5 152/1/5 154/1/5
f 159/1/5 157/1/5 156/1/5
f 160/1/5 157/1/5 159/1/5
f 162/1/5 159/1/5 158/1/5
f 163/1/5 159/1/5 162/1/5
f 165/1/5 162/1/5 161/1/5
f 166/1/5 162/1/5 165/1/5
f 167/1/5 165/1/5 164/1/5
f 168/1/5 165/1/5 167/1/5
f 169/2/6 170/2/6 172/2/6
f 172/2/6 170/2/6 173/2/6
f 171/2/6 172/2/6 175/2/6
f 172/1/6 173/1/6 176/1/6
f 175/2/6 172/2/6 176/2/6
f 174/2/6 175/2/6 177/2/6
f 175/1/6 176/1/6 178/1/6
f 177/2/6 175/2/6 178/2/6
f 176/1/6 173/1/6 179/1/6
f 178/1/6 176/1/6 179/1/6
f 180/2/6 181/2/6 184/2/6
f 184/2/6 181/2/6 185/2/6
f 182/2/6 183/2/6 187/2/6
f 187/2/6 183/2/6 188/2/6
f 186/2/6 187/2/6 189/2/6
f 189/2/6 187/2/6 190/2/6
f 191/2/6 192/2/6 193/2/6
f 193/2/6 192/2/6 194/2/6
f 195/2/6 196/2/6 197/2/6
f 197/2/6 196/2/6 198/2/6
f 199/2/6 200/2/6 201/2/6
f 201/2/6 200/2/6 202/2/6
