# This file uses centimeters as units for non-parametric coordinates.

mtllib wall1.mtl
g default
v -2.000000 -2.000000 0.000000
v -2.000000 2.000000 -0.000000
v -2.000000 -2.000000 1.000000
v -2.000000 2.000000 1.000000
v -2.000000 -1.000000 3.000000
v -2.000000 1.000000 3.000000
v -2.000000 -2.000000 4.000000
v -2.000000 -1.000000 4.000000
v -2.000000 1.000000 4.000000
v -2.000000 2.000000 4.000000
v 0.000000 -2.000000 3.000000
v 0.000000 -1.000000 3.000000
v 0.000000 1.000000 3.000000
v 0.000000 2.000000 3.000000
v 0.000000 -2.000000 4.000000
v 0.000000 -1.000000 4.000000
v 0.000000 1.000000 4.000000
v 0.000000 2.000000 4.000000
v -1.000000 -2.000000 3.000000
v -1.000000 -1.000000 3.000000
v -1.000000 1.000000 3.000000
v -1.000000 2.000000 3.000000
v -1.000000 -2.000000 4.000000
v -1.000000 -1.000000 4.000000
v -1.000000 1.000000 4.000000
v -1.000000 2.000000 4.000000
v 1.000000 -2.000000 3.000000
v 1.000000 -1.000000 3.000000
v 1.000000 1.000000 3.000000
v 1.000000 2.000000 3.000000
v 1.000000 -2.000000 4.000000
v 1.000000 -1.000000 4.000000
v 1.000000 1.000000 4.000000
v 1.000000 2.000000 4.000000
v 2.000000 -2.000000 0.000000
v 2.000000 2.000000 -0.000000
v 2.000000 -2.000000 1.000000
v 2.000000 2.000000 1.000000
v 2.000000 -2.000000 3.000000
v 2.000000 2.000000 3.000000
v -2.000000 -2.000000 0.000000
v -2.000000 -2.000000 1.000000
v -2.000000 -2.000000 4.000000
v -1.000000 -2.000000 3.000000
v -1.000000 -2.000000 4.000000
v 0.000000 -2.000000 3.000000
v 0.000000 -2.000000 4.000000
v 1.000000 -2.000000 3.000000
v 1.000000 -2.000000 4.000000
v 2.000000 -2.000000 0.000000
v 2.000000 -2.000000 1.000000
v 2.000000 -2.000000 3.000000
v -2.000000 1.000000 3.000000
v -2.000000 1.000000 4.000000
v -1.000000 1.000000 3.000000
v -1.000000 1.000000 4.000000
v 0.000000 1.000000 3.000000
v 0.000000 1.000000 4.000000
v 1.000000 1.000000 3.000000
v 1.000000 1.000000 4.000000
v -2.000000 -1.000000 3.000000
v -2.000000 -1.000000 4.000000
v -1.000000 -1.000000 3.000000
v -1.000000 -1.000000 4.000000
v 0.000000 -1.000000 3.000000
v 0.000000 -1.000000 4.000000
v 1.000000 -1.000000 3.000000
v 1.000000 -1.000000 4.000000
v -2.000000 2.000000 -0.000000
v -2.000000 2.000000 1.000000
v -2.000000 2.000000 4.000000
v -1.000000 2.000000 3.000000
v -1.000000 2.000000 4.000000
v 0.000000 2.000000 3.000000
v 0.000000 2.000000 4.000000
v 1.000000 2.000000 3.000000
v 1.000000 2.000000 4.000000
v 2.000000 2.000000 -0.000000
v 2.000000 2.000000 1.000000
v 2.000000 2.000000 3.000000
v -2.000000 -2.000000 0.000000
v 2.000000 -2.000000 0.000000
v -2.000000 2.000000 -0.000000
v 2.000000 2.000000 -0.000000
v -1.000000 -2.000000 3.000000
v 0.000000 -2.000000 3.000000
v 1.000000 -2.000000 3.000000
v 2.000000 -2.000000 3.000000
v -2.000000 -1.000000 3.000000
v -1.000000 -1.000000 3.000000
v 0.000000 -1.000000 3.000000
v 1.000000 -1.000000 3.000000
v -2.000000 1.000000 3.000000
v -1.000000 1.000000 3.000000
v 0.000000 1.000000 3.000000
v 1.000000 1.000000 3.000000
v -1.000000 2.000000 3.000000
v 0.000000 2.000000 3.000000
v 1.000000 2.000000 3.000000
v 2.000000 2.000000 3.000000
v -2.000000 -2.000000 4.000000
v -1.000000 -2.000000 4.000000
v 0.000000 -2.000000 4.000000
v 1.000000 -2.000000 4.000000
v -2.000000 -1.000000 4.000000
v -1.000000 -1.000000 4.000000
v 0.000000 -1.000000 4.000000
v 1.000000 -1.000000 4.000000
v -2.000000 1.000000 4.000000
v -1.000000 1.000000 4.000000
v 0.000000 1.000000 4.000000
v 1.000000 1.000000 4.000000
v -2.000000 2.000000 4.000000
v -1.000000 2.000000 4.000000
v 0.000000 2.000000 4.000000
v 1.000000 2.000000 4.000000
vt 0.962891 0.500000
vt 0.986328 0.500000
vt 0.962891 0.500000
vt 0.962891 0.500000
vt 0.962891 0.500000
vt 0.962891 0.500000
vt 0.986328 0.500000
vt 0.986328 0.500000
vt 0.986328 0.500000
vt 0.986328 0.500000
vt 0.986328 0.500000
vt 0.986328 0.500000
vt 0.986328 0.500000
vt 0.986328 0.500000
vt 0.986328 0.500000
vt 0.986328 0.500000
vt 0.986328 0.500000
vt 0.986328 0.500000
vt 0.986328 0.500000
vt 0.986328 0.500000
vt 0.986328 0.500000
vt 0.986328 0.500000
vt 0.986328 0.500000
vt 0.986328 0.500000
vt 0.986328 0.500000
vt 0.986328 0.500000
vt 0.986328 0.500000
vt 0.986328 0.500000
vt 0.986328 0.500000
vt 0.986328 0.500000
vt 0.986328 0.500000
vt 0.986328 0.500000
vt 0.986328 0.500000
vt 0.986328 0.500000
vt 0.986328 0.500000
vt 0.986328 0.500000
vt 0.986328 0.500000
vt 0.986328 0.500000
vt 0.986328 0.500000
vt 0.986328 0.500000
vt 0.986328 0.500000
vt 0.986328 0.500000
vt 0.986328 0.500000
vt 0.986328 0.500000
vt 0.986328 0.500000
vt 0.986328 0.500000
vt 0.986328 0.500000
vt 0.986328 0.500000
vt 0.986328 0.500000
vt 0.986328 0.500000
vt 0.986328 0.500000
vt 0.986328 0.500000
vt 0.986328 0.500000
vt 0.986328 0.500000
vt 0.986328 0.500000
vt 0.986328 0.500000
vt 0.962891 0.500000
vt 0.962891 0.500000
vt 0.962891 0.500000
vt 0.962891 0.500000
vt 0.962891 0.500000
vt 0.962891 0.500000
vt 0.986328 0.500000
vt 0.986328 0.500000
vt 0.986328 0.500000
vt 0.986328 0.500000
vt 0.986328 0.500000
vt 0.986328 0.500000
vt 0.986328 0.500000
vt 0.986328 0.500000
vt 0.986328 0.500000
vt 0.986328 0.500000
vt 0.986328 0.500000
vt 0.986328 0.500000
vt 0.986328 0.500000
vt 0.986328 0.500000
vt 0.986328 0.500000
vt 0.986328 0.500000
vt 0.986328 0.500000
vt 0.986328 0.500000
vt 0.986328 0.500000
vt 0.986328 0.500000
vt 0.986328 0.500000
vt 0.986328 0.500000
vt 0.986328 0.500000
vt 0.986328 0.500000
vt 0.962891 0.500000
vt 0.962891 0.500000
vt 0.962891 0.500000
vt 0.986328 0.500000
vt 0.986328 0.500000
vt 0.986328 0.500000
vt 0.962891 0.500000
vt 0.962891 0.500000
vt 0.962891 0.500000
vt 0.986328 0.500000
vt 0.986328 0.500000
vt 0.986328 0.500000
vt 0.986328 0.500000
vt 0.986328 0.500000
vt 0.986328 0.500000
vt 0.986328 0.500000
vt 0.986328 0.500000
vt 0.986328 0.500000
vt 0.986328 0.500000
vt 0.986328 0.500000
vt 0.986328 0.500000
vt 0.986328 0.500000
vt 0.986328 0.500000
vt 0.986328 0.500000
vt 0.986328 0.500000
vt 0.986328 0.500000
vt 0.986328 0.500000
vt 0.986328 0.500000
vt 0.986328 0.500000
vt 0.986328 0.500000
vt 0.986328 0.500000
vt 0.986328 0.500000
vt 0.986328 0.500000
vt 0.986328 0.500000
vt 0.986328 0.500000
vt 0.986328 0.500000
vt 0.986328 0.500000
vt 0.986328 0.500000
vt 0.986328 0.500000
vt 0.986328 0.500000
vt 0.986328 0.500000
vt 0.986328 0.500000
vt 0.986328 0.500000
vt 0.986328 0.500000
vt 0.986328 0.500000
vt 0.986328 0.500000
vt 0.986328 0.500000
vt 0.986328 0.500000
vt 0.986328 0.500000
vt 0.986328 0.500000
vt 0.986328 0.500000
vt 0.986328 0.500000
vt 0.986328 0.500000
vt 0.986328 0.500000
vt 0.962891 0.500000
vt 0.962891 0.500000
vt 0.962891 0.500000
vt 0.986328 0.500000
vt 0.986328 0.500000
vt 0.986328 0.500000
vt 0.962891 0.500000
vt 0.962891 0.500000
vt 0.962891 0.500000
vt 0.986328 0.500000
vt 0.986328 0.500000
vt 0.986328 0.500000
vt 0.962891 0.500000
vt 0.962891 0.500000
vt 0.962891 0.500000
vt 0.962891 0.500000
vt 0.962891 0.500000
vt 0.962891 0.500000
vt 0.986328 0.500000
vt 0.986328 0.500000
vt 0.986328 0.500000
vt 0.986328 0.500000
vt 0.986328 0.500000
vt 0.986328 0.500000
vt 0.986328 0.500000
vt 0.986328 0.500000
vt 0.986328 0.500000
vt 0.986328 0.500000
vt 0.986328 0.500000
vt 0.986328 0.500000
vt 0.986328 0.500000
vt 0.986328 0.500000
vt 0.986328 0.500000
vt 0.986328 0.500000
vt 0.986328 0.500000
vt 0.986328 0.500000
vt 0.986328 0.500000
vt 0.986328 0.500000
vt 0.986328 0.500000
vt 0.986328 0.500000
vt 0.986328 0.500000
vt 0.986328 0.500000
vt 0.986328 0.500000
vt 0.986328 0.500000
vt 0.986328 0.500000
vt 0.986328 0.500000
vt 0.986328 0.500000
vt 0.986328 0.500000
vt 0.986328 0.500000
vt 0.986328 0.500000
vt 0.986328 0.500000
vt 0.986328 0.500000
vt 0.986328 0.500000
vt 0.986328 0.500000
vt 0.986328 0.500000
vt 0.986328 0.500000
vt 0.986328 0.500000
vt 0.986328 0.500000
vt 0.986328 0.500000
vt 0.986328 0.500000
vt 0.986328 0.500000
vt 0.986328 0.500000
vt 0.986328 0.500000
vt 0.986328 0.500000
vt 0.986328 0.500000
vt 0.986328 0.500000
vt 0.986328 0.500000
vt 0.986328 0.500000
vt 0.986328 0.500000
vt 0.986328 0.500000
vt 0.986328 0.500000
vt 0.986328 0.500000
vt 0.986328 0.500000
vt 0.986328 0.500000
vt 0.986328 0.500000
vt 0.986328 0.500000
vt 0.986328 0.500000
vt 0.986328 0.500000
vt 0.986328 0.500000
vt 0.986328 0.500000
vt 0.986328 0.500000
vt 0.986328 0.500000
vt 0.986328 0.500000
vt 0.986328 0.500000
vn -1.000000 0.000000 0.000000
vn -1.000000 0.000000 0.000000
vn -1.000000 0.000000 0.000000
vn -1.000000 0.000000 0.000000
vn -1.000000 0.000000 0.000000
vn -1.000000 0.000000 0.000000
vn -1.000000 0.000000 0.000000
vn -1.000000 0.000000 0.000000
vn -1.000000 0.000000 0.000000
vn -1.000000 0.000000 0.000000
vn -1.000000 0.000000 0.000000
vn -1.000000 0.000000 0.000000
vn -1.000000 0.000000 0.000000
vn -1.000000 0.000000 0.000000
vn -1.000000 0.000000 0.000000
vn -1.000000 0.000000 0.000000
vn -1.000000 0.000000 0.000000
vn -1.000000 0.000000 0.000000
vn -1.000000 0.000000 0.000000
vn -1.000000 0.000000 0.000000
vn -1.000000 0.000000 0.000000
vn -1.000000 0.000000 0.000000
vn -1.000000 0.000000 0.000000
vn -1.000000 0.000000 0.000000
vn -1.000000 0.000000 0.000000
vn -1.000000 0.000000 0.000000
vn -1.000000 0.000000 0.000000
vn -1.000000 0.000000 0.000000
vn -1.000000 0.000000 0.000000
vn -1.000000 0.000000 0.000000
vn -1.000000 0.000000 0.000000
vn -1.000000 0.000000 0.000000
vn -1.000000 0.000000 0.000000
vn -1.000000 0.000000 0.000000
vn -1.000000 0.000000 0.000000
vn -1.000000 0.000000 0.000000
vn 1.000000 0.000000 0.000000
vn 1.000000 0.000000 0.000000
vn 1.000000 0.000000 0.000000
vn 1.000000 0.000000 0.000000
vn 1.000000 0.000000 0.000000
vn 1.000000 0.000000 0.000000
vn 1.000000 0.000000 0.000000
vn 1.000000 0.000000 0.000000
vn 1.000000 0.000000 0.000000
vn 1.000000 0.000000 0.000000
vn 1.000000 0.000000 0.000000
vn 1.000000 0.000000 0.000000
vn 1.000000 0.000000 0.000000
vn 1.000000 0.000000 0.000000
vn 1.000000 0.000000 0.000000
vn 1.000000 0.000000 0.000000
vn 1.000000 0.000000 0.000000
vn 1.000000 0.000000 0.000000
vn 1.000000 0.000000 0.000000
vn 1.000000 0.000000 0.000000
vn 1.000000 0.000000 0.000000
vn 1.000000 0.000000 0.000000
vn 1.000000 0.000000 0.000000
vn 1.000000 0.000000 0.000000
vn 1.000000 0.000000 0.000000
vn 1.000000 0.000000 0.000000
vn 1.000000 0.000000 0.000000
vn 1.000000 0.000000 0.000000
vn 1.000000 0.000000 0.000000
vn 1.000000 0.000000 0.000000
vn 1.000000 0.000000 0.000000
vn 1.000000 0.000000 0.000000
vn 1.000000 0.000000 0.000000
vn 1.000000 0.000000 0.000000
vn 1.000000 0.000000 0.000000
vn 1.000000 0.000000 0.000000
vn 0.000000 -1.000000 0.000000
vn 0.000000 -1.000000 0.000000
vn 0.000000 -1.000000 0.000000
vn 0.000000 -1.000000 0.000000
vn 0.000000 -1.000000 0.000000
vn 0.000000 -1.000000 0.000000
vn 0.000000 -1.000000 0.000000
vn 0.000000 -1.000000 0.000000
vn 0.000000 -1.000000 0.000000
vn 0.000000 -1.000000 0.000000
vn 0.000000 -1.000000 0.000000
vn 0.000000 -1.000000 0.000000
vn 0.000000 -1.000000 0.000000
vn 0.000000 -1.000000 0.000000
vn 0.000000 -1.000000 0.000000
vn 0.000000 -1.000000 0.000000
vn 0.000000 -1.000000 0.000000
vn 0.000000 -1.000000 0.000000
vn 0.000000 -1.000000 0.000000
vn 0.000000 -1.000000 0.000000
vn 0.000000 -1.000000 0.000000
vn 0.000000 -1.000000 0.000000
vn 0.000000 -1.000000 0.000000
vn 0.000000 -1.000000 0.000000
vn 0.000000 -1.000000 0.000000
vn 0.000000 -1.000000 0.000000
vn 0.000000 -1.000000 0.000000
vn 0.000000 -1.000000 0.000000
vn 0.000000 -1.000000 0.000000
vn 0.000000 -1.000000 0.000000
vn 0.000000 -1.000000 0.000000
vn 0.000000 -1.000000 0.000000
vn 0.000000 -1.000000 0.000000
vn 0.000000 -1.000000 0.000000
vn 0.000000 -1.000000 0.000000
vn 0.000000 -1.000000 0.000000
vn 0.000000 -1.000000 0.000000
vn 0.000000 -1.000000 0.000000
vn 0.000000 -1.000000 0.000000
vn 0.000000 -1.000000 0.000000
vn 0.000000 -1.000000 0.000000
vn 0.000000 -1.000000 0.000000
vn 0.000000 1.000000 -0.000000
vn 0.000000 1.000000 -0.000000
vn 0.000000 1.000000 -0.000000
vn 0.000000 1.000000 -0.000000
vn 0.000000 1.000000 -0.000000
vn 0.000000 1.000000 -0.000000
vn 0.000000 1.000000 -0.000000
vn 0.000000 1.000000 -0.000000
vn 0.000000 1.000000 -0.000000
vn 0.000000 1.000000 -0.000000
vn 0.000000 1.000000 -0.000000
vn 0.000000 1.000000 -0.000000
vn 0.000000 1.000000 -0.000000
vn 0.000000 1.000000 -0.000000
vn 0.000000 1.000000 -0.000000
vn 0.000000 1.000000 -0.000000
vn 0.000000 1.000000 -0.000000
vn 0.000000 1.000000 -0.000000
vn 0.000000 1.000000 -0.000000
vn 0.000000 1.000000 -0.000000
vn 0.000000 1.000000 -0.000000
vn 0.000000 1.000000 -0.000000
vn 0.000000 1.000000 -0.000000
vn 0.000000 1.000000 -0.000000
vn 0.000000 1.000000 -0.000000
vn 0.000000 1.000000 -0.000000
vn 0.000000 1.000000 -0.000000
vn 0.000000 1.000000 -0.000000
vn 0.000000 1.000000 -0.000000
vn 0.000000 1.000000 -0.000000
vn 0.000000 1.000000 -0.000000
vn 0.000000 1.000000 -0.000000
vn 0.000000 1.000000 -0.000000
vn 0.000000 1.000000 -0.000000
vn 0.000000 1.000000 -0.000000
vn 0.000000 1.000000 -0.000000
vn 0.000000 1.000000 -0.000000
vn 0.000000 1.000000 -0.000000
vn 0.000000 1.000000 -0.000000
vn 0.000000 1.000000 -0.000000
vn 0.000000 1.000000 -0.000000
vn 0.000000 1.000000 -0.000000
vn 0.000000 -0.000000 -1.000000
vn 0.000000 -0.000000 -1.000000
vn 0.000000 -0.000000 -1.000000
vn 0.000000 -0.000000 -1.000000
vn 0.000000 -0.000000 -1.000000
vn 0.000000 -0.000000 -1.000000
vn 0.000000 0.000000 1.000000
vn 0.000000 0.000000 1.000000
vn 0.000000 0.000000 1.000000
vn 0.000000 0.000000 1.000000
vn 0.000000 0.000000 1.000000
vn 0.000000 0.000000 1.000000
vn 0.000000 0.000000 1.000000
vn 0.000000 0.000000 1.000000
vn 0.000000 0.000000 1.000000
vn 0.000000 0.000000 1.000000
vn 0.000000 0.000000 1.000000
vn 0.000000 0.000000 1.000000
vn 0.000000 0.000000 1.000000
vn 0.000000 0.000000 1.000000
vn 0.000000 0.000000 1.000000
vn 0.000000 0.000000 1.000000
vn 0.000000 0.000000 1.000000
vn 0.000000 0.000000 1.000000
vn 0.000000 0.000000 1.000000
vn 0.000000 0.000000 1.000000
vn 0.000000 0.000000 1.000000
vn 0.000000 0.000000 1.000000
vn 0.000000 0.000000 1.000000
vn 0.000000 0.000000 1.000000
vn 0.000000 0.000000 1.000000
vn 0.000000 0.000000 1.000000
vn 0.000000 0.000000 1.000000
vn 0.000000 0.000000 1.000000
vn 0.000000 0.000000 1.000000
vn 0.000000 0.000000 1.000000
vn 0.000000 0.000000 1.000000
vn 0.000000 0.000000 1.000000
vn 0.000000 0.000000 1.000000
vn 0.000000 0.000000 1.000000
vn 0.000000 0.000000 1.000000
vn 0.000000 0.000000 1.000000
vn 0.000000 0.000000 1.000000
vn 0.000000 0.000000 1.000000
vn 0.000000 0.000000 1.000000
vn 0.000000 0.000000 1.000000
vn 0.000000 0.000000 1.000000
vn 0.000000 0.000000 1.000000
vn 0.000000 0.000000 1.000000
vn 0.000000 0.000000 1.000000
vn 0.000000 0.000000 1.000000
vn 0.000000 0.000000 1.000000
vn 0.000000 0.000000 1.000000
vn 0.000000 0.000000 1.000000
vn 0.000000 0.000000 1.000000
vn 0.000000 0.000000 1.000000
vn 0.000000 0.000000 1.000000
vn 0.000000 0.000000 1.000000
vn 0.000000 0.000000 1.000000
vn 0.000000 0.000000 1.000000
vn 0.000000 0.000000 1.000000
vn 0.000000 0.000000 1.000000
vn 0.000000 0.000000 1.000000
vn 0.000000 0.000000 1.000000
vn 0.000000 0.000000 1.000000
vn 0.000000 0.000000 1.000000
vn 0.000000 0.000000 1.000000
vn 0.000000 0.000000 1.000000
vn 0.000000 0.000000 1.000000
vn 0.000000 0.000000 1.000000
vn 0.000000 0.000000 1.000000
vn 0.000000 0.000000 1.000000
s off
g wall1
usemtl wall1_palette
f 3/1/1 2/3/2 1/4/3
f 4/5/4 2/6/5 3/1/6
f 5/2/7 4/7/8 3/8/9
f 6/9/10 4/10/11 5/2/12
f 7/11/13 5/2/14 3/12/15
f 8/13/16 5/2/17 7/14/18
f 9/15/19 4/16/20 6/17/21
f 10/18/22 4/19/23 9/20/24
f 15/21/25 12/22/26 11/23/27
f 16/24/28 12/25/29 15/26/30
f 17/27/31 14/28/32 13/29/33
f 18/30/34 14/31/35 17/32/36
f 19/33/37 20/34/38 23/35/39
f 23/36/40 20/37/41 24/38/42
f 21/39/43 22/40/44 25/41/45
f 25/42/46 22/43/47 26/44/48
f 27/45/49 28/46/50 31/47/51
f 31/48/52 28/49/53 32/50/54
f 29/51/55 30/52/56 33/53/57
f 33/54/58 30/55/59 34/56/60
f 35/57/61 36/58/62 37/59/63
f 37/60/64 36/61/65 38/62/66
f 37/63/67 38/64/68 39/65/69
f 39/66/70 38/67/71 40/68/72
f 44/69/73 43/70/74 42/71/75
f 45/72/76 43/73/77 44/74/78
f 46/75/79 44/76/80 42/77/81
f 48/78/82 46/79/83 42/80/84
f 48/81/85 47/82/86 46/83/87
f 49/84/88 47/85/89 48/86/90
f 50/87/91 42/88/92 41/89/93
f 51/90/94 48/91/95 42/92/96
f 51/93/97 42/94/98 50/95/99
f 52/96/100 48/97/101 51/98/102
f 55/99/103 54/100/104 53/101/105
f 56/102/106 54/103/107 55/104/108
f 59/105/109 58/106/110 57/107/111
f 60/108/112 58/109/113 59/110/114
f 61/111/115 62/112/116 63/113/117
f 63/114/118 62/115/119 64/116/120
f 65/117/121 66/118/122 67/119/123
f 67/120/124 66/121/125 68/122/126
f 70/123/127 71/124/128 72/125/129
f 72/126/130 71/127/131 73/128/132
f 70/129/133 72/130/134 74/131/135
f 70/132/136 74/133/137 76/134/138
f 74/135/139 75/136/140 76/137/141
f 76/138/142 75/139/143 77/140/144
f 69/141/145 70/142/146 78/143/147
f 70/144/148 76/145/149 79/146/150
f 78/147/151 70/148/152 79/149/153
f 79/150/154 76/151/155 80/152/156
f 83/153/157 82/154/158 81/155/159
f 84/156/160 82/157/161 83/158/162
f 85/159/163 86/160/164 90/161/165
f 90/162/166 86/163/167 91/164/168
f 87/165/169 88/166/170 92/167/171
f 90/168/172 91/169/173 93/170/174
f 91/171/175 92/172/176 93/173/177
f 89/174/178 90/175/179 93/176/180
f 93/177/181 92/178/182 94/179/183
f 94/180/184 92/181/185 95/182/186
f 92/183/187 88/184/188 96/185/189
f 95/186/190 92/187/191 96/188/192
f 94/189/193 95/190/194 97/191/195
f 97/192/196 95/193/197 98/194/198
f 96/195/199 88/196/200 99/197/201
f 99/198/202 88/199/203 100/200/204
f 101/201/205 102/202/206 105/203/207
f 105/204/208 102/205/209 106/206/210
f 103/207/211 104/208/212 107/209/213
f 107/210/214 104/211/215 108/212/216
f 109/213/217 110/214/218 113/215/219
f 113/216/220 110/217/221 114/218/222
f 111/219/223 112/220/224 115/221/225
f 115/222/226 112/223/227 116/224/228
