# This file uses centimeters as units for non-parametric coordinates.

mtllib wallside1.mtl
g default
v -1.500000 0.000000 -0.500000
v -1.500000 0.000000 -2.500000
v -1.500000 3.000000 -0.500000
v -1.500000 3.000000 -2.500000
v -1.500000 4.000000 -0.500000
v -1.500000 4.000000 -2.500000
v -1.500000 5.000000 -0.500000
v -1.500000 5.000000 -2.500000
v -0.500000 0.000000 0.500000
v -0.500000 0.000000 -0.500000
v -0.500000 3.000000 0.500000
v -0.500000 3.000000 -0.500000
v -0.500000 4.000000 0.500000
v -0.500000 4.000000 -0.500000
v -0.500000 5.000000 0.500000
v -0.500000 5.000000 -0.500000
v 0.500000 0.000000 1.500000
v 0.500000 0.000000 0.500000
v 0.500000 3.000000 1.500000
v 0.500000 3.000000 0.500000
v 0.500000 4.000000 1.500000
v 0.500000 4.000000 0.500000
v 0.500000 5.000000 1.500000
v 0.500000 5.000000 0.500000
v -0.500000 0.000000 -0.500000
v -0.500000 0.000000 -2.500000
v -0.500000 3.000000 -0.500000
v -0.500000 3.000000 -2.500000
v -0.500000 4.000000 -0.500000
v -0.500000 4.000000 -2.500000
v -0.500000 5.000000 -0.500000
v -0.500000 5.000000 -2.500000
v 0.500000 0.000000 0.500000
v 0.500000 0.000000 -0.500000
v 0.500000 3.000000 0.500000
v 0.500000 3.000000 -0.500000
v 0.500000 4.000000 0.500000
v 0.500000 4.000000 -0.500000
v 0.500000 5.000000 0.500000
v 0.500000 5.000000 -0.500000
v 2.500000 0.000000 1.500000
v 2.500000 0.000000 0.500000
v 2.500000 3.000000 1.500000
v 2.500000 3.000000 0.500000
v 2.500000 4.000000 1.500000
v 2.500000 4.000000 0.500000
v 2.500000 5.000000 1.500000
v 2.500000 5.000000 0.500000
v 0.500000 0.000000 1.500000
v 0.500000 3.000000 1.500000
v 0.500000 4.000000 1.500000
v 0.500000 5.000000 1.500000
v 2.500000 0.000000 1.500000
v 2.500000 3.000000 1.500000
v 2.500000 4.000000 1.500000
v 2.500000 5.000000 1.500000
v -0.500000 0.000000 0.500000
v -0.500000 3.000000 0.500000
v -0.500000 4.000000 0.500000
v -0.500000 5.000000 0.500000
v 0.500000 0.000000 0.500000
v 0.500000 3.000000 0.500000
v 0.500000 4.000000 0.500000
v 0.500000 5.000000 0.500000
v -1.500000 0.000000 -0.500000
v -1.500000 3.000000 -0.500000
v -1.500000 4.000000 -0.500000
v -1.500000 5.000000 -0.500000
v -0.500000 0.000000 -0.500000
v -0.500000 3.000000 -0.500000
v -0.500000 4.000000 -0.500000
v -0.500000 5.000000 -0.500000
v 0.500000 0.000000 0.500000
v 0.500000 3.000000 0.500000
v 0.500000 4.000000 0.500000
v 0.500000 5.000000 0.500000
v 2.500000 0.000000 0.500000
v 2.500000 3.000000 0.500000
v 2.500000 4.000000 0.500000
v 2.500000 5.000000 0.500000
v -0.500000 0.000000 -0.500000
v -0.500000 3.000000 -0.500000
v -0.500000 4.000000 -0.500000
v -0.500000 5.000000 -0.500000
v 0.500000 0.000000 -0.500000
v 0.500000 3.000000 -0.500000
v 0.500000 4.000000 -0.500000
v 0.500000 5.000000 -0.500000
v -1.500000 0.000000 -2.500000
v -1.500000 3.000000 -2.500000
v -1.500000 4.000000 -2.500000
v -1.500000 5.000000 -2.500000
v -0.500000 0.000000 -2.500000
v -0.500000 3.000000 -2.500000
v -0.500000 4.000000 -2.500000
v -0.500000 5.000000 -2.500000
v 0.500000 0.000000 1.500000
v 2.500000 0.000000 1.500000
v -0.500000 0.000000 0.500000
v 0.500000 0.000000 0.500000
v 2.500000 0.000000 0.500000
v -1.500000 0.000000 -0.500000
v -0.500000 0.000000 -0.500000
v 0.500000 0.000000 -0.500000
v -1.500000 0.000000 -2.500000
v -0.500000 0.000000 -2.500000
v 0.500000 5.000000 1.500000
v 2.500000 5.000000 1.500000
v -0.500000 5.000000 0.500000
v 0.500000 5.000000 0.500000
v 2.500000 5.000000 0.500000
v -1.500000 5.000000 -0.500000
v -0.500000 5.000000 -0.500000
v 0.500000 5.000000 -0.500000
v -1.500000 5.000000 -2.500000
v -0.500000 5.000000 -2.500000
vt 0.986328 0.500000
vt 0.017578 0.500000
vt 0.986328 0.500000
vt 0.986328 0.500000
vt 0.986328 0.500000
vt 0.986328 0.500000
vt 0.017578 0.500000
vt 0.017578 0.500000
vt 0.017578 0.500000
vt 0.017578 0.500000
vt 0.986328 0.500000
vt 0.986328 0.500000
vt 0.986328 0.500000
vt 0.986328 0.500000
vt 0.986328 0.500000
vt 0.986328 0.500000
vt 0.986328 0.500000
vt 0.986328 0.500000
vt 0.986328 0.500000
vt 0.986328 0.500000
vt 0.986328 0.500000
vt 0.986328 0.500000
vt 0.017578 0.500000
vt 0.017578 0.500000
vt 0.017578 0.500000
vt 0.017578 0.500000
vt 0.017578 0.500000
vt 0.017578 0.500000
vt 0.986328 0.500000
vt 0.986328 0.500000
vt 0.986328 0.500000
vt 0.986328 0.500000
vt 0.986328 0.500000
vt 0.986328 0.500000
vt 0.986328 0.500000
vt 0.986328 0.500000
vt 0.986328 0.500000
vt 0.986328 0.500000
vt 0.986328 0.500000
vt 0.986328 0.500000
vt 0.017578 0.500000
vt 0.017578 0.500000
vt 0.017578 0.500000
vt 0.017578 0.500000
vt 0.017578 0.500000
vt 0.017578 0.500000
vt 0.986328 0.500000
vt 0.986328 0.500000
vt 0.986328 0.500000
vt 0.986328 0.500000
vt 0.986328 0.500000
vt 0.986328 0.500000
vt 0.986328 0.500000
vt 0.986328 0.500000
vt 0.986328 0.500000
vt 0.986328 0.500000
vt 0.986328 0.500000
vt 0.986328 0.500000
vt 0.017578 0.500000
vt 0.017578 0.500000
vt 0.017578 0.500000
vt 0.017578 0.500000
vt 0.017578 0.500000
vt 0.017578 0.500000
vt 0.986328 0.500000
vt 0.986328 0.500000
vt 0.986328 0.500000
vt 0.986328 0.500000
vt 0.986328 0.500000
vt 0.986328 0.500000
vt 0.986328 0.500000
vt 0.986328 0.500000
vt 0.986328 0.500000
vt 0.986328 0.500000
vt 0.986328 0.500000
vt 0.986328 0.500000
vt 0.017578 0.500000
vt 0.017578 0.500000
vt 0.017578 0.500000
vt 0.017578 0.500000
vt 0.017578 0.500000
vt 0.017578 0.500000
vt 0.986328 0.500000
vt 0.986328 0.500000
vt 0.986328 0.500000
vt 0.986328 0.500000
vt 0.986328 0.500000
vt 0.986328 0.500000
vt 0.986328 0.500000
vt 0.986328 0.500000
vt 0.986328 0.500000
vt 0.986328 0.500000
vt 0.986328 0.500000
vt 0.986328 0.500000
vt 0.017578 0.500000
vt 0.017578 0.500000
vt 0.017578 0.500000
vt 0.017578 0.500000
vt 0.017578 0.500000
vt 0.017578 0.500000
vt 0.986328 0.500000
vt 0.986328 0.500000
vt 0.986328 0.500000
vt 0.986328 0.500000
vt 0.986328 0.500000
vt 0.986328 0.500000
vt 0.986328 0.500000
vt 0.986328 0.500000
vt 0.986328 0.500000
vt 0.017578 0.500000
vt 0.017578 0.500000
vt 0.017578 0.500000
vt 0.986328 0.500000
vt 0.986328 0.500000
vt 0.986328 0.500000
vt 0.986328 0.500000
vt 0.986328 0.500000
vt 0.986328 0.500000
vt 0.017578 0.500000
vt 0.017578 0.500000
vt 0.017578 0.500000
vt 0.986328 0.500000
vt 0.986328 0.500000
vt 0.986328 0.500000
vt 0.986328 0.500000
vt 0.986328 0.500000
vt 0.986328 0.500000
vt 0.017578 0.500000
vt 0.017578 0.500000
vt 0.017578 0.500000
vt 0.986328 0.500000
vt 0.986328 0.500000
vt 0.986328 0.500000
vt 0.986328 0.500000
vt 0.986328 0.500000
vt 0.986328 0.500000
vt 0.017578 0.500000
vt 0.017578 0.500000
vt 0.017578 0.500000
vt 0.986328 0.500000
vt 0.986328 0.500000
vt 0.986328 0.500000
vt 0.986328 0.500000
vt 0.986328 0.500000
vt 0.986328 0.500000
vt 0.017578 0.500000
vt 0.017578 0.500000
vt 0.017578 0.500000
vt 0.986328 0.500000
vt 0.986328 0.500000
vt 0.986328 0.500000
vt 0.986328 0.500000
vt 0.986328 0.500000
vt 0.986328 0.500000
vt 0.017578 0.500000
vt 0.017578 0.500000
vt 0.017578 0.500000
vt 0.986328 0.500000
vt 0.986328 0.500000
vt 0.986328 0.500000
vt 0.986328 0.500000
vt 0.986328 0.500000
vt 0.986328 0.500000
vt 0.017578 0.500000
vt 0.017578 0.500000
vt 0.017578 0.500000
vt 0.986328 0.500000
vt 0.986328 0.500000
vt 0.986328 0.500000
vt 0.986328 0.500000
vt 0.986328 0.500000
vt 0.986328 0.500000
vt 0.017578 0.500000
vt 0.017578 0.500000
vt 0.017578 0.500000
vt 0.986328 0.500000
vt 0.986328 0.500000
vt 0.986328 0.500000
vt 0.986328 0.500000
vt 0.986328 0.500000
vt 0.986328 0.500000
vt 0.017578 0.500000
vt 0.017578 0.500000
vt 0.017578 0.500000
vt 0.986328 0.500000
vt 0.986328 0.500000
vt 0.986328 0.500000
vt 0.986328 0.500000
vt 0.986328 0.500000
vt 0.986328 0.500000
vt 0.017578 0.500000
vt 0.017578 0.500000
vt 0.017578 0.500000
vt 0.986328 0.500000
vt 0.986328 0.500000
vt 0.986328 0.500000
vt 0.986328 0.500000
vt 0.986328 0.500000
vt 0.986328 0.500000
vt 0.017578 0.500000
vt 0.017578 0.500000
vt 0.017578 0.500000
vt 0.986328 0.500000
vt 0.986328 0.500000
vt 0.986328 0.500000
vt 0.986328 0.500000
vt 0.986328 0.500000
vt 0.986328 0.500000
vt 0.017578 0.500000
vt 0.017578 0.500000
vt 0.017578 0.500000
vt 0.986328 0.500000
vt 0.986328 0.500000
vt 0.986328 0.500000
vt 0.986328 0.500000
vt 0.986328 0.500000
vt 0.986328 0.500000
vt 0.986328 0.500000
vt 0.986328 0.500000
vt 0.986328 0.500000
vt 0.986328 0.500000
vt 0.986328 0.500000
vt 0.986328 0.500000
vt 0.986328 0.500000
vt 0.986328 0.500000
vt 0.986328 0.500000
vt 0.986328 0.500000
vt 0.986328 0.500000
vt 0.986328 0.500000
vt 0.986328 0.500000
vt 0.986328 0.500000
vt 0.986328 0.500000
vt 0.986328 0.500000
vt 0.986328 0.500000
vt 0.986328 0.500000
vt 0.986328 0.500000
vt 0.986328 0.500000
vt 0.986328 0.500000
vt 0.986328 0.500000
vt 0.986328 0.500000
vt 0.986328 0.500000
vt 0.986328 0.500000
vt 0.986328 0.500000
vt 0.986328 0.500000
vt 0.986328 0.500000
vt 0.986328 0.500000
vt 0.986328 0.500000
vt 0.986328 0.500000
vt 0.986328 0.500000
vt 0.986328 0.500000
vn -1.000000 0.000000 0.000000
vn -1.000000 0.000000 0.000000
vn -1.000000 0.000000 0.000000
vn -1.000000 0.000000 0.000000
vn -1.000000 0.000000 0.000000
vn -1.000000 0.000000 0.000000
vn -1.000000 0.000000 0.000000
vn -1.000000 0.000000 0.000000
vn -1.000000 0.000000 0.000000
vn -1.000000 0.000000 0.000000
vn -1.000000 0.000000 0.000000
vn -1.000000 0.000000 0.000000
vn -1.000000 0.000000 0.000000
vn -1.000000 0.000000 0.000000
vn -1.000000 0.000000 0.000000
vn -1.000000 0.000000 0.000000
vn -1.000000 0.000000 0.000000
vn -1.000000 0.000000 0.000000
vn -1.000000 0.000000 0.000000
vn -1.000000 0.000000 0.000000
vn -1.000000 0.000000 0.000000
vn -1.000000 0.000000 0.000000
vn -1.000000 0.000000 0.000000
vn -1.000000 0.000000 0.000000
vn -1.000000 0.000000 0.000000
vn -1.000000 0.000000 0.000000
vn -1.000000 0.000000 0.000000
vn -1.000000 0.000000 0.000000
vn -1.000000 0.000000 0.000000
vn -1.000000 0.000000 0.000000
vn -1.000000 0.000000 0.000000
vn -1.000000 0.000000 0.000000
vn -1.000000 0.000000 0.000000
vn -1.000000 0.000000 0.000000
vn -1.000000 0.000000 0.000000
vn -1.000000 0.000000 0.000000
vn -1.000000 0.000000 0.000000
vn -1.000000 0.000000 0.000000
vn -1.000000 0.000000 0.000000
vn -1.000000 0.000000 0.000000
vn -1.000000 0.000000 0.000000
vn -1.000000 0.000000 0.000000
vn -1.000000 0.000000 0.000000
vn -1.000000 0.000000 0.000000
vn -1.000000 0.000000 0.000000
vn -1.000000 0.000000 0.000000
vn -1.000000 0.000000 0.000000
vn -1.000000 0.000000 0.000000
vn -1.000000 0.000000 0.000000
vn -1.000000 0.000000 0.000000
vn -1.000000 0.000000 0.000000
vn -1.000000 0.000000 0.000000
vn -1.000000 0.000000 0.000000
vn -1.000000 0.000000 0.000000
vn 1.000000 0.000000 0.000000
vn 1.000000 0.000000 0.000000
vn 1.000000 0.000000 0.000000
vn 1.000000 0.000000 0.000000
vn 1.000000 0.000000 0.000000
vn 1.000000 0.000000 0.000000
vn 1.000000 0.000000 0.000000
vn 1.000000 0.000000 0.000000
vn 1.000000 0.000000 0.000000
vn 1.000000 0.000000 0.000000
vn 1.000000 0.000000 0.000000
vn 1.000000 0.000000 0.000000
vn 1.000000 0.000000 0.000000
vn 1.000000 0.000000 0.000000
vn 1.000000 0.000000 0.000000
vn 1.000000 0.000000 0.000000
vn 1.000000 0.000000 0.000000
vn 1.000000 0.000000 0.000000
vn 1.000000 0.000000 0.000000
vn 1.000000 0.000000 0.000000
vn 1.000000 0.000000 0.000000
vn 1.000000 0.000000 0.000000
vn 1.000000 0.000000 0.000000
vn 1.000000 0.000000 0.000000
vn 1.000000 0.000000 0.000000
vn 1.000000 0.000000 0.000000
vn 1.000000 0.000000 0.000000
vn 1.000000 0.000000 0.000000
vn 1.000000 0.000000 0.000000
vn 1.000000 0.000000 0.000000
vn 1.000000 0.000000 0.000000
vn 1.000000 0.000000 0.000000
vn 1.000000 0.000000 0.000000
vn 1.000000 0.000000 0.000000
vn 1.000000 0.000000 0.000000
vn 1.000000 0.000000 0.000000
vn 1.000000 0.000000 0.000000
vn 1.000000 0.000000 0.000000
vn 1.000000 0.000000 0.000000
vn 1.000000 0.000000 0.000000
vn 1.000000 0.000000 0.000000
vn 1.000000 0.000000 0.000000
vn 1.000000 0.000000 0.000000
vn 1.000000 0.000000 0.000000
vn 1.000000 0.000000 0.000000
vn 1.000000 0.000000 0.000000
vn 1.000000 0.000000 0.000000
vn 1.000000 0.000000 0.000000
vn 1.000000 0.000000 0.000000
vn 1.000000 0.000000 0.000000
vn 1.000000 0.000000 0.000000
vn 1.000000 0.000000 0.000000
vn 1.000000 0.000000 0.000000
vn 1.000000 0.000000 0.000000
vn 0.000000 0.000000 1.000000
vn 0.000000 0.000000 1.000000
vn 0.000000 0.000000 1.000000
vn 0.000000 0.000000 1.000000
vn 0.000000 0.000000 1.000000
vn 0.000000 0.000000 1.000000
vn 0.000000 0.000000 1.000000
vn 0.000000 0.000000 1.000000
vn 0.000000 0.000000 1.000000
vn 0.000000 0.000000 1.000000
vn 0.000000 0.000000 1.000000
vn 0.000000 0.000000 1.000000
vn 0.000000 0.000000 1.000000
vn 0.000000 0.000000 1.000000
vn 0.000000 0.000000 1.000000
vn 0.000000 0.000000 1.000000
vn 0.000000 0.000000 1.000000
vn 0.000000 0.000000 1.000000
vn 0.000000 0.000000 1.000000
vn 0.000000 0.000000 1.000000
vn 0.000000 0.000000 1.000000
vn 0.000000 0.000000 1.000000
vn 0.000000 0.000000 1.000000
vn 0.000000 0.000000 1.000000
vn 0.000000 0.000000 1.000000
vn 0.000000 0.000000 1.000000
vn 0.000000 0.000000 1.000000
vn 0.000000 0.000000 1.000000
vn 0.000000 0.000000 1.000000
vn 0.000000 0.000000 1.000000
vn 0.000000 0.000000 1.000000
vn 0.000000 0.000000 1.000000
vn 0.000000 0.000000 1.000000
vn 0.000000 0.000000 1.000000
vn 0.000000 0.000000 1.000000
vn 0.000000 0.000000 1.000000
vn 0.000000 0.000000 1.000000
vn 0.000000 0.000000 1.000000
vn 0.000000 0.000000 1.000000
vn 0.000000 0.000000 1.000000
vn 0.000000 0.000000 1.000000
vn 0.000000 0.000000 1.000000
vn 0.000000 0.000000 1.000000
vn 0.000000 0.000000 1.000000
vn 0.000000 0.000000 1.000000
vn 0.000000 0.000000 1.000000
vn 0.000000 0.000000 1.000000
vn 0.000000 0.000000 1.000000
vn 0.000000 0.000000 1.000000
vn 0.000000 0.000000 1.000000
vn 0.000000 0.000000 1.000000
vn 0.000000 0.000000 1.000000
vn 0.000000 0.000000 1.000000
vn 0.000000 0.000000 1.000000
vn 0.000000 0.000000 -1.000000
vn 0.000000 0.000000 -1.000000
vn 0.000000 0.000000 -1.000000
vn 0.000000 0.000000 -1.000000
vn 0.000000 0.000000 -1.000000
vn 0.000000 0.000000 -1.000000
vn 0.000000 0.000000 -1.000000
vn 0.000000 0.000000 -1.000000
vn 0.000000 0.000000 -1.000000
vn 0.000000 0.000000 -1.000000
vn 0.000000 0.000000 -1.000000
vn 0.000000 0.000000 -1.000000
vn 0.000000 0.000000 -1.000000
vn 0.000000 0.000000 -1.000000
vn 0.000000 0.000000 -1.000000
vn 0.000000 0.000000 -1.000000
vn 0.000000 0.000000 -1.000000
vn 0.000000 0.000000 -1.000000
vn 0.000000 0.000000 -1.000000
vn 0.000000 0.000000 -1.000000
vn 0.000000 0.000000 -1.000000
vn 0.000000 0.000000 -1.000000
vn 0.000000 0.000000 -1.000000
vn 0.000000 0.000000 -1.000000
vn 0.000000 0.000000 -1.000000
vn 0.000000 0.000000 -1.000000
vn 0.000000 0.000000 -1.000000
vn 0.000000 0.000000 -1.000000
vn 0.000000 0.000000 -1.000000
vn 0.000000 0.000000 -1.000000
vn 0.000000 0.000000 -1.000000
vn 0.000000 0.000000 -1.000000
vn 0.000000 0.000000 -1.000000
vn 0.000000 0.000000 -1.000000
vn 0.000000 0.000000 -1.000000
vn 0.000000 0.000000 -1.000000
vn 0.000000 0.000000 -1.000000
vn 0.000000 0.000000 -1.000000
vn 0.000000 0.000000 -1.000000
vn 0.000000 0.000000 -1.000000
vn 0.000000 0.000000 -1.000000
vn 0.000000 0.000000 -1.000000
vn 0.000000 0.000000 -1.000000
vn 0.000000 0.000000 -1.000000
vn 0.000000 0.000000 -1.000000
vn 0.000000 0.000000 -1.000000
vn 0.000000 0.000000 -1.000000
vn 0.000000 0.000000 -1.000000
vn 0.000000 0.000000 -1.000000
vn 0.000000 0.000000 -1.000000
vn 0.000000 0.000000 -1.000000
vn 0.000000 0.000000 -1.000000
vn 0.000000 0.000000 -1.000000
vn 0.000000 0.000000 -1.000000
vn 0.000000 -1.000000 0.000000
vn 0.000000 -1.000000 0.000000
vn 0.000000 -1.000000 0.000000
vn 0.000000 -1.000000 0.000000
vn 0.000000 -1.000000 0.000000
vn 0.000000 -1.000000 0.000000
vn 0.000000 -1.000000 0.000000
vn 0.000000 -1.000000 0.000000
vn 0.000000 -1.000000 0.000000
vn 0.000000 -1.000000 0.000000
vn 0.000000 -1.000000 0.000000
vn 0.000000 -1.000000 0.000000
vn 0.000000 -1.000000 0.000000
vn 0.000000 -1.000000 0.000000
vn 0.000000 -1.000000 0.000000
vn 0.000000 -1.000000 0.000000
vn 0.000000 -1.000000 0.000000
vn 0.000000 -1.000000 0.000000
vn 0.000000 1.000000 0.000000
vn 0.000000 1.000000 0.000000
vn 0.000000 1.000000 0.000000
vn 0.000000 1.000000 0.000000
vn 0.000000 1.000000 0.000000
vn 0.000000 1.000000 0.000000
vn 0.000000 1.000000 0.000000
vn 0.000000 1.000000 0.000000
vn 0.000000 1.000000 0.000000
vn 0.000000 1.000000 0.000000
vn 0.000000 1.000000 0.000000
vn 0.000000 1.000000 0.000000
vn 0.000000 1.000000 0.000000
vn 0.000000 1.000000 0.000000
vn 0.000000 1.000000 0.000000
vn 0.000000 1.000000 0.000000
vn 0.000000 1.000000 0.000000
vn 0.000000 1.000000 0.000000
s off
g wallside1
usemtl wallside1_palette4
f 3/1/1 2/3/2 1/4/3
f 4/5/4 2/6/5 3/1/6
f 5/2/7 4/7/8 3/8/9
f 6/9/10 4/10/11 5/2/12
f 7/11/13 6/12/14 5/13/15
f 8/14/16 6/15/17 7/16/18
f 11/17/19 10/18/20 9/19/21
f 12/20/22 10/21/23 11/22/24
f 13/23/25 12/24/26 11/25/27
f 14/26/28 12/27/29 13/28/30
f 15/29/31 14/30/32 13/31/33
f 16/32/34 14/33/35 15/34/36
f 19/35/37 18/36/38 17/37/39
f 20/38/40 18/39/41 19/40/42
f 21/41/43 20/42/44 19/43/45
f 22/44/46 20/45/47 21/46/48
f 23/47/49 22/48/50 21/49/51
f 24/50/52 22/51/53 23/52/54
f 25/53/55 26/54/56 27/55/57
f 27/56/58 26/57/59 28/58/60
f 27/59/61 28/60/62 29/61/63
f 29/62/64 28/63/65 30/64/66
f 29/65/67 30/66/68 31/67/69
f 31/68/70 30/69/71 32/70/72
f 33/71/73 34/72/74 35/73/75
f 35/74/76 34/75/77 36/76/78
f 35/77/79 36/78/80 37/79/81
f 37/80/82 36/81/83 38/82/84
f 37/83/85 38/84/86 39/85/87
f 39/86/88 38/87/89 40/88/90
f 41/89/91 42/90/92 43/91/93
f 43/92/94 42/93/95 44/94/96
f 43/95/97 44/96/98 45/97/99
f 45/98/100 44/99/101 46/100/102
f 45/101/103 46/102/104 47/103/105
f 47/104/106 46/105/107 48/106/108
f 53/107/109 50/108/110 49/109/111
f 54/110/112 51/111/113 50/112/114
f 54/113/115 50/114/116 53/115/117
f 55/116/118 52/117/119 51/118/120
f 55/119/121 51/120/122 54/121/123
f 56/122/124 52/123/125 55/124/126
f 61/125/127 58/126/128 57/127/129
f 62/128/130 59/129/131 58/130/132
f 62/131/133 58/132/134 61/133/135
f 63/134/136 60/135/137 59/136/138
f 63/137/139 59/138/140 62/139/141
f 64/140/142 60/141/143 63/142/144
f 69/143/145 66/144/146 65/145/147
f 70/146/148 67/147/149 66/148/150
f 70/149/151 66/150/152 69/151/153
f 71/152/154 68/153/155 67/154/156
f 71/155/157 67/156/158 70/157/159
f 72/158/160 68/159/161 71/160/162
f 73/161/163 74/162/164 77/163/165
f 74/164/166 75/165/167 78/166/168
f 77/167/169 74/168/170 78/169/171
f 75/170/172 76/171/173 79/172/174
f 78/173/175 75/174/176 79/175/177
f 79/176/178 76/177/179 80/178/180
f 81/179/181 82/180/182 85/181/183
f 82/182/184 83/183/185 86/184/186
f 85/185/187 82/186/188 86/187/189
f 83/188/190 84/189/191 87/190/192
f 86/191/193 83/192/194 87/193/195
f 87/194/196 84/195/197 88/196/198
f 89/197/199 90/198/200 93/199/201
f 90/200/202 91/201/203 94/202/204
f 93/203/205 90/204/206 94/205/207
f 91/206/208 92/207/209 95/208/210
f 94/209/211 91/210/212 95/211/213
f 95/212/214 92/213/215 96/214/216
f 100/215/217 98/216/218 97/217/219
f 101/218/220 98/219/221 100/220/222
f 103/221/223 100/222/224 99/223/225
f 104/224/226 100/225/227 103/226/228
f 105/227/229 103/228/230 102/229/231
f 106/230/232 103/231/233 105/232/234
f 107/233/235 108/234/236 110/235/237
f 110/236/238 108/237/239 111/238/240
f 109/239/241 110/240/242 113/241/243
f 113/242/244 110/243/245 114/244/246
f 112/245/247 113/246/248 115/247/249
f 115/248/250 113/249/251 116/250/252
